{"glyphs":{"0":{"ha":743,"x_min":39,"x_max":701,"o":"m 422 982 q 626 881 551 982 q 701 592 701 781 q 649 267 701 403 q 510 60 597 131 q 318 -10 422 -10 q 114 90 189 -10 q 39 375 39 189 q 90 703 39 567 q 229 911 142 840 q 422 982 317 982 m 407 843 q 314 790 358 843 q 242 628 269 736 q 214 363 214 519 q 246 188 214 246 q 332 129 278 129 q 424 182 379 129 q 498 342 469 235 q 526 604 526 450 q 494 783 526 724 q 407 843 463 843 z "},"1":{"ha":743,"x_min":32,"x_max":658,"o":"m 493 976 q 526 967 510 976 q 542 944 542 957 l 457 140 l 626 140 q 651 129 643 140 q 658 94 658 118 q 613 0 658 0 l 64 0 q 40 11 47 0 q 32 46 32 22 q 79 140 32 140 l 283 140 l 354 808 l 142 776 q 113 849 113 776 q 119 892 113 879 q 149 910 125 906 l 493 976 z "},"2":{"ha":743,"x_min":17,"x_max":682,"o":"m 401 982 q 550 952 486 982 q 648 871 614 922 q 682 756 682 819 q 649 615 682 679 q 531 454 617 550 l 242 140 l 597 140 q 622 129 614 140 q 629 94 629 118 q 582 0 629 0 l 51 0 q 28 35 39 0 q 17 101 17 71 q 19 122 17 117 l 429 568 q 485 651 464 607 q 506 732 506 694 q 469 813 506 785 q 372 842 433 842 q 289 828 324 842 q 221 793 254 814 q 206 785 218 792 q 186 778 193 778 q 147 806 164 778 q 129 858 129 833 q 174 924 129 896 q 283 967 219 953 q 401 982 347 982 z "},"3":{"ha":743,"x_min":57,"x_max":656,"o":"m 396 982 q 586 926 517 982 q 656 769 656 871 q 613 627 656 688 q 499 539 569 567 l 499 533 q 601 454 564 510 q 639 319 639 399 q 591 140 639 214 q 464 28 543 65 q 294 -10 385 -10 q 136 7 215 -10 q 57 71 57 24 q 65 158 57 132 q 85 183 74 183 q 119 168 89 183 q 191 141 150 153 q 285 129 232 129 q 411 176 360 129 q 463 313 463 222 q 422 411 463 379 q 299 443 382 443 l 257 443 q 233 454 240 443 q 225 489 225 465 q 272 582 225 582 l 303 582 q 399 605 360 582 q 458 664 439 628 q 478 738 478 700 q 449 813 478 783 q 358 842 419 842 q 272 832 307 842 q 206 807 238 822 q 176 797 183 797 q 142 830 160 797 q 125 888 125 863 q 210 956 125 931 q 396 982 296 982 z "},"4":{"ha":743,"x_min":1,"x_max":707,"o":"m 603 975 q 653 965 639 975 q 668 936 668 956 l 607 350 l 675 350 q 699 339 692 350 q 707 304 707 328 q 660 210 707 210 l 592 210 l 574 36 q 501 -3 569 -3 l 465 -3 q 416 7 431 -3 q 401 36 401 17 l 419 210 l 35 210 q 11 244 21 210 q 1 308 1 278 q 6 333 1 329 l 499 951 q 527 970 510 965 q 571 975 544 975 l 603 975 m 467 714 l 186 350 l 433 350 l 472 713 l 467 714 z "},"5":{"ha":743,"x_min":53,"x_max":667,"o":"m 635 972 q 667 926 667 972 q 619 832 667 832 l 331 832 l 290 601 l 340 601 q 654 347 654 601 q 598 138 654 218 q 455 24 542 58 q 272 -10 368 -10 q 125 7 197 -10 q 53 71 53 24 q 61 158 53 132 q 81 183 69 183 q 115 168 85 183 q 188 141 146 153 q 286 129 229 129 q 423 180 369 129 q 476 324 476 231 q 293 463 476 463 l 153 463 q 119 470 129 463 q 110 499 110 478 l 179 922 q 197 960 183 949 q 239 972 211 972 l 635 972 z "},"6":{"ha":743,"x_min":36,"x_max":669,"o":"m 583 976 q 621 944 608 976 q 633 883 633 913 q 630 863 633 869 q 615 853 626 856 q 402 729 493 810 q 267 544 311 649 q 426 583 340 583 q 542 556 486 583 q 633 473 597 529 q 669 333 669 417 q 619 144 669 222 q 488 28 568 67 q 318 -10 407 -10 q 115 64 193 -10 q 36 285 36 138 q 148 666 36 511 q 395 899 260 821 q 583 976 531 976 m 363 443 q 225 404 297 443 q 211 286 211 329 q 246 167 211 203 q 336 131 281 131 q 411 153 375 131 q 470 216 447 175 q 493 313 493 257 q 458 410 493 376 q 363 443 422 443 z "},"7":{"ha":743,"x_min":68,"x_max":724,"o":"m 697 972 q 715 940 707 972 q 724 879 724 908 q 719 850 724 861 l 254 24 q 181 -3 239 -3 l 138 -3 q 85 2 103 -3 q 68 22 68 7 q 76 46 68 32 l 524 832 l 133 832 q 109 843 117 832 q 101 878 101 854 q 149 972 101 972 l 697 972 z "},"8":{"ha":743,"x_min":26,"x_max":688,"o":"m 431 982 q 618 923 549 982 q 688 768 688 864 q 538 533 688 603 q 635 452 600 503 q 671 317 671 401 q 632 155 671 229 q 514 35 593 81 q 322 -10 435 -10 q 103 58 179 -10 q 26 240 26 125 q 71 413 26 335 q 200 524 115 490 q 113 696 113 583 q 151 840 113 775 q 263 944 190 906 q 431 982 335 982 m 413 843 q 322 810 360 843 q 285 714 285 776 q 316 638 285 665 q 408 588 347 611 q 517 746 517 651 q 487 817 517 792 q 413 843 457 843 m 319 465 q 234 382 264 431 q 204 263 204 333 q 240 165 204 200 q 335 129 275 129 q 412 150 375 129 q 472 209 449 171 q 494 299 494 247 q 473 374 494 344 q 419 422 451 404 q 319 465 386 439 z "},"9":{"ha":743,"x_min":71,"x_max":704,"o":"m 422 982 q 626 909 547 982 q 704 689 704 836 q 592 307 704 463 q 345 74 481 151 q 157 -4 210 -4 q 119 28 132 -4 q 107 90 107 60 q 110 110 107 104 q 125 121 114 117 q 338 243 247 163 q 474 429 429 324 q 313 390 400 390 q 199 417 254 390 q 107 501 143 444 q 71 640 71 557 q 122 828 71 751 q 253 944 172 906 q 422 982 333 982 m 404 843 q 329 821 365 843 q 270 757 293 799 q 247 660 247 715 q 283 563 247 596 q 378 529 318 529 q 515 568 443 529 q 529 686 529 643 q 494 807 529 771 q 404 843 460 843 z "},"\u0000":{"ha":0,"x_min":0,"x_max":0,"o":""},"\r":{"ha":333,"x_min":0,"x_max":0,"o":""}," ":{"ha":333,"x_min":0,"x_max":0,"o":""},"A":{"ha":851,"x_min":-44,"x_max":804,"o":"m 508 975 q 576 949 569 975 l 801 47 q 804 28 804 39 q 787 6 804 14 q 735 -3 769 -3 l 692 -3 q 624 24 631 -3 l 576 214 l 215 214 l 129 24 q 65 -3 117 -3 l 28 -3 q -44 24 -44 -3 q -36 49 -44 32 l 375 949 q 447 975 386 975 l 508 975 m 453 764 q 424 678 438 711 l 283 369 l 540 369 l 468 678 q 458 764 458 717 l 453 764 z "},"Á":{"ha":851,"x_min":-44,"x_max":804,"o":"m 0 0 m 508 975 q 576 949 569 975 l 801 47 q 804 28 804 39 q 787 6 804 14 q 735 -3 769 -3 l 692 -3 q 624 24 631 -3 l 576 214 l 215 214 l 129 24 q 65 -3 117 -3 l 28 -3 q -44 24 -44 -3 q -36 49 -44 32 l 375 949 q 447 975 386 975 l 508 975 m 453 764 q 424 678 438 711 l 283 369 l 540 369 l 468 678 q 458 764 458 717 l 453 764 m 622 1264 q 697 1247 697 1264 q 688 1227 697 1238 q 633 1171 678 1217 q 542 1081 611 1150 q 446 1050 511 1050 q 417 1053 425 1050 q 408 1065 408 1057 q 419 1089 408 1072 q 449 1133 429 1106 q 474 1170 458 1147 q 511 1228 489 1193 q 622 1264 536 1264 z "},"Ă":{"ha":851,"x_min":-44,"x_max":804,"o":"m 0 0 m 508 975 q 576 949 569 975 l 801 47 q 804 28 804 39 q 787 6 804 14 q 735 -3 769 -3 l 692 -3 q 624 24 631 -3 l 576 214 l 215 214 l 129 24 q 65 -3 117 -3 l 28 -3 q -44 24 -44 -3 q -36 49 -44 32 l 375 949 q 447 975 386 975 l 508 975 m 453 764 q 424 678 438 711 l 283 369 l 540 369 l 468 678 q 458 764 458 717 l 453 764 m 667 1239 q 701 1211 701 1239 q 670 1130 701 1167 q 588 1072 639 1093 q 482 1050 536 1050 q 348 1090 401 1050 q 294 1193 294 1131 q 304 1227 294 1215 q 338 1239 314 1239 q 358 1234 351 1239 q 368 1222 364 1229 q 375 1210 372 1214 q 494 1164 401 1164 q 578 1178 547 1164 q 629 1215 608 1192 q 637 1226 631 1218 q 649 1236 643 1233 q 667 1239 656 1239 z "},"Ắ":{"ha":851,"x_min":-44,"x_max":804,"o":"m 617 1389 q 654 1383 642 1389 q 667 1363 667 1378 q 643 1326 667 1354 q 544 1219 619 1297 q 474 1197 519 1197 q 452 1201 458 1197 q 446 1214 446 1204 q 463 1256 446 1222 q 515 1353 481 1289 q 617 1389 535 1389 m 668 1226 q 703 1199 703 1226 q 671 1124 703 1158 q 588 1069 639 1090 q 483 1049 538 1049 q 350 1087 404 1049 q 296 1181 296 1125 q 306 1215 296 1203 q 339 1226 315 1226 q 358 1222 353 1226 q 369 1209 364 1217 q 376 1197 374 1201 q 419 1163 390 1176 q 496 1149 449 1149 q 631 1203 586 1149 q 638 1213 632 1206 q 651 1224 644 1221 q 668 1226 657 1226 m 508 975 q 576 949 569 975 l 801 47 q 804 28 804 39 q 787 6 804 14 q 735 -3 769 -3 l 692 -3 q 624 24 631 -3 l 576 214 l 215 214 l 129 24 q 65 -3 117 -3 l 28 -3 q -44 24 -44 -3 q -36 49 -44 32 l 375 949 q 447 975 386 975 l 508 975 m 453 764 q 424 678 438 711 l 283 369 l 540 369 l 468 678 q 458 764 458 717 l 453 764 z "},"Ặ":{"ha":851,"x_min":-44,"x_max":804,"o":"m 0 0 m 508 975 q 576 949 569 975 l 801 47 q 804 28 804 39 q 787 6 804 14 q 735 -3 769 -3 l 692 -3 q 624 24 631 -3 l 576 214 l 215 214 l 129 24 q 65 -3 117 -3 l 28 -3 q -44 24 -44 -3 q -36 49 -44 32 l 375 949 q 447 975 386 975 l 508 975 m 453 764 q 424 678 438 711 l 283 369 l 540 369 l 468 678 q 458 764 458 717 l 453 764 m 667 1239 q 701 1211 701 1239 q 670 1130 701 1167 q 588 1072 639 1093 q 482 1050 536 1050 q 348 1090 401 1050 q 294 1193 294 1131 q 304 1227 294 1215 q 338 1239 314 1239 q 358 1234 351 1239 q 368 1222 364 1229 q 375 1210 372 1214 q 494 1164 401 1164 q 578 1178 547 1164 q 629 1215 608 1192 q 637 1226 631 1218 q 649 1236 643 1233 q 667 1239 656 1239 m 393 -111 q 447 -121 431 -111 q 463 -150 463 -131 l 454 -229 q 375 -268 447 -268 q 321 -259 336 -268 q 306 -229 306 -250 l 314 -150 q 393 -111 318 -111 z "},"Ằ":{"ha":851,"x_min":-44,"x_max":804,"o":"m 424 1392 q 521 1354 507 1392 q 564 1217 564 1232 q 554 1203 564 1207 q 524 1199 544 1199 q 453 1229 474 1199 q 384 1330 406 1297 q 363 1371 363 1363 q 376 1388 363 1383 q 424 1392 390 1392 m 668 1226 q 703 1199 703 1226 q 671 1124 703 1158 q 588 1069 639 1090 q 483 1049 538 1049 q 350 1087 404 1049 q 296 1181 296 1125 q 306 1215 296 1203 q 339 1226 315 1226 q 358 1222 353 1226 q 369 1209 364 1217 q 376 1197 374 1201 q 419 1163 390 1176 q 496 1149 449 1149 q 631 1203 586 1149 q 638 1213 632 1206 q 651 1224 644 1221 q 668 1226 657 1226 m 508 975 q 576 949 569 975 l 801 47 q 804 28 804 39 q 787 6 804 14 q 735 -3 769 -3 l 692 -3 q 624 24 631 -3 l 576 214 l 215 214 l 129 24 q 65 -3 117 -3 l 28 -3 q -44 24 -44 -3 q -36 49 -44 32 l 375 949 q 447 975 386 975 l 508 975 m 453 764 q 424 678 438 711 l 283 369 l 540 369 l 468 678 q 458 764 458 717 l 453 764 z "},"Ẳ":{"ha":851,"x_min":-44,"x_max":804,"o":"m 532 1301 q 522 1322 532 1314 q 496 1331 511 1331 q 449 1319 468 1331 q 425 1308 429 1308 q 405 1328 417 1308 q 393 1363 393 1349 q 432 1389 393 1376 q 508 1401 471 1401 q 592 1377 561 1401 q 622 1308 622 1353 q 607 1265 622 1283 q 567 1229 592 1246 q 531 1210 550 1219 q 506 1200 511 1200 q 466 1208 481 1200 q 451 1228 451 1217 q 483 1257 451 1242 q 521 1278 510 1268 q 532 1301 532 1288 m 668 1226 q 703 1199 703 1226 q 671 1124 703 1158 q 588 1069 639 1090 q 483 1049 538 1049 q 350 1087 404 1049 q 296 1181 296 1125 q 306 1215 296 1203 q 339 1226 315 1226 q 358 1222 353 1226 q 369 1209 364 1217 q 376 1197 374 1201 q 419 1163 390 1176 q 496 1149 449 1149 q 631 1203 586 1149 q 638 1213 632 1206 q 651 1224 644 1221 q 668 1226 657 1226 m 508 975 q 576 949 569 975 l 801 47 q 804 28 804 39 q 787 6 804 14 q 735 -3 769 -3 l 692 -3 q 624 24 631 -3 l 576 214 l 215 214 l 129 24 q 65 -3 117 -3 l 28 -3 q -44 24 -44 -3 q -36 49 -44 32 l 375 949 q 447 975 386 975 l 508 975 m 453 764 q 424 678 438 711 l 283 369 l 540 369 l 468 678 q 458 764 458 717 l 453 764 z "},"Ẵ":{"ha":851,"x_min":-44,"x_max":804,"o":"m 421 1408 q 470 1400 440 1408 q 528 1382 500 1392 q 613 1360 588 1361 q 660 1389 639 1360 q 690 1411 675 1411 q 706 1408 694 1411 l 718 1404 q 742 1375 742 1397 q 738 1356 742 1367 q 688 1284 721 1310 q 608 1258 656 1258 q 503 1283 578 1258 q 453 1299 478 1292 q 414 1306 429 1306 q 368 1276 389 1306 q 338 1254 353 1254 q 322 1257 333 1254 l 310 1263 q 286 1293 286 1271 q 290 1311 286 1301 q 340 1382 307 1356 q 421 1408 374 1408 m 668 1226 q 703 1199 703 1226 q 671 1124 703 1158 q 588 1069 639 1090 q 483 1049 538 1049 q 350 1087 404 1049 q 296 1181 296 1125 q 306 1215 296 1203 q 339 1226 315 1226 q 358 1222 353 1226 q 369 1209 364 1217 q 376 1197 374 1201 q 419 1163 390 1176 q 496 1149 449 1149 q 631 1203 586 1149 q 638 1213 632 1206 q 651 1224 644 1221 q 668 1226 657 1226 m 508 975 q 576 949 569 975 l 801 47 q 804 28 804 39 q 787 6 804 14 q 735 -3 769 -3 l 692 -3 q 624 24 631 -3 l 576 214 l 215 214 l 129 24 q 65 -3 117 -3 l 28 -3 q -44 24 -44 -3 q -36 49 -44 32 l 375 949 q 447 975 386 975 l 508 975 m 453 764 q 424 678 438 711 l 283 369 l 540 369 l 468 678 q 458 764 458 717 l 453 764 z "},"Â":{"ha":851,"x_min":-44,"x_max":804,"o":"m 0 0 m 508 975 q 576 949 569 975 l 801 47 q 804 28 804 39 q 787 6 804 14 q 735 -3 769 -3 l 692 -3 q 624 24 631 -3 l 576 214 l 215 214 l 129 24 q 65 -3 117 -3 l 28 -3 q -44 24 -44 -3 q -36 49 -44 32 l 375 949 q 447 975 386 975 l 508 975 m 453 764 q 424 678 438 711 l 283 369 l 540 369 l 468 678 q 458 764 458 717 l 453 764 m 510 1243 q 557 1238 539 1243 q 583 1215 575 1232 l 656 1081 q 660 1061 660 1071 q 652 1047 660 1053 q 631 1042 644 1042 l 610 1042 q 538 1069 558 1042 l 488 1143 l 425 1071 q 391 1048 410 1054 q 346 1042 372 1042 l 324 1042 q 297 1057 297 1042 q 307 1081 297 1067 l 407 1215 q 438 1238 418 1232 q 486 1243 457 1243 l 510 1243 z "},"Ấ":{"ha":851,"x_min":-44,"x_max":844,"o":"m 794 1336 q 832 1331 819 1336 q 844 1310 844 1325 q 821 1273 844 1301 q 722 1167 797 1244 q 651 1144 697 1144 q 630 1148 636 1144 q 624 1161 624 1151 q 641 1203 624 1169 q 693 1300 658 1236 q 794 1336 713 1336 m 511 1243 q 548 1237 533 1243 q 571 1215 563 1231 l 636 1081 q 640 1061 640 1071 q 633 1047 640 1053 q 611 1042 625 1042 l 590 1042 q 541 1047 560 1042 q 518 1069 522 1053 l 489 1143 l 426 1071 q 392 1048 411 1054 q 347 1042 374 1042 l 325 1042 q 299 1057 299 1042 q 308 1081 299 1067 l 408 1215 q 439 1238 419 1232 q 488 1243 458 1243 l 511 1243 m 508 975 q 576 949 569 975 l 801 47 q 804 28 804 39 q 787 6 804 14 q 735 -3 769 -3 l 692 -3 q 624 24 631 -3 l 576 214 l 215 214 l 129 24 q 65 -3 117 -3 l 28 -3 q -44 24 -44 -3 q -36 49 -44 32 l 375 949 q 447 975 386 975 l 508 975 m 453 764 q 424 678 438 711 l 283 369 l 540 369 l 468 678 q 458 764 458 717 l 453 764 z "},"Ậ":{"ha":851,"x_min":-44,"x_max":804,"o":"m 0 0 m 508 975 q 576 949 569 975 l 801 47 q 804 28 804 39 q 787 6 804 14 q 735 -3 769 -3 l 692 -3 q 624 24 631 -3 l 576 214 l 215 214 l 129 24 q 65 -3 117 -3 l 28 -3 q -44 24 -44 -3 q -36 49 -44 32 l 375 949 q 447 975 386 975 l 508 975 m 453 764 q 424 678 438 711 l 283 369 l 540 369 l 468 678 q 458 764 458 717 l 453 764 m 510 1243 q 557 1238 539 1243 q 583 1215 575 1232 l 656 1081 q 660 1061 660 1071 q 652 1047 660 1053 q 631 1042 644 1042 l 610 1042 q 538 1069 558 1042 l 488 1143 l 425 1071 q 391 1048 410 1054 q 346 1042 372 1042 l 324 1042 q 297 1057 297 1042 q 307 1081 297 1067 l 407 1215 q 438 1238 418 1232 q 486 1243 457 1243 l 510 1243 m 393 -111 q 447 -121 431 -111 q 463 -150 463 -131 l 454 -229 q 375 -268 447 -268 q 321 -259 336 -268 q 306 -229 306 -250 l 314 -150 q 393 -111 318 -111 z "},"Ầ":{"ha":851,"x_min":-44,"x_max":804,"o":"m 601 1339 q 699 1301 685 1339 q 742 1164 742 1179 q 732 1150 742 1154 q 701 1146 722 1146 q 631 1176 651 1146 q 562 1277 583 1244 q 540 1318 540 1310 q 554 1335 540 1331 q 601 1339 568 1339 m 511 1243 q 548 1237 533 1243 q 571 1215 563 1231 l 636 1081 q 640 1061 640 1071 q 633 1047 640 1053 q 611 1042 625 1042 l 590 1042 q 541 1047 560 1042 q 518 1069 522 1053 l 489 1143 l 426 1071 q 392 1048 411 1054 q 347 1042 374 1042 l 325 1042 q 299 1057 299 1042 q 308 1081 299 1067 l 408 1215 q 439 1238 419 1232 q 488 1243 458 1243 l 511 1243 m 508 975 q 576 949 569 975 l 801 47 q 804 28 804 39 q 787 6 804 14 q 735 -3 769 -3 l 692 -3 q 624 24 631 -3 l 576 214 l 215 214 l 129 24 q 65 -3 117 -3 l 28 -3 q -44 24 -44 -3 q -36 49 -44 32 l 375 949 q 447 975 386 975 l 508 975 m 453 764 q 424 678 438 711 l 283 369 l 540 369 l 468 678 q 458 764 458 717 l 453 764 z "},"Ẩ":{"ha":851,"x_min":-44,"x_max":804,"o":"m 708 1249 q 698 1269 708 1261 q 672 1278 688 1278 q 625 1267 644 1278 q 601 1256 606 1256 q 581 1276 593 1256 q 569 1310 569 1296 q 608 1336 569 1324 q 685 1349 647 1349 q 768 1324 738 1349 q 799 1256 799 1300 q 783 1212 799 1231 q 743 1176 768 1193 q 707 1157 726 1167 q 682 1147 688 1147 q 642 1156 657 1147 q 628 1175 628 1164 q 660 1204 628 1189 q 697 1225 686 1215 q 708 1249 708 1235 m 511 1243 q 548 1237 533 1243 q 571 1215 563 1231 l 636 1081 q 640 1061 640 1071 q 633 1047 640 1053 q 611 1042 625 1042 l 590 1042 q 541 1047 560 1042 q 518 1069 522 1053 l 489 1143 l 426 1071 q 392 1048 411 1054 q 347 1042 374 1042 l 325 1042 q 299 1057 299 1042 q 308 1081 299 1067 l 408 1215 q 439 1238 419 1232 q 488 1243 458 1243 l 511 1243 m 508 975 q 576 949 569 975 l 801 47 q 804 28 804 39 q 787 6 804 14 q 735 -3 769 -3 l 692 -3 q 624 24 631 -3 l 576 214 l 215 214 l 129 24 q 65 -3 117 -3 l 28 -3 q -44 24 -44 -3 q -36 49 -44 32 l 375 949 q 447 975 386 975 l 508 975 m 453 764 q 424 678 438 711 l 283 369 l 540 369 l 468 678 q 458 764 458 717 l 453 764 z "},"Ẫ":{"ha":851,"x_min":-44,"x_max":804,"o":"m 421 1408 q 470 1400 440 1408 q 528 1382 500 1392 q 613 1360 588 1361 q 660 1389 639 1360 q 690 1411 675 1411 q 706 1408 694 1411 l 718 1404 q 742 1375 742 1397 q 738 1356 742 1367 q 688 1284 721 1310 q 608 1258 656 1258 q 503 1283 578 1258 q 453 1299 478 1292 q 414 1306 429 1306 q 368 1276 389 1306 q 338 1254 353 1254 q 322 1257 333 1254 l 310 1263 q 286 1293 286 1271 q 290 1311 286 1301 q 340 1382 307 1356 q 421 1408 374 1408 m 514 1210 q 558 1203 542 1210 q 589 1182 575 1197 l 660 1081 q 665 1063 665 1071 q 635 1043 663 1043 l 614 1043 q 578 1049 592 1043 q 542 1071 564 1056 l 492 1118 l 429 1071 q 405 1058 419 1067 q 378 1047 390 1050 q 351 1043 365 1043 l 329 1043 q 301 1058 301 1043 q 311 1081 301 1069 l 413 1182 q 447 1203 429 1197 q 492 1210 465 1210 l 514 1210 m 508 975 q 576 949 569 975 l 801 47 q 804 28 804 39 q 787 6 804 14 q 735 -3 769 -3 l 692 -3 q 624 24 631 -3 l 576 214 l 215 214 l 129 24 q 65 -3 117 -3 l 28 -3 q -44 24 -44 -3 q -36 49 -44 32 l 375 949 q 447 975 386 975 l 508 975 m 453 764 q 424 678 438 711 l 283 369 l 540 369 l 468 678 q 458 764 458 717 l 453 764 z "},"Ä":{"ha":851,"x_min":-44,"x_max":804,"o":"m 0 0 m 508 975 q 576 949 569 975 l 801 47 q 804 28 804 39 q 787 6 804 14 q 735 -3 769 -3 l 692 -3 q 624 24 631 -3 l 576 214 l 215 214 l 129 24 q 65 -3 117 -3 l 28 -3 q -44 24 -44 -3 q -36 49 -44 32 l 375 949 q 447 975 386 975 l 508 975 m 453 764 q 424 678 438 711 l 283 369 l 540 369 l 468 678 q 458 764 458 717 l 453 764 m 389 1221 q 442 1211 426 1221 q 458 1182 458 1201 l 449 1103 q 371 1064 444 1064 q 316 1073 332 1064 q 300 1103 300 1082 l 310 1182 q 389 1221 314 1221 m 619 1221 q 674 1211 658 1221 q 690 1182 690 1201 l 681 1103 q 601 1064 676 1064 q 547 1073 563 1064 q 532 1103 532 1082 l 542 1182 q 619 1221 544 1221 z "},"Ạ":{"ha":851,"x_min":-44,"x_max":804,"o":"m 0 0 m 508 975 q 576 949 569 975 l 801 47 q 804 28 804 39 q 787 6 804 14 q 735 -3 769 -3 l 692 -3 q 624 24 631 -3 l 576 214 l 215 214 l 129 24 q 65 -3 117 -3 l 28 -3 q -44 24 -44 -3 q -36 49 -44 32 l 375 949 q 447 975 386 975 l 508 975 m 453 764 q 424 678 438 711 l 283 369 l 540 369 l 468 678 q 458 764 458 717 l 453 764 m 393 -111 q 447 -121 431 -111 q 463 -150 463 -131 l 454 -229 q 375 -268 447 -268 q 321 -259 336 -268 q 306 -229 306 -250 l 314 -150 q 393 -111 318 -111 z "},"À":{"ha":851,"x_min":-44,"x_max":804,"o":"m 0 0 m 508 975 q 576 949 569 975 l 801 47 q 804 28 804 39 q 787 6 804 14 q 735 -3 769 -3 l 692 -3 q 624 24 631 -3 l 576 214 l 215 214 l 129 24 q 65 -3 117 -3 l 28 -3 q -44 24 -44 -3 q -36 49 -44 32 l 375 949 q 447 975 386 975 l 508 975 m 453 764 q 424 678 438 711 l 283 369 l 540 369 l 468 678 q 458 764 458 717 l 453 764 m 381 1264 q 483 1228 465 1264 l 499 1199 q 544 1110 528 1143 q 560 1068 560 1076 q 550 1054 560 1058 q 519 1050 540 1050 q 429 1081 454 1050 l 372 1147 q 318 1214 335 1192 q 301 1244 301 1236 q 320 1260 301 1256 q 381 1264 339 1264 z "},"Ả":{"ha":851,"x_min":-44,"x_max":804,"o":"m 0 0 m 508 975 q 576 949 569 975 l 801 47 q 804 28 804 39 q 787 6 804 14 q 735 -3 769 -3 l 692 -3 q 624 24 631 -3 l 576 214 l 215 214 l 129 24 q 65 -3 117 -3 l 28 -3 q -44 24 -44 -3 q -36 49 -44 32 l 375 949 q 447 975 386 975 l 508 975 m 453 764 q 424 678 438 711 l 283 369 l 540 369 l 468 678 q 458 764 458 717 l 453 764 m 538 1176 q 526 1200 538 1192 q 493 1208 514 1208 q 451 1200 469 1208 q 429 1192 433 1192 q 409 1212 421 1192 q 397 1246 397 1232 q 436 1274 397 1260 q 511 1289 475 1289 q 610 1260 571 1289 q 649 1185 649 1232 q 620 1114 649 1149 q 556 1056 592 1079 q 508 1033 521 1033 q 457 1042 476 1033 q 438 1061 438 1050 q 447 1080 438 1071 q 478 1104 457 1089 q 523 1140 508 1125 q 538 1176 538 1156 z "},"Ā":{"ha":851,"x_min":-44,"x_max":804,"o":"m 0 0 m 508 975 q 576 949 569 975 l 801 47 q 804 28 804 39 q 787 6 804 14 q 735 -3 769 -3 l 692 -3 q 624 24 631 -3 l 576 214 l 215 214 l 129 24 q 65 -3 117 -3 l 28 -3 q -44 24 -44 -3 q -36 49 -44 32 l 375 949 q 447 975 386 975 l 508 975 m 453 764 q 424 678 438 711 l 283 369 l 540 369 l 468 678 q 458 764 458 717 l 453 764 m 651 1203 q 683 1163 683 1203 q 674 1108 683 1133 q 638 1082 665 1082 l 333 1082 q 309 1092 317 1082 q 301 1122 301 1101 q 346 1203 301 1203 l 651 1203 z "},"Ą":{"ha":851,"x_min":-44,"x_max":911,"o":"m 899 -136 q 908 -143 906 -136 q 911 -168 911 -150 q 876 -235 911 -217 q 789 -254 840 -254 q 671 -217 703 -254 q 639 -131 639 -179 q 650 -63 639 -101 q 683 -3 661 -25 q 624 24 631 0 l 576 214 l 215 214 l 129 24 q 65 -3 117 -3 l 28 -3 q -44 24 -44 -3 q -36 49 -44 32 l 375 949 q 447 975 386 975 l 508 975 q 576 949 569 975 l 801 47 q 804 28 804 39 q 760 -1 804 4 q 750 -33 760 -14 q 735 -97 735 -69 q 758 -145 735 -133 q 815 -157 782 -157 q 868 -147 842 -157 q 899 -136 894 -136 m 540 369 l 468 678 q 458 764 458 717 l 453 764 q 424 678 438 711 l 283 369 l 540 369 z "},"Å":{"ha":851,"x_min":-44,"x_max":804,"o":"m 0 0 m 508 975 q 576 949 569 975 l 801 47 q 804 28 804 39 q 787 6 804 14 q 735 -3 769 -3 l 692 -3 q 624 24 631 -3 l 576 214 l 215 214 l 129 24 q 65 -3 117 -3 l 28 -3 q -44 24 -44 -3 q -36 49 -44 32 l 375 949 q 447 975 386 975 l 508 975 m 453 764 q 424 678 438 711 l 283 369 l 540 369 l 468 678 q 458 764 458 717 l 453 764 m 503 1278 q 588 1244 554 1278 q 621 1161 621 1211 q 581 1058 621 1100 q 476 1017 540 1017 q 392 1050 425 1017 q 358 1133 358 1083 q 399 1236 358 1194 q 503 1278 440 1278 m 496 1204 q 451 1185 471 1204 q 432 1140 432 1167 q 447 1103 432 1118 q 483 1089 461 1089 q 528 1107 510 1089 q 547 1151 547 1125 q 533 1189 547 1174 q 496 1204 518 1204 z "},"Ǻ":{"ha":851,"x_min":-44,"x_max":804,"o":"m 481 1133 q 450 1138 458 1133 q 443 1151 442 1142 q 508 1256 465 1190 q 619 1292 536 1292 q 678 1288 660 1292 q 694 1274 696 1283 q 683 1257 694 1268 q 643 1222 671 1246 l 575 1164 q 481 1133 544 1133 m 801 47 q 804 28 804 39 q 787 6 804 14 q 735 -3 769 -3 l 692 -3 q 624 24 631 -3 l 576 214 l 215 214 l 129 24 q 65 -3 117 -3 l 28 -3 q -44 24 -44 -3 q -36 49 -44 32 l 358 913 q 350 960 350 936 q 391 1063 350 1021 q 494 1104 432 1104 q 579 1071 546 1104 q 613 988 613 1038 q 588 904 613 940 l 801 47 m 488 1031 q 443 1012 463 1031 q 424 967 424 993 q 438 930 424 944 q 475 915 453 915 q 520 933 501 915 q 539 978 539 951 q 524 1015 539 1000 q 488 1031 510 1031 m 540 369 l 468 678 q 458 764 458 717 l 453 764 q 424 678 438 711 l 283 369 l 540 369 z "},"Ã":{"ha":851,"x_min":-44,"x_max":804,"o":"m 0 0 m 508 975 q 576 949 569 975 l 801 47 q 804 28 804 39 q 787 6 804 14 q 735 -3 769 -3 l 692 -3 q 624 24 631 -3 l 576 214 l 215 214 l 129 24 q 65 -3 117 -3 l 28 -3 q -44 24 -44 -3 q -36 49 -44 32 l 375 949 q 447 975 386 975 l 508 975 m 453 764 q 424 678 438 711 l 283 369 l 540 369 l 468 678 q 458 764 458 717 l 453 764 m 383 1208 q 437 1200 404 1208 q 500 1182 469 1192 q 594 1160 567 1161 q 646 1189 624 1160 q 681 1211 663 1211 l 697 1208 l 710 1204 q 736 1175 736 1197 q 732 1156 736 1167 q 677 1084 714 1110 q 590 1058 640 1058 q 474 1083 557 1058 q 419 1099 446 1092 q 376 1106 393 1106 q 325 1076 347 1106 q 292 1054 308 1054 q 275 1057 286 1054 l 261 1063 q 236 1092 236 1071 q 240 1111 236 1101 q 294 1182 258 1156 q 383 1208 331 1208 z "},"Æ":{"ha":1271,"x_min":-54,"x_max":1228,"o":"m 1196 972 q 1220 961 1213 972 q 1228 926 1228 950 q 1218 847 1228 876 q 1182 818 1208 818 l 714 818 l 738 575 l 1115 575 q 1138 564 1131 575 q 1146 528 1146 553 q 1136 449 1146 478 q 1100 421 1126 421 l 753 421 l 779 154 l 1111 154 q 1135 143 1128 154 q 1143 108 1143 132 q 1133 29 1143 58 q 1097 0 1124 0 l 654 0 q 622 10 632 0 q 610 42 613 19 l 593 214 l 229 214 l 115 24 q 53 -3 99 -3 l 18 -3 q -54 24 -54 -3 q -44 49 -54 35 l 493 935 q 520 963 506 954 q 557 972 535 972 l 1196 972 m 558 783 l 554 783 l 508 681 l 322 369 l 579 369 l 551 681 l 558 783 z "},"Ǽ":{"ha":1271,"x_min":-54,"x_max":1228,"o":"m 0 0 m 1196 972 q 1220 961 1213 972 q 1228 926 1228 950 q 1218 847 1228 876 q 1182 818 1208 818 l 714 818 l 738 575 l 1115 575 q 1138 564 1131 575 q 1146 528 1146 553 q 1136 449 1146 478 q 1100 421 1126 421 l 753 421 l 779 154 l 1111 154 q 1135 143 1128 154 q 1143 108 1143 132 q 1133 29 1143 58 q 1097 0 1124 0 l 654 0 q 622 10 632 0 q 610 42 613 19 l 593 214 l 229 214 l 115 24 q 53 -3 99 -3 l 18 -3 q -54 24 -54 -3 q -44 49 -54 35 l 493 935 q 520 963 506 954 q 557 972 535 972 l 1196 972 m 558 783 l 554 783 l 508 681 l 322 369 l 579 369 l 551 681 l 558 783 m 781 1264 q 856 1247 856 1264 q 846 1227 856 1238 q 792 1171 836 1217 q 700 1081 769 1150 q 604 1050 669 1050 q 575 1053 583 1050 q 567 1065 567 1057 q 577 1089 567 1072 q 607 1133 588 1106 q 632 1170 617 1147 q 669 1228 647 1193 q 781 1264 694 1264 z "},"B":{"ha":824,"x_min":61,"x_max":775,"o":"m 476 972 q 701 915 626 972 q 775 757 775 858 q 724 610 775 678 q 600 515 674 542 l 599 510 q 674 475 635 501 q 741 405 714 449 q 768 306 768 361 q 666 78 768 157 q 383 0 564 0 l 107 0 q 72 9 82 0 q 61 40 61 18 q 68 113 61 50 l 153 922 q 169 960 156 949 q 208 972 182 972 l 476 972 m 322 819 l 297 574 l 419 574 q 540 615 494 574 q 586 717 586 657 q 444 819 586 819 l 322 819 m 281 419 l 253 154 l 415 154 q 537 195 492 154 q 582 307 582 236 q 541 390 582 361 q 421 419 500 419 l 281 419 z "},"C":{"ha":860,"x_min":57,"x_max":844,"o":"m 574 982 q 699 969 636 982 q 803 936 763 957 q 844 892 844 915 q 828 848 844 876 q 792 798 813 819 q 758 776 772 776 q 725 791 754 776 q 653 817 696 806 q 551 828 610 828 q 319 718 397 828 q 242 408 242 608 q 479 144 242 144 q 722 206 600 144 q 750 217 744 217 q 764 199 764 217 q 761 152 764 185 q 751 86 758 119 q 647 14 742 38 q 463 -10 551 -10 q 156 86 256 -10 q 57 382 57 182 q 178 815 57 649 q 574 982 299 982 z "},"Ć":{"ha":860,"x_min":57,"x_max":844,"o":"m 57 0 m 574 982 q 699 969 636 982 q 803 936 763 957 q 844 892 844 915 q 828 848 844 876 q 792 798 813 819 q 758 776 772 776 q 725 791 754 776 q 653 817 696 806 q 551 828 610 828 q 319 718 397 828 q 242 408 242 608 q 479 144 242 144 q 722 206 600 144 q 750 217 744 217 q 764 199 764 217 q 761 152 764 185 q 751 86 758 119 q 647 14 742 38 q 463 -10 551 -10 q 156 86 256 -10 q 57 382 57 182 q 178 815 57 649 q 574 982 299 982 m 693 1264 q 768 1247 768 1264 q 758 1227 768 1238 q 704 1171 749 1217 q 613 1081 682 1150 q 517 1050 582 1050 q 488 1053 496 1050 q 479 1065 479 1057 q 490 1089 479 1072 q 519 1133 500 1106 q 544 1170 529 1147 q 582 1228 560 1193 q 693 1264 607 1264 z "},"Č":{"ha":860,"x_min":57,"x_max":844,"o":"m 57 0 m 574 982 q 699 969 636 982 q 803 936 763 957 q 844 892 844 915 q 828 848 844 876 q 792 798 813 819 q 758 776 772 776 q 725 791 754 776 q 653 817 696 806 q 551 828 610 828 q 319 718 397 828 q 242 408 242 608 q 479 144 242 144 q 722 206 600 144 q 750 217 744 217 q 764 199 764 217 q 761 152 764 185 q 751 86 758 119 q 647 14 742 38 q 463 -10 551 -10 q 156 86 256 -10 q 57 382 57 182 q 178 815 57 649 q 574 982 299 982 m 726 1246 q 754 1231 754 1246 q 744 1208 754 1219 l 644 1074 q 613 1051 632 1057 q 564 1046 594 1046 l 542 1046 q 494 1051 513 1046 q 468 1074 476 1057 l 396 1208 q 392 1228 392 1219 q 421 1246 392 1246 l 442 1246 q 514 1218 493 1246 l 564 1146 l 626 1218 q 659 1240 640 1235 q 704 1246 678 1246 l 726 1246 z "},"Ç":{"ha":860,"x_min":57,"x_max":844,"o":"m 551 828 q 319 718 397 828 q 242 408 242 608 q 479 144 242 144 q 722 206 600 144 q 750 217 744 217 q 764 199 764 217 q 761 152 764 185 q 751 86 758 119 q 650 15 742 39 q 468 -10 558 -8 l 450 -56 q 521 -83 489 -60 q 553 -153 553 -107 q 503 -260 553 -226 q 375 -293 454 -293 q 281 -279 326 -293 q 235 -226 235 -265 q 253 -168 235 -168 q 278 -178 257 -168 q 321 -197 299 -189 q 371 -204 343 -204 q 424 -169 424 -204 q 415 -148 424 -156 q 386 -132 406 -140 q 360 -117 368 -124 q 351 -100 351 -111 q 388 -7 351 -93 q 138 105 219 10 q 57 382 57 200 q 178 815 57 649 q 574 982 299 982 q 699 969 636 982 q 803 936 763 957 q 844 892 844 915 q 828 848 844 876 q 792 798 813 819 q 758 776 772 776 q 725 791 754 776 q 653 817 696 806 q 551 828 610 828 z "},"Ĉ":{"ha":860,"x_min":57,"x_max":844,"o":"m 57 0 m 574 982 q 699 969 636 982 q 803 936 763 957 q 844 892 844 915 q 828 848 844 876 q 792 798 813 819 q 758 776 772 776 q 725 791 754 776 q 653 817 696 806 q 551 828 610 828 q 319 718 397 828 q 242 408 242 608 q 479 144 242 144 q 722 206 600 144 q 750 217 744 217 q 764 199 764 217 q 761 152 764 185 q 751 86 758 119 q 647 14 742 38 q 463 -10 551 -10 q 156 86 256 -10 q 57 382 57 182 q 178 815 57 649 q 574 982 299 982 m 581 1243 q 628 1238 610 1243 q 654 1215 646 1232 l 726 1081 q 731 1061 731 1071 q 723 1047 731 1053 q 701 1042 715 1042 l 681 1042 q 608 1069 629 1042 l 558 1143 l 496 1071 q 462 1048 481 1054 q 417 1042 443 1042 l 394 1042 q 368 1057 368 1042 q 378 1081 368 1067 l 478 1215 q 508 1238 489 1232 q 557 1243 528 1243 l 581 1243 z "},"Ċ":{"ha":860,"x_min":57,"x_max":844,"o":"m 57 0 m 574 982 q 699 969 636 982 q 803 936 763 957 q 844 892 844 915 q 828 848 844 876 q 792 798 813 819 q 758 776 772 776 q 725 791 754 776 q 653 817 696 806 q 551 828 610 828 q 319 718 397 828 q 242 408 242 608 q 479 144 242 144 q 722 206 600 144 q 750 217 744 217 q 764 199 764 217 q 761 152 764 185 q 751 86 758 119 q 647 14 742 38 q 463 -10 551 -10 q 156 86 256 -10 q 57 382 57 182 q 178 815 57 649 q 574 982 299 982 m 563 1221 q 616 1211 600 1221 q 632 1182 632 1201 l 624 1103 q 544 1064 617 1064 q 490 1073 506 1064 q 475 1103 475 1082 l 483 1182 q 563 1221 488 1221 z "},"D":{"ha":965,"x_min":61,"x_max":908,"o":"m 514 972 q 805 872 701 972 q 908 572 908 771 q 845 255 908 383 q 670 63 782 126 q 413 0 558 0 l 106 0 q 71 9 81 0 q 61 42 61 18 q 131 722 61 47 l 151 922 q 167 960 154 949 q 207 972 181 972 l 514 972 m 322 818 l 253 154 l 425 154 q 578 198 511 154 q 683 331 644 242 q 722 553 722 421 q 663 753 722 688 q 494 818 604 818 l 322 818 z "},"Ǳ":{"ha":1821,"x_min":61,"x_max":1803,"o":"m 61 0 m 514 972 q 805 872 701 972 q 908 572 908 771 q 845 255 908 383 q 670 63 782 126 q 413 0 558 0 l 106 0 q 71 9 81 0 q 61 42 61 18 q 131 722 61 47 l 151 922 q 167 960 154 949 q 207 972 181 972 l 514 972 m 322 818 l 253 154 l 425 154 q 578 198 511 154 q 683 331 644 242 q 722 553 722 421 q 663 753 722 688 q 494 818 604 818 l 322 818 m 1767 972 q 1792 937 1781 972 q 1803 871 1803 901 q 1799 849 1803 856 l 1224 154 l 1692 154 q 1716 143 1708 154 q 1724 108 1724 132 q 1713 29 1724 58 q 1676 0 1703 0 l 1007 0 q 981 36 993 0 q 969 101 969 72 q 975 124 969 118 l 1547 818 l 1119 818 q 1095 829 1103 818 q 1088 864 1088 840 q 1098 943 1088 914 q 1135 972 1108 972 l 1767 972 z "},"Ǆ":{"ha":1821,"x_min":61,"x_max":1803,"o":"m 61 0 m 514 972 q 805 872 701 972 q 908 572 908 771 q 845 255 908 383 q 670 63 782 126 q 413 0 558 0 l 106 0 q 71 9 81 0 q 61 42 61 18 q 131 722 61 47 l 151 922 q 167 960 154 949 q 207 972 181 972 l 514 972 m 322 818 l 253 154 l 425 154 q 578 198 511 154 q 683 331 644 242 q 722 553 722 421 q 663 753 722 688 q 494 818 604 818 l 322 818 m 1767 972 q 1792 937 1781 972 q 1803 871 1803 901 q 1799 849 1803 856 l 1224 154 l 1692 154 q 1716 143 1708 154 q 1724 108 1724 132 q 1713 29 1724 58 q 1676 0 1703 0 l 1007 0 q 981 36 993 0 q 969 101 969 72 q 975 124 969 118 l 1547 818 l 1119 818 q 1095 829 1103 818 q 1088 864 1088 840 q 1098 943 1088 914 q 1135 972 1108 972 l 1767 972 m 1607 1246 q 1635 1231 1635 1246 q 1625 1208 1635 1219 l 1525 1074 q 1494 1051 1513 1057 q 1444 1046 1475 1046 l 1422 1046 q 1375 1051 1393 1046 q 1349 1074 1357 1057 l 1276 1208 q 1272 1228 1272 1219 q 1301 1246 1272 1246 l 1322 1246 q 1394 1218 1374 1246 l 1444 1146 l 1507 1218 q 1540 1240 1521 1235 q 1585 1246 1558 1246 l 1607 1246 z "},"Ð":{"ha":967,"x_min":7,"x_max":908,"o":"m 514 972 q 805 872 701 972 q 908 572 908 771 q 845 255 908 383 q 670 63 782 126 q 413 0 558 0 l 106 0 q 71 9 81 0 q 61 42 61 18 q 99 418 61 58 l 39 418 q 15 429 22 418 q 7 464 7 440 q 17 543 7 514 q 54 572 28 572 l 115 572 l 151 922 q 167 960 154 949 q 207 972 181 972 l 514 972 m 425 154 q 578 198 511 154 q 683 331 644 242 q 722 553 722 421 q 663 753 722 688 q 494 818 604 818 l 322 818 l 296 572 l 404 572 q 427 561 419 572 q 435 525 435 550 q 425 447 435 475 q 389 418 415 418 l 281 418 l 253 154 l 425 154 z "},"Ď":{"ha":965,"x_min":61,"x_max":908,"o":"m 61 0 m 514 972 q 805 872 701 972 q 908 572 908 771 q 845 255 908 383 q 670 63 782 126 q 413 0 558 0 l 106 0 q 71 9 81 0 q 61 42 61 18 q 131 722 61 47 l 151 922 q 167 960 154 949 q 207 972 181 972 l 514 972 m 322 818 l 253 154 l 425 154 q 578 198 511 154 q 683 331 644 242 q 722 553 722 421 q 663 753 722 688 q 494 818 604 818 l 322 818 m 661 1246 q 689 1231 689 1246 q 679 1208 689 1219 l 579 1074 q 548 1051 567 1057 q 499 1046 529 1046 l 476 1046 q 429 1051 447 1046 q 403 1074 411 1057 l 331 1208 q 326 1228 326 1219 q 356 1246 326 1246 l 376 1246 q 449 1218 428 1246 l 499 1146 l 561 1218 q 594 1240 575 1235 q 639 1246 613 1246 l 661 1246 z "},"Đ":{"ha":967,"x_min":7,"x_max":908,"o":"m 7 0 m 514 972 q 805 872 701 972 q 908 572 908 771 q 845 255 908 383 q 670 63 782 126 q 413 0 558 0 l 106 0 q 71 9 81 0 q 61 42 61 18 q 99 418 61 58 l 39 418 q 15 429 22 418 q 7 464 7 440 q 17 543 7 514 q 54 572 28 572 l 115 572 l 151 922 q 167 960 154 949 q 207 972 181 972 l 514 972 m 425 154 q 578 198 511 154 q 683 331 644 242 q 722 553 722 421 q 663 753 722 688 q 494 818 604 818 l 322 818 l 296 572 l 404 572 q 427 561 419 572 q 435 525 435 550 q 425 447 435 475 q 389 418 415 418 l 281 418 l 253 154 l 425 154 z "},"Ḍ":{"ha":965,"x_min":61,"x_max":908,"o":"m 61 0 m 514 972 q 805 872 701 972 q 908 572 908 771 q 845 255 908 383 q 670 63 782 126 q 413 0 558 0 l 106 0 q 71 9 81 0 q 61 42 61 18 q 131 722 61 47 l 151 922 q 167 960 154 949 q 207 972 181 972 l 514 972 m 322 818 l 253 154 l 425 154 q 578 198 511 154 q 683 331 644 242 q 722 553 722 421 q 663 753 722 688 q 494 818 604 818 l 322 818 m 390 -111 q 444 -121 428 -111 q 460 -150 460 -131 l 451 -229 q 372 -268 444 -268 q 318 -259 333 -268 q 303 -229 303 -250 l 311 -150 q 390 -111 315 -111 z "},"ǲ":{"ha":1644,"x_min":61,"x_max":1619,"o":"m 61 0 m 514 972 q 805 872 701 972 q 908 572 908 771 q 845 255 908 383 q 670 63 782 126 q 413 0 558 0 l 106 0 q 71 9 81 0 q 61 42 61 18 q 131 722 61 47 l 151 922 q 167 960 154 949 q 207 972 181 972 l 514 972 m 322 818 l 253 154 l 425 154 q 578 198 511 154 q 683 331 644 242 q 722 553 722 421 q 663 753 722 688 q 494 818 604 818 l 322 818 m 1592 726 q 1611 696 1603 726 q 1619 638 1619 665 q 1614 614 1619 619 l 1215 140 l 1538 140 q 1562 129 1554 140 q 1569 94 1569 118 q 1524 0 1569 0 l 1008 0 q 988 30 997 0 q 979 88 979 60 q 985 113 979 107 l 1383 586 l 1088 586 q 1064 597 1071 586 q 1057 632 1057 608 q 1103 726 1057 726 l 1592 726 z "},"ǅ":{"ha":1644,"x_min":61,"x_max":1619,"o":"m 61 0 m 514 972 q 805 872 701 972 q 908 572 908 771 q 845 255 908 383 q 670 63 782 126 q 413 0 558 0 l 106 0 q 71 9 81 0 q 61 42 61 18 q 131 722 61 47 l 151 922 q 167 960 154 949 q 207 972 181 972 l 514 972 m 322 818 l 253 154 l 425 154 q 578 198 511 154 q 683 331 644 242 q 722 553 722 421 q 663 753 722 688 q 494 818 604 818 l 322 818 m 1592 726 q 1611 696 1603 726 q 1619 638 1619 665 q 1614 614 1619 619 l 1215 140 l 1538 140 q 1562 129 1554 140 q 1569 94 1569 118 q 1524 0 1569 0 l 1008 0 q 988 30 997 0 q 979 88 979 60 q 985 113 979 107 l 1383 586 l 1088 586 q 1064 597 1071 586 q 1057 632 1057 608 q 1103 726 1057 726 l 1592 726 m 1533 1000 q 1561 985 1561 1000 q 1551 963 1561 974 l 1451 828 q 1420 806 1439 811 q 1371 800 1401 800 l 1349 800 q 1301 806 1319 800 q 1275 828 1283 811 l 1203 963 q 1199 982 1199 974 q 1228 1000 1199 1000 l 1249 1000 q 1321 972 1300 1000 l 1371 900 l 1433 972 q 1466 994 1447 989 q 1511 1000 1485 1000 l 1533 1000 z "},"E":{"ha":758,"x_min":58,"x_max":739,"o":"m 707 972 q 731 961 724 972 q 739 926 739 950 q 728 847 739 876 q 692 818 718 818 l 321 818 l 294 575 l 625 575 q 649 564 642 575 q 657 528 657 553 q 647 450 657 479 q 611 421 638 421 l 279 421 l 250 154 l 622 154 q 647 143 639 154 q 654 108 654 132 q 644 29 654 58 q 607 0 633 0 l 104 0 q 68 9 78 0 q 58 40 58 18 q 94 392 68 135 q 150 922 121 649 q 166 960 153 949 q 206 972 179 972 l 707 972 z "},"É":{"ha":758,"x_min":58,"x_max":739,"o":"m 58 0 m 707 972 q 731 961 724 972 q 739 926 739 950 q 728 847 739 876 q 692 818 718 818 l 321 818 l 294 575 l 625 575 q 649 564 642 575 q 657 528 657 553 q 647 450 657 479 q 611 421 638 421 l 279 421 l 250 154 l 622 154 q 647 143 639 154 q 654 108 654 132 q 644 29 654 58 q 607 0 633 0 l 104 0 q 68 9 78 0 q 58 40 58 18 q 94 392 68 135 q 150 922 121 649 q 166 960 153 949 q 206 972 179 972 l 707 972 m 597 1264 q 672 1247 672 1264 q 663 1227 672 1238 q 608 1171 653 1217 q 517 1081 586 1150 q 421 1050 486 1050 q 392 1053 400 1050 q 383 1065 383 1057 q 394 1089 383 1072 q 424 1133 404 1106 q 449 1170 433 1147 q 486 1228 464 1193 q 597 1264 511 1264 z "},"Ĕ":{"ha":758,"x_min":58,"x_max":739,"o":"m 58 0 m 707 972 q 731 961 724 972 q 739 926 739 950 q 728 847 739 876 q 692 818 718 818 l 321 818 l 294 575 l 625 575 q 649 564 642 575 q 657 528 657 553 q 647 450 657 479 q 611 421 638 421 l 279 421 l 250 154 l 622 154 q 647 143 639 154 q 654 108 654 132 q 644 29 654 58 q 607 0 633 0 l 104 0 q 68 9 78 0 q 58 40 58 18 q 94 392 68 135 q 150 922 121 649 q 166 960 153 949 q 206 972 179 972 l 707 972 m 642 1239 q 676 1211 676 1239 q 645 1130 676 1167 q 563 1072 614 1093 q 457 1050 511 1050 q 323 1090 376 1050 q 269 1193 269 1131 q 279 1227 269 1215 q 313 1239 289 1239 q 333 1234 326 1239 q 343 1222 339 1229 q 350 1210 347 1214 q 469 1164 376 1164 q 553 1178 522 1164 q 604 1215 583 1192 q 612 1226 606 1218 q 624 1236 618 1233 q 642 1239 631 1239 z "},"Ě":{"ha":758,"x_min":58,"x_max":739,"o":"m 58 0 m 707 972 q 731 961 724 972 q 739 926 739 950 q 728 847 739 876 q 692 818 718 818 l 321 818 l 294 575 l 625 575 q 649 564 642 575 q 657 528 657 553 q 647 450 657 479 q 611 421 638 421 l 279 421 l 250 154 l 622 154 q 647 143 639 154 q 654 108 654 132 q 644 29 654 58 q 607 0 633 0 l 104 0 q 68 9 78 0 q 58 40 58 18 q 94 392 68 135 q 150 922 121 649 q 166 960 153 949 q 206 972 179 972 l 707 972 m 631 1246 q 658 1231 658 1246 q 649 1208 658 1219 l 549 1074 q 517 1051 536 1057 q 468 1046 499 1046 l 446 1046 q 399 1051 417 1046 q 372 1074 381 1057 l 300 1208 q 296 1228 296 1219 q 325 1246 296 1246 l 346 1246 q 418 1218 397 1246 l 468 1146 l 531 1218 q 563 1240 544 1235 q 608 1246 582 1246 l 631 1246 z "},"Ê":{"ha":758,"x_min":58,"x_max":739,"o":"m 58 0 m 707 972 q 731 961 724 972 q 739 926 739 950 q 728 847 739 876 q 692 818 718 818 l 321 818 l 294 575 l 625 575 q 649 564 642 575 q 657 528 657 553 q 647 450 657 479 q 611 421 638 421 l 279 421 l 250 154 l 622 154 q 647 143 639 154 q 654 108 654 132 q 644 29 654 58 q 607 0 633 0 l 104 0 q 68 9 78 0 q 58 40 58 18 q 94 392 68 135 q 150 922 121 649 q 166 960 153 949 q 206 972 179 972 l 707 972 m 485 1243 q 532 1238 514 1243 q 558 1215 550 1232 l 631 1081 q 635 1061 635 1071 q 627 1047 635 1053 q 606 1042 619 1042 l 585 1042 q 513 1069 533 1042 l 463 1143 l 400 1071 q 366 1048 385 1054 q 321 1042 347 1042 l 299 1042 q 272 1057 272 1042 q 282 1081 272 1067 l 382 1215 q 413 1238 393 1232 q 461 1243 432 1243 l 485 1243 z "},"Ế":{"ha":758,"x_min":58,"x_max":819,"o":"m 769 1336 q 807 1331 794 1336 q 819 1310 819 1325 q 796 1273 819 1301 q 697 1167 772 1244 q 626 1144 672 1144 q 605 1148 611 1144 q 599 1161 599 1151 q 616 1203 599 1169 q 668 1300 633 1236 q 769 1336 688 1336 m 486 1243 q 523 1237 508 1243 q 546 1215 538 1231 l 611 1081 q 615 1061 615 1071 q 608 1047 615 1053 q 586 1042 600 1042 l 565 1042 q 516 1047 535 1042 q 493 1069 497 1053 l 464 1143 l 401 1071 q 367 1048 386 1054 q 322 1042 349 1042 l 300 1042 q 274 1057 274 1042 q 283 1081 274 1067 l 383 1215 q 414 1238 394 1232 q 463 1243 433 1243 l 486 1243 m 707 972 q 731 961 724 972 q 739 926 739 950 q 728 847 739 876 q 692 818 718 818 l 321 818 l 294 575 l 625 575 q 649 564 642 575 q 657 528 657 553 q 647 450 657 479 q 611 421 638 421 l 279 421 l 250 154 l 622 154 q 647 143 639 154 q 654 108 654 132 q 644 29 654 58 q 607 0 633 0 l 104 0 q 68 9 78 0 q 58 40 58 18 q 94 392 68 135 q 150 922 121 649 q 166 960 153 949 q 206 972 179 972 l 707 972 z "},"Ệ":{"ha":758,"x_min":58,"x_max":739,"o":"m 58 0 m 707 972 q 731 961 724 972 q 739 926 739 950 q 728 847 739 876 q 692 818 718 818 l 321 818 l 294 575 l 625 575 q 649 564 642 575 q 657 528 657 553 q 647 450 657 479 q 611 421 638 421 l 279 421 l 250 154 l 622 154 q 647 143 639 154 q 654 108 654 132 q 644 29 654 58 q 607 0 633 0 l 104 0 q 68 9 78 0 q 58 40 58 18 q 94 392 68 135 q 150 922 121 649 q 166 960 153 949 q 206 972 179 972 l 707 972 m 485 1243 q 532 1238 514 1243 q 558 1215 550 1232 l 631 1081 q 635 1061 635 1071 q 627 1047 635 1053 q 606 1042 619 1042 l 585 1042 q 513 1069 533 1042 l 463 1143 l 400 1071 q 366 1048 385 1054 q 321 1042 347 1042 l 299 1042 q 272 1057 272 1042 q 282 1081 272 1067 l 382 1215 q 413 1238 393 1232 q 461 1243 432 1243 l 485 1243 m 336 -111 q 390 -121 374 -111 q 406 -150 406 -131 l 397 -229 q 318 -268 390 -268 q 264 -259 279 -268 q 249 -229 249 -250 l 257 -150 q 336 -111 261 -111 z "},"Ề":{"ha":758,"x_min":58,"x_max":739,"o":"m 576 1339 q 674 1301 660 1339 q 717 1164 717 1179 q 707 1150 717 1154 q 676 1146 697 1146 q 606 1176 626 1146 q 537 1277 558 1244 q 515 1318 515 1310 q 529 1335 515 1331 q 576 1339 543 1339 m 486 1243 q 523 1237 508 1243 q 546 1215 538 1231 l 611 1081 q 615 1061 615 1071 q 608 1047 615 1053 q 586 1042 600 1042 l 565 1042 q 516 1047 535 1042 q 493 1069 497 1053 l 464 1143 l 401 1071 q 367 1048 386 1054 q 322 1042 349 1042 l 300 1042 q 274 1057 274 1042 q 283 1081 274 1067 l 383 1215 q 414 1238 394 1232 q 463 1243 433 1243 l 486 1243 m 707 972 q 731 961 724 972 q 739 926 739 950 q 728 847 739 876 q 692 818 718 818 l 321 818 l 294 575 l 625 575 q 649 564 642 575 q 657 528 657 553 q 647 450 657 479 q 611 421 638 421 l 279 421 l 250 154 l 622 154 q 647 143 639 154 q 654 108 654 132 q 644 29 654 58 q 607 0 633 0 l 104 0 q 68 9 78 0 q 58 40 58 18 q 94 392 68 135 q 150 922 121 649 q 166 960 153 949 q 206 972 179 972 l 707 972 z "},"Ể":{"ha":758,"x_min":58,"x_max":774,"o":"m 683 1249 q 673 1269 683 1261 q 647 1278 663 1278 q 600 1267 619 1278 q 576 1256 581 1256 q 556 1276 568 1256 q 544 1310 544 1296 q 583 1336 544 1324 q 660 1349 622 1349 q 743 1324 713 1349 q 774 1256 774 1300 q 758 1212 774 1231 q 718 1176 743 1193 q 682 1157 701 1167 q 657 1147 663 1147 q 617 1156 632 1147 q 603 1175 603 1164 q 635 1204 603 1189 q 672 1225 661 1215 q 683 1249 683 1235 m 486 1243 q 523 1237 508 1243 q 546 1215 538 1231 l 611 1081 q 615 1061 615 1071 q 608 1047 615 1053 q 586 1042 600 1042 l 565 1042 q 516 1047 535 1042 q 493 1069 497 1053 l 464 1143 l 401 1071 q 367 1048 386 1054 q 322 1042 349 1042 l 300 1042 q 274 1057 274 1042 q 283 1081 274 1067 l 383 1215 q 414 1238 394 1232 q 463 1243 433 1243 l 486 1243 m 707 972 q 731 961 724 972 q 739 926 739 950 q 728 847 739 876 q 692 818 718 818 l 321 818 l 294 575 l 625 575 q 649 564 642 575 q 657 528 657 553 q 647 450 657 479 q 611 421 638 421 l 279 421 l 250 154 l 622 154 q 647 143 639 154 q 654 108 654 132 q 644 29 654 58 q 607 0 633 0 l 104 0 q 68 9 78 0 q 58 40 58 18 q 94 392 68 135 q 150 922 121 649 q 166 960 153 949 q 206 972 179 972 l 707 972 z "},"Ễ":{"ha":758,"x_min":58,"x_max":739,"o":"m 396 1408 q 445 1400 415 1408 q 503 1382 475 1392 q 588 1360 563 1361 q 635 1389 614 1360 q 665 1411 650 1411 q 681 1408 669 1411 l 693 1404 q 717 1375 717 1397 q 713 1356 717 1367 q 663 1284 696 1310 q 583 1258 631 1258 q 478 1283 553 1258 q 428 1299 453 1292 q 389 1306 404 1306 q 343 1276 364 1306 q 313 1254 328 1254 q 297 1257 308 1254 l 285 1263 q 261 1293 261 1271 q 265 1311 261 1301 q 315 1382 282 1356 q 396 1408 349 1408 m 489 1210 q 533 1203 517 1210 q 564 1182 550 1197 l 635 1081 q 640 1063 640 1071 q 610 1043 638 1043 l 589 1043 q 553 1049 567 1043 q 517 1071 539 1056 l 467 1118 l 404 1071 q 380 1058 394 1067 q 353 1047 365 1050 q 326 1043 340 1043 l 304 1043 q 276 1058 276 1043 q 286 1081 276 1069 l 388 1182 q 422 1203 404 1197 q 467 1210 440 1210 l 489 1210 m 707 972 q 731 961 724 972 q 739 926 739 950 q 728 847 739 876 q 692 818 718 818 l 321 818 l 294 575 l 625 575 q 649 564 642 575 q 657 528 657 553 q 647 450 657 479 q 611 421 638 421 l 279 421 l 250 154 l 622 154 q 647 143 639 154 q 654 108 654 132 q 644 29 654 58 q 607 0 633 0 l 104 0 q 68 9 78 0 q 58 40 58 18 q 94 392 68 135 q 150 922 121 649 q 166 960 153 949 q 206 972 179 972 l 707 972 z "},"Ë":{"ha":758,"x_min":58,"x_max":739,"o":"m 58 0 m 707 972 q 731 961 724 972 q 739 926 739 950 q 728 847 739 876 q 692 818 718 818 l 321 818 l 294 575 l 625 575 q 649 564 642 575 q 657 528 657 553 q 647 450 657 479 q 611 421 638 421 l 279 421 l 250 154 l 622 154 q 647 143 639 154 q 654 108 654 132 q 644 29 654 58 q 607 0 633 0 l 104 0 q 68 9 78 0 q 58 40 58 18 q 94 392 68 135 q 150 922 121 649 q 166 960 153 949 q 206 972 179 972 l 707 972 m 364 1221 q 417 1211 401 1221 q 433 1182 433 1201 l 424 1103 q 346 1064 419 1064 q 291 1073 307 1064 q 275 1103 275 1082 l 285 1182 q 364 1221 289 1221 m 594 1221 q 649 1211 633 1221 q 665 1182 665 1201 l 656 1103 q 576 1064 651 1064 q 522 1073 538 1064 q 507 1103 507 1082 l 517 1182 q 594 1221 519 1221 z "},"Ė":{"ha":758,"x_min":58,"x_max":739,"o":"m 58 0 m 707 972 q 731 961 724 972 q 739 926 739 950 q 728 847 739 876 q 692 818 718 818 l 321 818 l 294 575 l 625 575 q 649 564 642 575 q 657 528 657 553 q 647 450 657 479 q 611 421 638 421 l 279 421 l 250 154 l 622 154 q 647 143 639 154 q 654 108 654 132 q 644 29 654 58 q 607 0 633 0 l 104 0 q 68 9 78 0 q 58 40 58 18 q 94 392 68 135 q 150 922 121 649 q 166 960 153 949 q 206 972 179 972 l 707 972 m 467 1221 q 520 1211 504 1221 q 536 1182 536 1201 l 528 1103 q 449 1064 521 1064 q 394 1073 410 1064 q 379 1103 379 1082 l 388 1182 q 467 1221 392 1221 z "},"Ẹ":{"ha":758,"x_min":58,"x_max":739,"o":"m 58 0 m 707 972 q 731 961 724 972 q 739 926 739 950 q 728 847 739 876 q 692 818 718 818 l 321 818 l 294 575 l 625 575 q 649 564 642 575 q 657 528 657 553 q 647 450 657 479 q 611 421 638 421 l 279 421 l 250 154 l 622 154 q 647 143 639 154 q 654 108 654 132 q 644 29 654 58 q 607 0 633 0 l 104 0 q 68 9 78 0 q 58 40 58 18 q 94 392 68 135 q 150 922 121 649 q 166 960 153 949 q 206 972 179 972 l 707 972 m 336 -111 q 390 -121 374 -111 q 406 -150 406 -131 l 397 -229 q 318 -268 390 -268 q 264 -259 279 -268 q 249 -229 249 -250 l 257 -150 q 336 -111 261 -111 z "},"È":{"ha":758,"x_min":58,"x_max":739,"o":"m 58 0 m 707 972 q 731 961 724 972 q 739 926 739 950 q 728 847 739 876 q 692 818 718 818 l 321 818 l 294 575 l 625 575 q 649 564 642 575 q 657 528 657 553 q 647 450 657 479 q 611 421 638 421 l 279 421 l 250 154 l 622 154 q 647 143 639 154 q 654 108 654 132 q 644 29 654 58 q 607 0 633 0 l 104 0 q 68 9 78 0 q 58 40 58 18 q 94 392 68 135 q 150 922 121 649 q 166 960 153 949 q 206 972 179 972 l 707 972 m 356 1264 q 458 1228 440 1264 l 474 1199 q 519 1110 503 1143 q 535 1068 535 1076 q 525 1054 535 1058 q 494 1050 515 1050 q 404 1081 429 1050 l 347 1147 q 293 1214 310 1192 q 276 1244 276 1236 q 295 1260 276 1256 q 356 1264 314 1264 z "},"Ẻ":{"ha":758,"x_min":58,"x_max":739,"o":"m 58 0 m 707 972 q 731 961 724 972 q 739 926 739 950 q 728 847 739 876 q 692 818 718 818 l 321 818 l 294 575 l 625 575 q 649 564 642 575 q 657 528 657 553 q 647 450 657 479 q 611 421 638 421 l 279 421 l 250 154 l 622 154 q 647 143 639 154 q 654 108 654 132 q 644 29 654 58 q 607 0 633 0 l 104 0 q 68 9 78 0 q 58 40 58 18 q 94 392 68 135 q 150 922 121 649 q 166 960 153 949 q 206 972 179 972 l 707 972 m 513 1176 q 501 1200 513 1192 q 468 1208 489 1208 q 426 1200 444 1208 q 404 1192 408 1192 q 384 1212 396 1192 q 372 1246 372 1232 q 411 1274 372 1260 q 486 1289 450 1289 q 585 1260 546 1289 q 624 1185 624 1232 q 595 1114 624 1149 q 531 1056 567 1079 q 483 1033 496 1033 q 432 1042 451 1033 q 413 1061 413 1050 q 422 1080 413 1071 q 453 1104 432 1089 q 498 1140 483 1125 q 513 1176 513 1156 z "},"Ē":{"ha":758,"x_min":58,"x_max":739,"o":"m 58 0 m 707 972 q 731 961 724 972 q 739 926 739 950 q 728 847 739 876 q 692 818 718 818 l 321 818 l 294 575 l 625 575 q 649 564 642 575 q 657 528 657 553 q 647 450 657 479 q 611 421 638 421 l 279 421 l 250 154 l 622 154 q 647 143 639 154 q 654 108 654 132 q 644 29 654 58 q 607 0 633 0 l 104 0 q 68 9 78 0 q 58 40 58 18 q 94 392 68 135 q 150 922 121 649 q 166 960 153 949 q 206 972 179 972 l 707 972 m 626 1203 q 658 1163 658 1203 q 649 1108 658 1133 q 613 1082 640 1082 l 308 1082 q 284 1092 292 1082 q 276 1122 276 1101 q 321 1203 276 1203 l 626 1203 z "},"Ę":{"ha":758,"x_min":58,"x_max":758,"o":"m 746 -136 q 756 -143 753 -136 q 758 -168 758 -150 q 723 -235 758 -217 q 636 -254 688 -254 q 518 -217 550 -254 q 486 -131 486 -179 q 498 -60 486 -100 q 533 0 510 -21 l 104 0 q 68 9 78 0 q 58 40 58 18 q 94 392 68 135 q 150 922 121 649 q 166 960 153 949 q 206 972 179 972 l 707 972 q 731 961 724 972 q 739 926 739 950 q 728 847 739 876 q 692 818 718 818 l 321 818 l 294 575 l 625 575 q 649 564 642 575 q 657 528 657 553 q 647 450 657 479 q 611 421 638 421 l 279 421 l 250 154 l 622 154 q 647 143 639 154 q 654 108 654 132 q 644 29 654 58 q 607 0 633 0 l 607 -1 q 597 -33 607 -14 q 582 -97 582 -69 q 606 -145 582 -133 q 663 -157 629 -157 q 715 -147 689 -157 q 746 -136 742 -136 z "},"Ẽ":{"ha":758,"x_min":58,"x_max":739,"o":"m 58 0 m 707 972 q 731 961 724 972 q 739 926 739 950 q 728 847 739 876 q 692 818 718 818 l 321 818 l 294 575 l 625 575 q 649 564 642 575 q 657 528 657 553 q 647 450 657 479 q 611 421 638 421 l 279 421 l 250 154 l 622 154 q 647 143 639 154 q 654 108 654 132 q 644 29 654 58 q 607 0 633 0 l 104 0 q 68 9 78 0 q 58 40 58 18 q 94 392 68 135 q 150 922 121 649 q 166 960 153 949 q 206 972 179 972 l 707 972 m 358 1208 q 412 1200 379 1208 q 475 1182 444 1192 q 569 1160 542 1161 q 621 1189 599 1160 q 656 1211 638 1211 l 672 1208 l 685 1204 q 711 1175 711 1197 q 707 1156 711 1167 q 652 1084 689 1110 q 565 1058 615 1058 q 449 1083 532 1058 q 394 1099 421 1092 q 351 1106 368 1106 q 300 1076 322 1106 q 267 1054 283 1054 q 250 1057 261 1054 l 236 1063 q 211 1092 211 1071 q 215 1111 211 1101 q 269 1182 233 1156 q 358 1208 306 1208 z "},"F":{"ha":699,"x_min":63,"x_max":697,"o":"m 667 972 q 690 961 683 972 q 697 926 697 950 q 688 847 697 875 q 651 818 678 818 l 325 818 l 299 574 l 614 574 q 638 563 631 574 q 646 528 646 551 q 636 449 646 478 q 600 419 626 419 l 283 419 l 243 36 q 167 -3 239 -3 l 132 -3 q 63 36 63 -3 l 154 922 q 170 960 157 949 q 210 972 183 972 l 667 972 z "},"G":{"ha":933,"x_min":63,"x_max":851,"o":"m 579 982 q 706 969 642 982 q 810 936 769 957 q 851 892 851 915 q 835 848 851 876 q 799 798 819 819 q 765 776 778 776 q 732 791 761 776 q 660 817 703 806 q 557 828 617 828 q 328 721 406 828 q 250 408 250 614 q 482 144 250 144 q 617 157 561 144 l 640 372 l 504 372 q 480 383 488 372 q 472 418 472 394 q 482 497 472 468 q 518 526 492 526 l 788 526 q 823 517 813 526 q 833 486 833 508 q 824 397 831 460 q 810 260 818 335 q 792 96 796 135 q 685 13 785 36 q 463 -10 585 -10 q 162 87 261 -10 q 63 383 63 183 q 197 832 63 682 q 579 982 331 982 z "},"Ğ":{"ha":933,"x_min":63,"x_max":851,"o":"m 63 0 m 579 982 q 706 969 642 982 q 810 936 769 957 q 851 892 851 915 q 835 848 851 876 q 799 798 819 819 q 765 776 778 776 q 732 791 761 776 q 660 817 703 806 q 557 828 617 828 q 328 721 406 828 q 250 408 250 614 q 482 144 250 144 q 617 157 561 144 l 640 372 l 504 372 q 480 383 488 372 q 472 418 472 394 q 482 497 472 468 q 518 526 492 526 l 788 526 q 823 517 813 526 q 833 486 833 508 q 824 397 831 460 q 810 260 818 335 q 792 96 796 135 q 685 13 785 36 q 463 -10 585 -10 q 162 87 261 -10 q 63 383 63 183 q 197 832 63 682 q 579 982 331 982 m 740 1239 q 775 1211 775 1239 q 744 1130 775 1167 q 661 1072 713 1093 q 556 1050 610 1050 q 422 1090 475 1050 q 368 1193 368 1131 q 378 1227 368 1215 q 411 1239 388 1239 q 431 1234 425 1239 q 442 1222 438 1229 q 449 1210 446 1214 q 568 1164 475 1164 q 651 1178 621 1164 q 703 1215 682 1192 q 710 1226 704 1218 q 723 1236 717 1233 q 740 1239 729 1239 z "},"Ĝ":{"ha":933,"x_min":63,"x_max":851,"o":"m 63 0 m 579 982 q 706 969 642 982 q 810 936 769 957 q 851 892 851 915 q 835 848 851 876 q 799 798 819 819 q 765 776 778 776 q 732 791 761 776 q 660 817 703 806 q 557 828 617 828 q 328 721 406 828 q 250 408 250 614 q 482 144 250 144 q 617 157 561 144 l 640 372 l 504 372 q 480 383 488 372 q 472 418 472 394 q 482 497 472 468 q 518 526 492 526 l 788 526 q 823 517 813 526 q 833 486 833 508 q 824 397 831 460 q 810 260 818 335 q 792 96 796 135 q 685 13 785 36 q 463 -10 585 -10 q 162 87 261 -10 q 63 383 63 183 q 197 832 63 682 q 579 982 331 982 m 583 1243 q 631 1238 613 1243 q 657 1215 649 1232 l 729 1081 q 733 1061 733 1071 q 726 1047 733 1053 q 704 1042 718 1042 l 683 1042 q 611 1069 632 1042 l 561 1143 l 499 1071 q 465 1048 483 1054 q 419 1042 446 1042 l 397 1042 q 371 1057 371 1042 q 381 1081 371 1067 l 481 1215 q 511 1238 492 1232 q 560 1243 531 1243 l 583 1243 z "},"Ģ":{"ha":933,"x_min":63,"x_max":851,"o":"m 63 0 m 579 982 q 706 969 642 982 q 810 936 769 957 q 851 892 851 915 q 835 848 851 876 q 799 798 819 819 q 765 776 778 776 q 732 791 761 776 q 660 817 703 806 q 557 828 617 828 q 328 721 406 828 q 250 408 250 614 q 482 144 250 144 q 617 157 561 144 l 640 372 l 504 372 q 480 383 488 372 q 472 418 472 394 q 482 497 472 468 q 518 526 492 526 l 788 526 q 823 517 813 526 q 833 486 833 508 q 824 397 831 460 q 810 260 818 335 q 792 96 796 135 q 685 13 785 36 q 463 -10 585 -10 q 162 87 261 -10 q 63 383 63 183 q 197 832 63 682 q 579 982 331 982 m 475 -71 q 533 -124 533 -71 q 502 -214 533 -165 q 429 -297 471 -262 q 364 -331 388 -331 q 328 -324 344 -331 q 313 -306 313 -318 q 321 -282 313 -296 q 331 -265 329 -268 q 362 -201 350 -232 q 374 -126 374 -171 q 394 -86 374 -101 q 453 -71 415 -71 l 475 -71 z "},"Ġ":{"ha":933,"x_min":63,"x_max":851,"o":"m 63 0 m 579 982 q 706 969 642 982 q 810 936 769 957 q 851 892 851 915 q 835 848 851 876 q 799 798 819 819 q 765 776 778 776 q 732 791 761 776 q 660 817 703 806 q 557 828 617 828 q 328 721 406 828 q 250 408 250 614 q 482 144 250 144 q 617 157 561 144 l 640 372 l 504 372 q 480 383 488 372 q 472 418 472 394 q 482 497 472 468 q 518 526 492 526 l 788 526 q 823 517 813 526 q 833 486 833 508 q 824 397 831 460 q 810 260 818 335 q 792 96 796 135 q 685 13 785 36 q 463 -10 585 -10 q 162 87 261 -10 q 63 383 63 183 q 197 832 63 682 q 579 982 331 982 m 565 1221 q 619 1211 603 1221 q 635 1182 635 1201 l 626 1103 q 547 1064 619 1064 q 493 1073 508 1064 q 478 1103 478 1082 l 486 1182 q 565 1221 490 1221 z "},"H":{"ha":1018,"x_min":68,"x_max":947,"o":"m 878 975 q 947 936 947 975 l 853 36 q 776 -3 849 -3 l 740 -3 q 671 36 671 -3 l 711 419 l 289 419 l 250 36 q 174 -3 246 -3 l 138 -3 q 68 36 68 -3 l 163 936 q 239 975 167 975 l 275 975 q 344 936 344 975 l 306 575 l 728 575 l 765 936 q 842 975 769 975 l 878 975 z "},"Ħ":{"ha":1018,"x_min":61,"x_max":983,"o":"m 951 789 q 983 749 983 789 q 974 694 983 719 q 939 668 965 668 l 919 668 l 853 36 q 776 -3 849 -3 l 740 -3 q 671 36 671 -3 l 711 419 l 289 419 l 250 36 q 174 -3 246 -3 l 138 -3 q 68 36 68 -3 l 135 668 l 93 668 q 69 678 76 668 q 61 708 61 688 q 107 789 61 789 l 147 789 l 163 936 q 239 975 167 975 l 275 975 q 344 936 344 975 l 329 789 l 750 789 l 765 936 q 842 975 769 975 l 878 975 q 947 936 947 975 l 932 789 l 951 789 m 728 575 l 738 668 l 315 668 l 306 575 l 728 575 z "},"Ĥ":{"ha":1018,"x_min":68,"x_max":947,"o":"m 68 0 m 878 975 q 947 936 947 975 l 853 36 q 776 -3 849 -3 l 740 -3 q 671 36 671 -3 l 711 419 l 289 419 l 250 36 q 174 -3 246 -3 l 138 -3 q 68 36 68 -3 l 163 936 q 239 975 167 975 l 275 975 q 344 936 344 975 l 306 575 l 728 575 l 765 936 q 842 975 769 975 l 878 975 m 589 1243 q 636 1238 618 1243 q 663 1215 654 1232 l 735 1081 q 739 1061 739 1071 q 731 1047 739 1053 q 710 1042 724 1042 l 689 1042 q 617 1069 638 1042 l 567 1143 l 504 1071 q 470 1048 489 1054 q 425 1042 451 1042 l 403 1042 q 376 1057 376 1042 q 386 1081 376 1067 l 486 1215 q 517 1238 497 1232 q 565 1243 536 1243 l 589 1243 z "},"Ḥ":{"ha":1018,"x_min":68,"x_max":947,"o":"m 68 0 m 878 975 q 947 936 947 975 l 853 36 q 776 -3 849 -3 l 740 -3 q 671 36 671 -3 l 711 419 l 289 419 l 250 36 q 174 -3 246 -3 l 138 -3 q 68 36 68 -3 l 163 936 q 239 975 167 975 l 275 975 q 344 936 344 975 l 306 575 l 728 575 l 765 936 q 842 975 769 975 l 878 975 m 464 -110 q 517 -119 501 -110 q 533 -149 533 -129 l 525 -228 q 446 -267 518 -267 q 392 -258 407 -267 q 376 -228 376 -249 l 385 -149 q 464 -110 389 -110 z "},"I":{"ha":392,"x_min":58,"x_max":333,"o":"m 264 975 q 333 936 333 975 l 239 36 q 163 -3 235 -3 l 128 -3 q 58 36 58 -3 l 151 936 q 229 975 156 975 l 264 975 z "},"Ĳ":{"ha":950,"x_min":58,"x_max":892,"o":"m 58 0 m 264 975 q 333 936 333 975 l 239 36 q 163 -3 235 -3 l 128 -3 q 58 36 58 -3 l 151 936 q 229 975 156 975 l 264 975 m 822 975 q 892 936 892 975 l 822 282 q 728 67 807 143 q 500 -10 650 -10 q 371 44 371 -10 q 378 135 371 110 q 396 160 386 160 q 424 153 403 160 q 485 147 444 147 q 597 184 560 147 q 643 303 633 221 l 710 936 q 786 975 714 975 l 822 975 z "},"Í":{"ha":392,"x_min":58,"x_max":471,"o":"m 58 0 m 264 975 q 333 936 333 975 l 239 36 q 163 -3 235 -3 l 128 -3 q 58 36 58 -3 l 151 936 q 229 975 156 975 l 264 975 m 396 1264 q 471 1247 471 1264 q 461 1227 471 1238 q 407 1171 451 1217 q 315 1081 385 1150 q 219 1050 285 1050 q 190 1053 199 1050 q 182 1065 182 1057 q 192 1089 182 1072 q 222 1133 203 1106 q 247 1170 232 1147 q 285 1228 263 1193 q 396 1264 310 1264 z "},"Ĭ":{"ha":392,"x_min":58,"x_max":475,"o":"m 58 0 m 264 975 q 333 936 333 975 l 239 36 q 163 -3 235 -3 l 128 -3 q 58 36 58 -3 l 151 936 q 229 975 156 975 l 264 975 m 440 1239 q 475 1211 475 1239 q 444 1130 475 1167 q 361 1072 413 1093 q 256 1050 310 1050 q 122 1090 175 1050 q 68 1193 68 1131 q 78 1227 68 1215 q 111 1239 88 1239 q 131 1234 125 1239 q 142 1222 138 1229 q 149 1210 146 1214 q 268 1164 175 1164 q 351 1178 321 1164 q 403 1215 382 1192 q 410 1226 404 1218 q 423 1236 417 1233 q 440 1239 429 1239 z "},"Î":{"ha":392,"x_min":58,"x_max":433,"o":"m 58 0 m 264 975 q 333 936 333 975 l 239 36 q 163 -3 235 -3 l 128 -3 q 58 36 58 -3 l 151 936 q 229 975 156 975 l 264 975 m 283 1243 q 331 1238 313 1243 q 357 1215 349 1232 l 429 1081 q 433 1061 433 1071 q 426 1047 433 1053 q 404 1042 418 1042 l 383 1042 q 311 1069 332 1042 l 261 1143 l 199 1071 q 165 1048 183 1054 q 119 1042 146 1042 l 97 1042 q 71 1057 71 1042 q 81 1081 71 1067 l 181 1215 q 211 1238 192 1232 q 260 1243 231 1243 l 283 1243 z "},"Ï":{"ha":392,"x_min":58,"x_max":464,"o":"m 58 0 m 264 975 q 333 936 333 975 l 239 36 q 163 -3 235 -3 l 128 -3 q 58 36 58 -3 l 151 936 q 229 975 156 975 l 264 975 m 163 1221 q 216 1211 200 1221 q 232 1182 232 1201 l 222 1103 q 144 1064 218 1064 q 90 1073 106 1064 q 74 1103 74 1082 l 83 1182 q 163 1221 88 1221 m 393 1221 q 448 1211 432 1221 q 464 1182 464 1201 l 454 1103 q 375 1064 450 1064 q 321 1073 336 1064 q 306 1103 306 1082 l 315 1182 q 393 1221 318 1221 z "},"İ":{"ha":392,"x_min":58,"x_max":335,"o":"m 58 0 m 264 975 q 333 936 333 975 l 239 36 q 163 -3 235 -3 l 128 -3 q 58 36 58 -3 l 151 936 q 229 975 156 975 l 264 975 m 265 1221 q 319 1211 303 1221 q 335 1182 335 1201 l 326 1103 q 247 1064 319 1064 q 193 1073 208 1064 q 178 1103 178 1082 l 186 1182 q 265 1221 190 1221 z "},"Ị":{"ha":392,"x_min":40,"x_max":333,"o":"m 40 0 m 264 975 q 333 936 333 975 l 239 36 q 163 -3 235 -3 l 128 -3 q 58 36 58 -3 l 151 936 q 229 975 156 975 l 264 975 m 128 -111 q 181 -121 165 -111 q 197 -150 197 -131 l 189 -229 q 110 -268 182 -268 q 56 -259 71 -268 q 40 -229 40 -250 l 49 -150 q 128 -111 53 -111 z "},"Ì":{"ha":392,"x_min":58,"x_max":333,"o":"m 58 0 m 264 975 q 333 936 333 975 l 239 36 q 163 -3 235 -3 l 128 -3 q 58 36 58 -3 l 151 936 q 229 975 156 975 l 264 975 m 154 1264 q 257 1228 239 1264 l 272 1199 q 317 1110 301 1143 q 333 1068 333 1076 q 324 1054 333 1058 q 293 1050 314 1050 q 203 1081 228 1050 l 146 1147 q 92 1214 108 1192 q 75 1244 75 1236 q 94 1260 75 1256 q 154 1264 113 1264 z "},"Ỉ":{"ha":392,"x_min":58,"x_max":422,"o":"m 58 0 m 264 975 q 333 936 333 975 l 239 36 q 163 -3 235 -3 l 128 -3 q 58 36 58 -3 l 151 936 q 229 975 156 975 l 264 975 m 311 1176 q 299 1200 311 1192 q 267 1208 288 1208 q 225 1200 243 1208 q 203 1192 207 1192 q 183 1212 194 1192 q 171 1246 171 1232 q 210 1274 171 1260 q 285 1289 249 1289 q 383 1260 344 1289 q 422 1185 422 1232 q 394 1114 422 1149 q 330 1056 365 1079 q 282 1033 294 1033 q 231 1042 250 1033 q 211 1061 211 1050 q 221 1080 211 1071 q 251 1104 231 1089 q 297 1140 282 1125 q 311 1176 311 1156 z "},"Ī":{"ha":392,"x_min":58,"x_max":457,"o":"m 58 0 m 264 975 q 333 936 333 975 l 239 36 q 163 -3 235 -3 l 128 -3 q 58 36 58 -3 l 151 936 q 229 975 156 975 l 264 975 m 425 1203 q 457 1163 457 1203 q 448 1108 457 1133 q 411 1082 439 1082 l 107 1082 q 83 1092 90 1082 q 75 1122 75 1101 q 119 1203 75 1203 l 425 1203 z "},"Į":{"ha":392,"x_min":58,"x_max":342,"o":"m 329 -136 q 339 -143 336 -136 q 342 -168 342 -150 q 306 -235 342 -217 q 219 -254 271 -254 q 101 -217 133 -254 q 69 -131 69 -179 q 81 -63 69 -101 q 115 -3 93 -25 q 58 36 58 0 l 151 936 q 229 975 156 975 l 264 975 q 333 936 333 975 l 239 36 q 190 -1 235 7 q 181 -33 190 -14 q 165 -97 165 -69 q 189 -145 165 -133 q 246 -157 213 -157 q 299 -147 272 -157 q 329 -136 325 -136 z "},"Ĩ":{"ha":392,"x_min":33,"x_max":485,"o":"m 167 1208 q 230 1197 193 1208 q 274 1182 267 1185 q 357 1160 331 1161 q 403 1189 383 1160 q 435 1211 418 1211 q 450 1208 439 1211 l 461 1204 q 485 1175 485 1197 q 481 1156 485 1167 q 431 1085 464 1111 q 353 1058 399 1058 q 249 1083 321 1058 q 200 1099 224 1092 q 161 1106 176 1106 q 114 1076 135 1106 q 85 1054 99 1054 q 69 1057 81 1054 l 57 1063 q 33 1093 33 1071 q 38 1111 33 1101 q 87 1182 54 1156 q 167 1208 119 1208 m 264 975 q 333 936 333 975 l 239 36 q 163 -3 235 -3 l 128 -3 q 58 36 58 -3 l 151 936 q 229 975 156 975 l 264 975 z "},"J":{"ha":558,"x_min":-21,"x_max":500,"o":"m 431 975 q 500 936 500 975 l 431 282 q 337 67 415 143 q 108 -10 258 -10 q -21 44 -21 -10 q -13 135 -21 110 q 4 160 -6 160 q 32 153 11 160 q 93 147 53 147 q 205 184 168 147 q 251 303 242 221 l 318 936 q 394 975 322 975 l 431 975 z "},"Ĵ":{"ha":558,"x_min":-21,"x_max":594,"o":"m 0 0 m 431 975 q 500 936 500 975 l 431 282 q 337 67 415 143 q 108 -10 258 -10 q -21 44 -21 -10 q -13 135 -21 110 q 4 160 -6 160 q 32 153 11 160 q 93 147 53 147 q 205 184 168 147 q 251 303 242 221 l 318 936 q 394 975 322 975 l 431 975 m 444 1244 q 492 1239 474 1244 q 518 1217 510 1233 l 590 1082 q 594 1063 594 1072 q 587 1049 594 1054 q 565 1043 579 1043 l 544 1043 q 472 1071 493 1043 l 422 1144 l 360 1072 q 326 1049 344 1056 q 281 1043 307 1043 l 258 1043 q 232 1058 232 1043 q 242 1082 232 1068 l 342 1217 q 372 1239 353 1233 q 421 1244 392 1244 l 444 1244 z "},"K":{"ha":800,"x_min":53,"x_max":807,"o":"m 742 975 q 790 970 774 975 q 807 957 807 965 q 793 926 807 944 l 454 508 l 747 44 q 757 21 757 29 q 739 3 756 8 q 683 -3 722 -3 l 629 -3 q 576 2 594 -3 q 550 21 557 7 l 283 451 l 278 451 l 235 36 q 158 -3 231 -3 l 122 -3 q 69 7 85 -3 q 53 36 53 17 l 147 936 q 224 975 151 975 l 260 975 q 313 965 297 975 q 329 936 329 956 l 288 544 l 293 543 l 613 951 q 696 975 632 975 l 742 975 z "},"Ķ":{"ha":800,"x_min":53,"x_max":807,"o":"m 53 0 m 742 975 q 790 970 774 975 q 807 957 807 965 q 793 926 807 944 l 454 508 l 747 44 q 757 21 757 29 q 739 3 756 8 q 683 -3 722 -3 l 629 -3 q 576 2 594 -3 q 550 21 557 7 l 283 451 l 278 451 l 235 36 q 158 -3 231 -3 l 122 -3 q 69 7 85 -3 q 53 36 53 17 l 147 936 q 224 975 151 975 l 260 975 q 313 965 297 975 q 329 936 329 956 l 288 544 l 293 543 l 613 951 q 696 975 632 975 l 742 975 m 378 -71 q 436 -124 436 -71 q 405 -214 436 -165 q 332 -297 374 -262 q 267 -331 290 -331 q 231 -324 247 -331 q 215 -306 215 -318 q 224 -282 215 -296 q 233 -265 232 -268 q 265 -201 253 -232 q 276 -126 276 -171 q 297 -86 276 -101 q 356 -71 318 -71 l 378 -71 z "},"L":{"ha":672,"x_min":57,"x_max":625,"o":"m 263 975 q 332 936 332 975 l 250 154 l 594 154 q 625 108 625 154 q 615 28 625 57 q 579 0 606 0 l 103 0 q 67 10 76 0 q 57 43 57 19 l 150 936 q 228 975 154 975 l 263 975 z "},"Ǉ":{"ha":997,"x_min":57,"x_max":947,"o":"m 263 975 q 332 936 332 975 l 250 154 l 490 154 q 521 108 521 154 q 511 28 521 57 q 475 0 501 0 l 103 0 q 67 10 76 0 q 57 43 57 19 l 150 936 q 228 975 154 975 l 263 975 m 878 975 q 947 936 947 975 l 851 51 q 758 -165 838 -87 q 531 -242 679 -242 q 440 -230 478 -242 q 401 -187 401 -218 q 426 -71 401 -71 q 453 -77 432 -71 q 515 -83 474 -83 q 627 -47 590 -83 q 672 71 664 -11 l 765 936 q 843 975 769 975 l 878 975 z "},"Ĺ":{"ha":672,"x_min":57,"x_max":625,"o":"m 57 0 m 263 975 q 332 936 332 975 l 250 154 l 594 154 q 625 108 625 154 q 615 28 625 57 q 579 0 606 0 l 103 0 q 67 10 76 0 q 57 43 57 19 l 150 936 q 228 975 154 975 l 263 975 m 392 1265 q 467 1249 467 1265 q 457 1228 467 1239 q 403 1172 447 1218 q 311 1082 381 1151 q 215 1051 281 1051 q 186 1055 194 1051 q 178 1067 178 1058 q 188 1090 178 1074 q 218 1135 199 1107 q 243 1172 228 1149 q 281 1229 258 1194 q 392 1265 306 1265 z "},"Ľ":{"ha":672,"x_min":57,"x_max":638,"o":"m 57 0 m 263 975 q 332 936 332 975 l 250 154 l 594 154 q 625 108 625 154 q 615 28 625 57 q 579 0 606 0 l 103 0 q 67 10 76 0 q 57 43 57 19 l 150 936 q 228 975 154 975 l 263 975 m 579 972 q 638 919 638 972 q 613 834 638 881 q 554 755 588 788 q 501 722 521 722 q 466 728 482 722 q 450 749 450 735 q 458 788 450 757 q 474 848 468 819 q 479 917 479 876 q 500 957 479 942 q 558 972 521 972 l 579 972 z "},"Ļ":{"ha":672,"x_min":57,"x_max":625,"o":"m 57 0 m 263 975 q 332 936 332 975 l 250 154 l 594 154 q 625 108 625 154 q 615 28 625 57 q 579 0 606 0 l 103 0 q 67 10 76 0 q 57 43 57 19 l 150 936 q 228 975 154 975 l 263 975 m 324 -71 q 382 -124 382 -71 q 351 -214 382 -165 q 278 -297 319 -262 q 213 -331 236 -331 q 177 -324 193 -331 q 161 -306 161 -318 q 169 -282 161 -296 q 179 -265 178 -268 q 210 -201 199 -232 q 222 -126 222 -171 q 243 -86 222 -101 q 301 -71 264 -71 l 324 -71 z "},"Ŀ":{"ha":672,"x_min":57,"x_max":625,"o":"m 57 0 m 263 975 q 332 936 332 975 l 250 154 l 594 154 q 625 108 625 154 q 615 28 625 57 q 579 0 606 0 l 103 0 q 67 10 76 0 q 57 43 57 19 l 150 936 q 228 975 154 975 l 263 975 m 453 588 q 510 565 488 588 q 532 508 532 542 q 504 440 532 468 q 435 411 476 411 q 378 433 400 411 q 356 488 356 456 q 382 558 356 528 q 453 588 408 588 z "},"ǈ":{"ha":1056,"x_min":57,"x_max":1013,"o":"m 57 0 m 263 975 q 332 936 332 975 l 250 154 l 594 154 q 625 108 625 154 q 615 28 625 57 q 579 0 606 0 l 103 0 q 67 10 76 0 q 57 43 57 19 l 150 936 q 228 975 154 975 l 263 975 m 943 1046 q 1013 1008 1013 1046 l 1001 906 q 928 867 999 867 l 896 867 q 843 877 861 867 q 825 904 825 888 l 836 1007 q 913 1046 840 1046 l 943 1046 m 908 729 q 960 719 943 729 q 978 690 978 708 l 896 -82 q 828 -242 885 -189 q 686 -294 772 -294 q 578 -239 578 -294 q 584 -164 578 -186 q 599 -142 590 -142 q 618 -148 603 -142 q 658 -154 633 -154 q 703 -137 688 -154 q 724 -79 719 -121 l 804 690 q 882 729 808 729 l 908 729 z "},"Ł":{"ha":675,"x_min":15,"x_max":626,"o":"m 264 975 q 333 936 333 975 l 303 646 l 442 725 q 461 732 456 732 q 472 707 472 732 q 462 658 472 675 q 432 631 451 642 l 293 551 l 251 154 l 596 154 q 626 108 626 154 q 617 28 626 57 q 581 0 607 0 l 104 0 q 68 10 78 0 q 58 43 58 19 l 100 440 l 46 411 q 26 404 32 404 q 15 428 15 404 q 26 476 15 460 q 56 506 36 493 l 110 536 l 151 936 q 229 975 156 975 l 264 975 z "},"M":{"ha":1171,"x_min":64,"x_max":1115,"o":"m 1046 975 q 1099 965 1083 975 q 1115 936 1115 956 l 1021 36 q 944 -3 1017 -3 l 915 -3 q 862 7 878 -3 q 846 36 846 17 l 913 674 l 907 674 l 638 269 q 588 246 618 246 l 542 246 q 499 269 511 246 l 311 675 l 306 678 l 239 36 q 163 -3 235 -3 l 133 -3 q 80 7 96 -3 q 64 36 64 17 l 157 936 q 235 975 161 975 l 300 975 q 374 942 360 975 l 568 521 l 589 468 l 624 525 l 904 942 q 983 975 926 975 l 1046 975 z "},"N":{"ha":999,"x_min":57,"x_max":940,"o":"m 871 975 q 924 965 908 975 q 940 936 940 956 l 846 36 q 769 -3 842 -3 l 725 -3 q 678 3 696 -3 q 651 28 661 10 l 321 622 l 299 668 l 233 36 q 156 -3 229 -3 l 126 -3 q 73 7 89 -3 q 57 36 57 17 l 151 936 q 228 975 156 975 l 276 975 q 324 968 307 975 q 354 942 342 961 l 672 367 l 699 313 l 764 936 q 842 975 768 975 l 871 975 z "},"Ǌ":{"ha":1557,"x_min":57,"x_max":1499,"o":"m 57 0 m 871 975 q 924 965 908 975 q 940 936 940 956 l 846 36 q 769 -3 842 -3 l 725 -3 q 678 3 696 -3 q 651 28 661 10 l 321 622 l 299 668 l 233 36 q 156 -3 229 -3 l 126 -3 q 73 7 89 -3 q 57 36 57 17 l 151 936 q 228 975 156 975 l 276 975 q 324 968 307 975 q 354 942 342 961 l 672 367 l 699 313 l 764 936 q 842 975 768 975 l 871 975 m 1429 975 q 1499 936 1499 975 l 1429 282 q 1335 67 1414 143 q 1107 -10 1257 -10 q 978 44 978 -10 q 985 135 978 110 q 1003 160 993 160 q 1031 153 1010 160 q 1092 147 1051 147 q 1203 184 1167 147 q 1250 303 1240 221 l 1317 936 q 1393 975 1321 975 l 1429 975 z "},"Ń":{"ha":999,"x_min":57,"x_max":940,"o":"m 57 0 m 871 975 q 924 965 908 975 q 940 936 940 956 l 846 36 q 769 -3 842 -3 l 725 -3 q 678 3 696 -3 q 651 28 661 10 l 321 622 l 299 668 l 233 36 q 156 -3 229 -3 l 126 -3 q 73 7 89 -3 q 57 36 57 17 l 151 936 q 228 975 156 975 l 276 975 q 324 968 307 975 q 354 942 342 961 l 672 367 l 699 313 l 764 936 q 842 975 768 975 l 871 975 m 692 1264 q 767 1247 767 1264 q 757 1227 767 1238 q 703 1171 747 1217 q 611 1081 681 1150 q 515 1050 581 1050 q 486 1053 494 1050 q 478 1065 478 1057 q 488 1089 478 1072 q 518 1133 499 1106 q 543 1170 528 1147 q 581 1228 558 1193 q 692 1264 606 1264 z "},"Ň":{"ha":999,"x_min":57,"x_max":940,"o":"m 57 0 m 871 975 q 924 965 908 975 q 940 936 940 956 l 846 36 q 769 -3 842 -3 l 725 -3 q 678 3 696 -3 q 651 28 661 10 l 321 622 l 299 668 l 233 36 q 156 -3 229 -3 l 126 -3 q 73 7 89 -3 q 57 36 57 17 l 151 936 q 228 975 156 975 l 276 975 q 324 968 307 975 q 354 942 342 961 l 672 367 l 699 313 l 764 936 q 842 975 768 975 l 871 975 m 725 1246 q 753 1231 753 1246 q 743 1208 753 1219 l 643 1074 q 612 1051 631 1057 q 563 1046 593 1046 l 540 1046 q 493 1051 511 1046 q 467 1074 475 1057 l 394 1208 q 390 1228 390 1219 q 419 1246 390 1246 l 440 1246 q 513 1218 492 1246 l 563 1146 l 625 1218 q 658 1240 639 1235 q 703 1246 676 1246 l 725 1246 z "},"Ņ":{"ha":999,"x_min":57,"x_max":940,"o":"m 57 0 m 871 975 q 924 965 908 975 q 940 936 940 956 l 846 36 q 769 -3 842 -3 l 725 -3 q 678 3 696 -3 q 651 28 661 10 l 321 622 l 299 668 l 233 36 q 156 -3 229 -3 l 126 -3 q 73 7 89 -3 q 57 36 57 17 l 151 936 q 228 975 156 975 l 276 975 q 324 968 307 975 q 354 942 342 961 l 672 367 l 699 313 l 764 936 q 842 975 768 975 l 871 975 m 479 -71 q 538 -124 538 -71 q 506 -214 538 -165 q 433 -297 475 -262 q 368 -331 392 -331 q 333 -324 349 -331 q 317 -306 317 -318 q 325 -282 317 -296 q 335 -265 333 -268 q 366 -201 354 -232 q 378 -126 378 -171 q 399 -86 378 -101 q 457 -71 419 -71 l 479 -71 z "},"Ṅ":{"ha":999,"x_min":57,"x_max":940,"o":"m 57 0 m 871 975 q 924 965 908 975 q 940 936 940 956 l 846 36 q 769 -3 842 -3 l 725 -3 q 678 3 696 -3 q 651 28 661 10 l 321 622 l 299 668 l 233 36 q 156 -3 229 -3 l 126 -3 q 73 7 89 -3 q 57 36 57 17 l 151 936 q 228 975 156 975 l 276 975 q 324 968 307 975 q 354 942 342 961 l 672 367 l 699 313 l 764 936 q 842 975 768 975 l 871 975 m 561 1221 q 615 1211 599 1221 q 631 1182 631 1201 l 622 1103 q 543 1064 615 1064 q 489 1073 504 1064 q 474 1103 474 1082 l 482 1182 q 561 1221 486 1221 z "},"Ŋ":{"ha":999,"x_min":57,"x_max":940,"o":"m 846 36 l 844 35 l 832 -82 q 765 -242 821 -189 q 622 -294 708 -294 q 514 -239 514 -294 q 520 -164 514 -186 q 535 -142 526 -142 q 554 -148 539 -142 q 594 -154 569 -154 q 640 -137 624 -154 q 660 -79 656 -121 l 668 0 l 328 608 l 299 668 l 233 36 q 156 -3 229 -3 l 126 -3 q 73 7 89 -3 q 57 36 57 17 l 151 936 q 228 975 156 975 l 276 975 q 324 968 307 975 q 354 942 342 961 l 668 374 l 699 313 l 764 936 q 842 975 768 975 l 871 975 q 924 965 908 975 q 940 936 940 956 l 846 36 z "},"ǋ":{"ha":1382,"x_min":57,"x_max":1339,"o":"m 57 0 m 871 975 q 924 965 908 975 q 940 936 940 956 l 846 36 q 769 -3 842 -3 l 725 -3 q 678 3 696 -3 q 651 28 661 10 l 321 622 l 299 668 l 233 36 q 156 -3 229 -3 l 126 -3 q 73 7 89 -3 q 57 36 57 17 l 151 936 q 228 975 156 975 l 276 975 q 324 968 307 975 q 354 942 342 961 l 672 367 l 699 313 l 764 936 q 842 975 768 975 l 871 975 m 1269 1046 q 1339 1008 1339 1046 l 1328 906 q 1254 867 1325 867 l 1222 867 q 1169 877 1188 867 q 1151 904 1151 888 l 1163 1007 q 1239 1046 1167 1046 l 1269 1046 m 1235 729 q 1287 719 1269 729 q 1304 690 1304 708 l 1222 -82 q 1155 -242 1211 -189 q 1013 -294 1099 -294 q 904 -239 904 -294 q 910 -164 904 -186 q 925 -142 917 -142 q 944 -148 929 -142 q 985 -154 960 -154 q 1030 -137 1014 -154 q 1050 -79 1046 -121 l 1131 690 q 1208 729 1135 729 l 1235 729 z "},"Ñ":{"ha":999,"x_min":57,"x_max":940,"o":"m 57 0 m 871 975 q 924 965 908 975 q 940 936 940 956 l 846 36 q 769 -3 842 -3 l 725 -3 q 678 3 696 -3 q 651 28 661 10 l 321 622 l 299 668 l 233 36 q 156 -3 229 -3 l 126 -3 q 73 7 89 -3 q 57 36 57 17 l 151 936 q 228 975 156 975 l 276 975 q 324 968 307 975 q 354 942 342 961 l 672 367 l 699 313 l 764 936 q 842 975 768 975 l 871 975 m 453 1208 q 506 1200 474 1208 q 569 1182 539 1192 q 664 1160 636 1161 q 715 1189 693 1160 q 750 1211 732 1211 l 767 1208 l 779 1204 q 806 1175 806 1197 q 801 1156 806 1167 q 747 1084 783 1110 q 660 1058 710 1058 q 543 1083 626 1058 q 489 1099 515 1092 q 446 1106 463 1106 q 394 1076 417 1106 q 361 1054 378 1054 q 344 1057 356 1054 l 331 1063 q 306 1092 306 1071 q 310 1111 306 1101 q 364 1182 328 1156 q 453 1208 400 1208 z "},"O":{"ha":1015,"x_min":63,"x_max":951,"o":"m 560 982 q 851 878 750 982 q 951 578 951 775 q 822 142 951 294 q 456 -10 692 -10 q 163 93 264 -10 q 63 393 63 196 q 113 683 63 550 q 275 899 164 817 q 560 982 386 982 m 543 828 q 328 719 407 828 q 250 410 250 611 q 306 212 250 279 q 471 144 361 144 q 686 253 607 144 q 765 561 765 361 q 709 760 765 692 q 543 828 653 828 z "},"Ó":{"ha":1015,"x_min":63,"x_max":951,"o":"m 63 0 m 560 982 q 851 878 750 982 q 951 578 951 775 q 822 142 951 294 q 456 -10 692 -10 q 163 93 264 -10 q 63 393 63 196 q 113 683 63 550 q 275 899 164 817 q 560 982 386 982 m 543 828 q 328 719 407 828 q 250 410 250 611 q 306 212 250 279 q 471 144 361 144 q 686 253 607 144 q 765 561 765 361 q 709 760 765 692 q 543 828 653 828 m 697 1264 q 772 1247 772 1264 q 763 1227 772 1238 q 708 1171 753 1217 q 617 1081 686 1150 q 521 1050 586 1050 q 492 1053 500 1050 q 483 1065 483 1057 q 494 1089 483 1072 q 524 1133 504 1106 q 549 1170 533 1147 q 586 1228 564 1193 q 697 1264 611 1264 z "},"Ŏ":{"ha":1015,"x_min":63,"x_max":951,"o":"m 63 0 m 560 982 q 851 878 750 982 q 951 578 951 775 q 822 142 951 294 q 456 -10 692 -10 q 163 93 264 -10 q 63 393 63 196 q 113 683 63 550 q 275 899 164 817 q 560 982 386 982 m 543 828 q 328 719 407 828 q 250 410 250 611 q 306 212 250 279 q 471 144 361 144 q 686 253 607 144 q 765 561 765 361 q 709 760 765 692 q 543 828 653 828 m 742 1239 q 776 1211 776 1239 q 745 1130 776 1167 q 663 1072 714 1093 q 557 1050 611 1050 q 423 1090 476 1050 q 369 1193 369 1131 q 379 1227 369 1215 q 413 1239 389 1239 q 433 1234 426 1239 q 443 1222 439 1229 q 450 1210 447 1214 q 569 1164 476 1164 q 653 1178 622 1164 q 704 1215 683 1192 q 712 1226 706 1218 q 724 1236 718 1233 q 742 1239 731 1239 z "},"Ô":{"ha":1015,"x_min":63,"x_max":951,"o":"m 63 0 m 560 982 q 851 878 750 982 q 951 578 951 775 q 822 142 951 294 q 456 -10 692 -10 q 163 93 264 -10 q 63 393 63 196 q 113 683 63 550 q 275 899 164 817 q 560 982 386 982 m 543 828 q 328 719 407 828 q 250 410 250 611 q 306 212 250 279 q 471 144 361 144 q 686 253 607 144 q 765 561 765 361 q 709 760 765 692 q 543 828 653 828 m 585 1243 q 632 1238 614 1243 q 658 1215 650 1232 l 731 1081 q 735 1061 735 1071 q 727 1047 735 1053 q 706 1042 719 1042 l 685 1042 q 613 1069 633 1042 l 563 1143 l 500 1071 q 466 1048 485 1054 q 421 1042 447 1042 l 399 1042 q 372 1057 372 1042 q 382 1081 372 1067 l 482 1215 q 513 1238 493 1232 q 561 1243 532 1243 l 585 1243 z "},"Ố":{"ha":1015,"x_min":63,"x_max":951,"o":"m 869 1336 q 907 1331 894 1336 q 919 1310 919 1325 q 896 1273 919 1301 q 797 1167 872 1244 q 726 1144 772 1144 q 705 1148 711 1144 q 699 1161 699 1151 q 716 1203 699 1169 q 768 1300 733 1236 q 869 1336 788 1336 m 586 1243 q 623 1237 608 1243 q 646 1215 638 1231 l 711 1081 q 715 1061 715 1071 q 708 1047 715 1053 q 686 1042 700 1042 l 665 1042 q 616 1047 635 1042 q 593 1069 597 1053 l 564 1143 l 501 1071 q 467 1048 486 1054 q 422 1042 449 1042 l 400 1042 q 374 1057 374 1042 q 383 1081 374 1067 l 483 1215 q 514 1238 494 1232 q 563 1243 533 1243 l 586 1243 m 560 982 q 851 878 750 982 q 951 578 951 775 q 822 142 951 294 q 456 -10 692 -10 q 163 93 264 -10 q 63 393 63 196 q 113 683 63 550 q 275 899 164 817 q 560 982 386 982 m 543 828 q 328 719 407 828 q 250 410 250 611 q 306 212 250 279 q 471 144 361 144 q 686 253 607 144 q 765 561 765 361 q 709 760 765 692 q 543 828 653 828 z "},"Ộ":{"ha":1015,"x_min":63,"x_max":951,"o":"m 63 0 m 560 982 q 851 878 750 982 q 951 578 951 775 q 822 142 951 294 q 456 -10 692 -10 q 163 93 264 -10 q 63 393 63 196 q 113 683 63 550 q 275 899 164 817 q 560 982 386 982 m 543 828 q 328 719 407 828 q 250 410 250 611 q 306 212 250 279 q 471 144 361 144 q 686 253 607 144 q 765 561 765 361 q 709 760 765 692 q 543 828 653 828 m 585 1243 q 632 1238 614 1243 q 658 1215 650 1232 l 731 1081 q 735 1061 735 1071 q 727 1047 735 1053 q 706 1042 719 1042 l 685 1042 q 613 1069 633 1042 l 563 1143 l 500 1071 q 466 1048 485 1054 q 421 1042 447 1042 l 399 1042 q 372 1057 372 1042 q 382 1081 372 1067 l 482 1215 q 513 1238 493 1232 q 561 1243 532 1243 l 585 1243 m 440 -111 q 494 -121 478 -111 q 510 -150 510 -131 l 501 -229 q 422 -268 494 -268 q 368 -259 383 -268 q 353 -229 353 -250 l 361 -150 q 440 -111 365 -111 z "},"Ồ":{"ha":1015,"x_min":63,"x_max":951,"o":"m 676 1339 q 774 1301 760 1339 q 817 1164 817 1179 q 807 1150 817 1154 q 776 1146 797 1146 q 706 1176 726 1146 q 637 1277 658 1244 q 615 1318 615 1310 q 629 1335 615 1331 q 676 1339 643 1339 m 586 1243 q 623 1237 608 1243 q 646 1215 638 1231 l 711 1081 q 715 1061 715 1071 q 708 1047 715 1053 q 686 1042 700 1042 l 665 1042 q 616 1047 635 1042 q 593 1069 597 1053 l 564 1143 l 501 1071 q 467 1048 486 1054 q 422 1042 449 1042 l 400 1042 q 374 1057 374 1042 q 383 1081 374 1067 l 483 1215 q 514 1238 494 1232 q 563 1243 533 1243 l 586 1243 m 560 982 q 851 878 750 982 q 951 578 951 775 q 822 142 951 294 q 456 -10 692 -10 q 163 93 264 -10 q 63 393 63 196 q 113 683 63 550 q 275 899 164 817 q 560 982 386 982 m 543 828 q 328 719 407 828 q 250 410 250 611 q 306 212 250 279 q 471 144 361 144 q 686 253 607 144 q 765 561 765 361 q 709 760 765 692 q 543 828 653 828 z "},"Ổ":{"ha":1015,"x_min":63,"x_max":951,"o":"m 783 1249 q 773 1269 783 1261 q 747 1278 763 1278 q 700 1267 719 1278 q 676 1256 681 1256 q 656 1276 668 1256 q 644 1310 644 1296 q 683 1336 644 1324 q 760 1349 722 1349 q 843 1324 813 1349 q 874 1256 874 1300 q 858 1212 874 1231 q 818 1176 843 1193 q 782 1157 801 1167 q 757 1147 763 1147 q 717 1156 732 1147 q 703 1175 703 1164 q 735 1204 703 1189 q 772 1225 761 1215 q 783 1249 783 1235 m 586 1243 q 623 1237 608 1243 q 646 1215 638 1231 l 711 1081 q 715 1061 715 1071 q 708 1047 715 1053 q 686 1042 700 1042 l 665 1042 q 616 1047 635 1042 q 593 1069 597 1053 l 564 1143 l 501 1071 q 467 1048 486 1054 q 422 1042 449 1042 l 400 1042 q 374 1057 374 1042 q 383 1081 374 1067 l 483 1215 q 514 1238 494 1232 q 563 1243 533 1243 l 586 1243 m 560 982 q 851 878 750 982 q 951 578 951 775 q 822 142 951 294 q 456 -10 692 -10 q 163 93 264 -10 q 63 393 63 196 q 113 683 63 550 q 275 899 164 817 q 560 982 386 982 m 543 828 q 328 719 407 828 q 250 410 250 611 q 306 212 250 279 q 471 144 361 144 q 686 253 607 144 q 765 561 765 361 q 709 760 765 692 q 543 828 653 828 z "},"Ỗ":{"ha":1015,"x_min":63,"x_max":951,"o":"m 496 1408 q 545 1400 515 1408 q 603 1382 575 1392 q 688 1360 663 1361 q 735 1389 714 1360 q 765 1411 750 1411 q 781 1408 769 1411 l 793 1404 q 817 1375 817 1397 q 813 1356 817 1367 q 763 1284 796 1310 q 683 1258 731 1258 q 578 1283 653 1258 q 528 1299 553 1292 q 489 1306 504 1306 q 443 1276 464 1306 q 413 1254 428 1254 q 397 1257 408 1254 l 385 1263 q 361 1293 361 1271 q 365 1311 361 1301 q 415 1382 382 1356 q 496 1408 449 1408 m 589 1210 q 633 1203 617 1210 q 664 1182 650 1197 l 735 1081 q 740 1063 740 1071 q 710 1043 738 1043 l 689 1043 q 653 1049 667 1043 q 617 1071 639 1056 l 567 1118 l 504 1071 q 480 1058 494 1067 q 453 1047 465 1050 q 426 1043 440 1043 l 404 1043 q 376 1058 376 1043 q 386 1081 376 1069 l 488 1182 q 522 1203 504 1197 q 567 1210 540 1210 l 589 1210 m 560 982 q 851 878 750 982 q 951 578 951 775 q 822 142 951 294 q 456 -10 692 -10 q 163 93 264 -10 q 63 393 63 196 q 113 683 63 550 q 275 899 164 817 q 560 982 386 982 m 543 828 q 328 719 407 828 q 250 410 250 611 q 306 212 250 279 q 471 144 361 144 q 686 253 607 144 q 765 561 765 361 q 709 760 765 692 q 543 828 653 828 z "},"Ö":{"ha":1015,"x_min":63,"x_max":951,"o":"m 63 0 m 560 982 q 851 878 750 982 q 951 578 951 775 q 822 142 951 294 q 456 -10 692 -10 q 163 93 264 -10 q 63 393 63 196 q 113 683 63 550 q 275 899 164 817 q 560 982 386 982 m 543 828 q 328 719 407 828 q 250 410 250 611 q 306 212 250 279 q 471 144 361 144 q 686 253 607 144 q 765 561 765 361 q 709 760 765 692 q 543 828 653 828 m 464 1221 q 517 1211 501 1221 q 533 1182 533 1201 l 524 1103 q 446 1064 519 1064 q 391 1073 407 1064 q 375 1103 375 1082 l 385 1182 q 464 1221 389 1221 m 694 1221 q 749 1211 733 1221 q 765 1182 765 1201 l 756 1103 q 676 1064 751 1064 q 622 1073 638 1064 q 607 1103 607 1082 l 617 1182 q 694 1221 619 1221 z "},"Ọ":{"ha":1015,"x_min":63,"x_max":951,"o":"m 63 0 m 560 982 q 851 878 750 982 q 951 578 951 775 q 822 142 951 294 q 456 -10 692 -10 q 163 93 264 -10 q 63 393 63 196 q 113 683 63 550 q 275 899 164 817 q 560 982 386 982 m 543 828 q 328 719 407 828 q 250 410 250 611 q 306 212 250 279 q 471 144 361 144 q 686 253 607 144 q 765 561 765 361 q 709 760 765 692 q 543 828 653 828 m 440 -111 q 494 -121 478 -111 q 510 -150 510 -131 l 501 -229 q 422 -268 494 -268 q 368 -259 383 -268 q 353 -229 353 -250 l 361 -150 q 440 -111 365 -111 z "},"Ò":{"ha":1015,"x_min":63,"x_max":951,"o":"m 63 0 m 560 982 q 851 878 750 982 q 951 578 951 775 q 822 142 951 294 q 456 -10 692 -10 q 163 93 264 -10 q 63 393 63 196 q 113 683 63 550 q 275 899 164 817 q 560 982 386 982 m 543 828 q 328 719 407 828 q 250 410 250 611 q 306 212 250 279 q 471 144 361 144 q 686 253 607 144 q 765 561 765 361 q 709 760 765 692 q 543 828 653 828 m 456 1264 q 558 1228 540 1264 l 574 1199 q 619 1110 603 1143 q 635 1068 635 1076 q 625 1054 635 1058 q 594 1050 615 1050 q 504 1081 529 1050 l 447 1147 q 393 1214 410 1192 q 376 1244 376 1236 q 395 1260 376 1256 q 456 1264 414 1264 z "},"Ỏ":{"ha":1015,"x_min":63,"x_max":951,"o":"m 63 0 m 560 982 q 851 878 750 982 q 951 578 951 775 q 822 142 951 294 q 456 -10 692 -10 q 163 93 264 -10 q 63 393 63 196 q 113 683 63 550 q 275 899 164 817 q 560 982 386 982 m 543 828 q 328 719 407 828 q 250 410 250 611 q 306 212 250 279 q 471 144 361 144 q 686 253 607 144 q 765 561 765 361 q 709 760 765 692 q 543 828 653 828 m 613 1176 q 601 1200 613 1192 q 568 1208 589 1208 q 526 1200 544 1208 q 504 1192 508 1192 q 484 1212 496 1192 q 472 1246 472 1232 q 511 1274 472 1260 q 586 1289 550 1289 q 685 1260 646 1289 q 724 1185 724 1232 q 695 1114 724 1149 q 631 1056 667 1079 q 583 1033 596 1033 q 532 1042 551 1033 q 513 1061 513 1050 q 522 1080 513 1071 q 553 1104 532 1089 q 598 1140 583 1125 q 613 1176 613 1156 z "},"Ơ":{"ha":1015,"x_min":63,"x_max":958,"o":"m 831 899 q 951 578 951 794 q 822 142 951 294 q 456 -10 692 -10 q 163 93 264 -10 q 63 393 63 196 q 113 683 63 550 q 275 899 164 817 q 560 982 386 982 q 750 947 672 982 l 781 947 q 856 1003 856 947 q 839 1046 856 1021 q 826 1074 826 1064 q 843 1097 826 1088 l 886 1125 q 907 1132 897 1132 q 944 1097 931 1132 q 958 1028 958 1063 q 925 944 958 979 q 831 899 892 910 m 471 144 q 686 253 607 144 q 765 561 765 361 q 709 760 765 692 q 543 828 653 828 q 328 719 407 828 q 250 410 250 611 q 306 212 250 279 q 471 144 361 144 z "},"Ớ":{"ha":1015,"x_min":63,"x_max":958,"o":"m 550 1053 q 521 1056 529 1053 q 513 1068 513 1060 q 523 1092 513 1075 q 553 1136 533 1108 q 578 1173 563 1150 q 615 1231 593 1196 q 726 1267 640 1267 q 801 1250 801 1267 q 792 1229 801 1240 q 738 1174 782 1218 q 646 1083 715 1153 q 550 1053 615 1053 m 831 899 q 951 578 951 794 q 822 142 951 294 q 456 -10 692 -10 q 163 93 264 -10 q 63 393 63 196 q 113 683 63 550 q 275 899 164 817 q 560 982 386 982 q 750 947 672 982 l 781 947 q 856 1003 856 947 q 839 1046 856 1021 q 826 1074 826 1064 q 843 1097 826 1088 l 886 1125 q 907 1132 897 1132 q 944 1097 931 1132 q 958 1028 958 1063 q 925 944 958 979 q 831 899 892 910 m 471 144 q 686 253 607 144 q 765 561 765 361 q 709 760 765 692 q 543 828 653 828 q 328 719 407 828 q 250 410 250 611 q 306 212 250 279 q 471 144 361 144 z "},"Ợ":{"ha":1015,"x_min":63,"x_max":958,"o":"m 831 899 q 951 578 951 794 q 822 142 951 294 q 456 -10 692 -10 q 163 93 264 -10 q 63 393 63 196 q 113 683 63 550 q 275 899 164 817 q 560 982 386 982 q 750 947 672 982 l 781 947 q 856 1003 856 947 q 839 1046 856 1021 q 826 1074 826 1064 q 843 1097 826 1088 l 886 1125 q 907 1132 897 1132 q 944 1097 931 1132 q 958 1028 958 1063 q 925 944 958 979 q 831 899 892 910 m 471 144 q 686 253 607 144 q 765 561 765 361 q 709 760 765 692 q 543 828 653 828 q 328 719 407 828 q 250 410 250 611 q 306 212 250 279 q 471 144 361 144 m 440 -111 q 494 -121 478 -111 q 510 -150 510 -131 l 501 -229 q 422 -268 494 -268 q 368 -259 383 -268 q 353 -229 353 -250 l 361 -150 q 440 -111 365 -111 z "},"Ờ":{"ha":1015,"x_min":63,"x_max":958,"o":"m 625 1053 q 535 1083 560 1053 l 478 1150 q 424 1217 440 1194 q 407 1247 407 1239 q 426 1263 407 1258 q 486 1267 444 1267 q 589 1231 571 1267 l 604 1201 q 649 1113 633 1146 q 665 1071 665 1079 q 656 1057 665 1061 q 625 1053 646 1053 m 831 899 q 951 578 951 794 q 822 142 951 294 q 456 -10 692 -10 q 163 93 264 -10 q 63 393 63 196 q 113 683 63 550 q 275 899 164 817 q 560 982 386 982 q 750 947 672 982 l 781 947 q 856 1003 856 947 q 839 1046 856 1021 q 826 1074 826 1064 q 843 1097 826 1088 l 886 1125 q 907 1132 897 1132 q 944 1097 931 1132 q 958 1028 958 1063 q 925 944 958 979 q 831 899 892 910 m 471 144 q 686 253 607 144 q 765 561 765 361 q 709 760 765 692 q 543 828 653 828 q 328 719 407 828 q 250 410 250 611 q 306 212 250 279 q 471 144 361 144 z "},"Ở":{"ha":1015,"x_min":63,"x_max":958,"o":"m 533 1194 q 513 1215 525 1194 q 501 1249 501 1235 q 540 1277 501 1263 q 615 1292 579 1292 q 714 1263 675 1292 q 753 1188 753 1235 q 724 1117 753 1151 q 660 1059 696 1082 q 613 1036 625 1036 q 561 1044 581 1036 q 542 1064 542 1053 q 551 1083 542 1074 q 582 1107 561 1092 q 627 1143 613 1128 q 642 1179 642 1158 q 630 1203 642 1194 q 597 1211 618 1211 q 556 1203 574 1211 q 533 1194 538 1194 m 831 899 q 951 578 951 794 q 822 142 951 294 q 456 -10 692 -10 q 163 93 264 -10 q 63 393 63 196 q 113 683 63 550 q 275 899 164 817 q 560 982 386 982 q 750 947 672 982 l 781 947 q 856 1003 856 947 q 839 1046 856 1021 q 826 1074 826 1064 q 843 1097 826 1088 l 886 1125 q 907 1132 897 1132 q 944 1097 931 1132 q 958 1028 958 1063 q 925 944 958 979 q 831 899 892 910 m 471 144 q 686 253 607 144 q 765 561 765 361 q 709 760 765 692 q 543 828 653 828 q 328 719 407 828 q 250 410 250 611 q 306 212 250 279 q 471 144 361 144 z "},"Ỡ":{"ha":1015,"x_min":63,"x_max":958,"o":"m 388 1065 q 364 1096 364 1074 q 368 1114 364 1104 q 417 1185 385 1158 q 497 1211 450 1211 q 560 1199 524 1211 q 604 1185 597 1188 q 688 1163 661 1164 q 733 1192 714 1163 q 765 1214 749 1214 q 781 1211 769 1214 l 792 1207 q 815 1178 815 1200 q 811 1158 815 1169 q 762 1088 794 1114 q 683 1061 729 1061 q 579 1086 651 1061 q 531 1101 554 1094 q 492 1108 507 1108 q 444 1079 465 1108 q 415 1057 429 1057 q 400 1060 411 1057 l 388 1065 m 831 899 q 951 578 951 794 q 822 142 951 294 q 456 -10 692 -10 q 163 93 264 -10 q 63 393 63 196 q 113 683 63 550 q 275 899 164 817 q 560 982 386 982 q 750 947 672 982 l 781 947 q 856 1003 856 947 q 839 1046 856 1021 q 826 1074 826 1064 q 843 1097 826 1088 l 886 1125 q 907 1132 897 1132 q 944 1097 931 1132 q 958 1028 958 1063 q 925 944 958 979 q 831 899 892 910 m 471 144 q 686 253 607 144 q 765 561 765 361 q 709 760 765 692 q 543 828 653 828 q 328 719 407 828 q 250 410 250 611 q 306 212 250 279 q 471 144 361 144 z "},"Ő":{"ha":1015,"x_min":63,"x_max":951,"o":"m 63 0 m 560 982 q 851 878 750 982 q 951 578 951 775 q 822 142 951 294 q 456 -10 692 -10 q 163 93 264 -10 q 63 393 63 196 q 113 683 63 550 q 275 899 164 817 q 560 982 386 982 m 543 828 q 328 719 407 828 q 250 410 250 611 q 306 212 250 279 q 471 144 361 144 q 686 253 607 144 q 765 561 765 361 q 709 760 765 692 q 543 828 653 828 m 607 1264 q 664 1260 646 1264 q 682 1247 682 1257 q 671 1225 682 1238 q 607 1160 660 1213 q 526 1081 586 1140 q 431 1050 496 1050 q 401 1053 410 1050 q 393 1065 393 1057 q 403 1089 393 1072 q 433 1133 414 1106 q 458 1170 443 1147 q 496 1228 474 1193 q 607 1264 521 1264 m 842 1264 q 917 1247 917 1264 q 907 1227 917 1238 q 853 1171 897 1217 q 761 1081 831 1150 q 665 1050 731 1050 q 636 1053 644 1050 q 628 1065 628 1057 q 638 1089 628 1072 q 668 1133 649 1106 q 693 1170 678 1147 q 731 1228 708 1193 q 842 1264 756 1264 z "},"Ō":{"ha":1015,"x_min":63,"x_max":951,"o":"m 63 0 m 560 982 q 851 878 750 982 q 951 578 951 775 q 822 142 951 294 q 456 -10 692 -10 q 163 93 264 -10 q 63 393 63 196 q 113 683 63 550 q 275 899 164 817 q 560 982 386 982 m 543 828 q 328 719 407 828 q 250 410 250 611 q 306 212 250 279 q 471 144 361 144 q 686 253 607 144 q 765 561 765 361 q 709 760 765 692 q 543 828 653 828 m 726 1203 q 758 1163 758 1203 q 749 1108 758 1133 q 713 1082 740 1082 l 408 1082 q 384 1092 392 1082 q 376 1122 376 1101 q 421 1203 376 1203 l 726 1203 z "},"Ǫ":{"ha":1015,"x_min":63,"x_max":951,"o":"m 951 578 q 855 187 951 335 q 578 1 758 39 l 578 -1 q 568 -33 578 -14 q 553 -97 553 -69 q 576 -145 553 -133 q 633 -157 600 -157 q 686 -147 660 -157 q 717 -136 713 -136 q 726 -143 724 -136 q 729 -168 729 -150 q 694 -235 729 -217 q 607 -254 658 -254 q 489 -217 521 -254 q 457 -131 457 -179 q 467 -67 457 -103 q 497 -8 478 -32 q 456 -10 483 -10 q 163 93 264 -10 q 63 393 63 196 q 113 683 63 550 q 275 899 164 817 q 560 982 386 982 q 851 878 750 982 q 951 578 951 775 m 471 144 q 686 253 607 144 q 765 561 765 361 q 709 760 765 692 q 543 828 653 828 q 328 719 407 828 q 250 410 250 611 q 306 212 250 279 q 471 144 361 144 z "},"Ø":{"ha":1015,"x_min":17,"x_max":958,"o":"m 560 982 q 813 908 721 982 l 879 981 q 906 994 892 994 q 929 982 918 994 l 944 969 q 958 944 958 957 q 946 919 958 932 l 878 847 q 951 578 951 746 q 822 142 951 294 q 456 -10 692 -10 q 172 86 271 -10 l 96 4 q 69 -10 82 -10 q 44 1 58 -10 l 31 15 q 17 40 17 28 q 29 65 17 53 l 115 157 q 63 393 63 251 q 113 683 63 550 q 275 899 164 817 q 560 982 386 982 m 543 828 q 328 719 407 828 q 250 410 250 611 q 260 315 250 354 l 690 775 q 543 828 635 828 m 297 224 q 471 144 351 144 q 686 253 607 144 q 765 561 765 361 q 743 700 765 643 l 297 224 z "},"Ǿ":{"ha":1015,"x_min":17,"x_max":958,"o":"m 17 0 m 560 982 q 813 908 721 982 l 879 981 q 906 994 892 994 q 929 982 918 994 l 944 969 q 958 944 958 957 q 946 919 958 932 l 878 847 q 951 578 951 746 q 822 142 951 294 q 456 -10 692 -10 q 172 86 271 -10 l 96 4 q 69 -10 82 -10 q 44 1 58 -10 l 31 15 q 17 40 17 28 q 29 65 17 53 l 115 157 q 63 393 63 251 q 113 683 63 550 q 275 899 164 817 q 560 982 386 982 m 543 828 q 328 719 407 828 q 250 410 250 611 q 260 315 250 354 l 690 775 q 543 828 635 828 m 297 224 q 471 144 351 144 q 686 253 607 144 q 765 561 765 361 q 743 700 765 643 l 297 224 m 653 1264 q 728 1247 728 1264 q 718 1227 728 1238 q 664 1171 708 1217 q 572 1081 642 1150 q 476 1050 542 1050 q 447 1053 456 1050 q 439 1065 439 1057 q 449 1089 439 1072 q 479 1133 460 1106 q 504 1170 489 1147 q 542 1228 519 1193 q 653 1264 567 1264 z "},"Õ":{"ha":1015,"x_min":63,"x_max":951,"o":"m 63 0 m 560 982 q 851 878 750 982 q 951 578 951 775 q 822 142 951 294 q 456 -10 692 -10 q 163 93 264 -10 q 63 393 63 196 q 113 683 63 550 q 275 899 164 817 q 560 982 386 982 m 543 828 q 328 719 407 828 q 250 410 250 611 q 306 212 250 279 q 471 144 361 144 q 686 253 607 144 q 765 561 765 361 q 709 760 765 692 q 543 828 653 828 m 458 1208 q 512 1200 479 1208 q 575 1182 544 1192 q 669 1160 642 1161 q 721 1189 699 1160 q 756 1211 738 1211 l 772 1208 l 785 1204 q 811 1175 811 1197 q 807 1156 811 1167 q 752 1084 789 1110 q 665 1058 715 1058 q 549 1083 632 1058 q 494 1099 521 1092 q 451 1106 468 1106 q 400 1076 422 1106 q 367 1054 383 1054 q 350 1057 361 1054 l 336 1063 q 311 1092 311 1071 q 315 1111 311 1101 q 369 1182 333 1156 q 458 1208 406 1208 z "},"Œ":{"ha":1418,"x_min":63,"x_max":1397,"o":"m 1365 972 q 1390 961 1382 972 q 1397 926 1397 950 q 1387 847 1397 876 q 1350 818 1376 818 l 979 818 l 953 575 l 1283 575 q 1308 564 1300 575 q 1315 528 1315 553 q 1306 450 1315 479 q 1269 421 1296 421 l 938 421 l 908 154 l 1281 154 q 1305 143 1297 154 q 1313 108 1313 132 q 1303 29 1313 58 q 1267 0 1293 0 l 763 0 q 727 9 738 0 q 717 40 717 18 l 719 68 q 446 -10 604 -10 q 161 93 260 -10 q 63 392 63 196 q 122 713 63 581 q 290 914 181 846 q 550 982 400 982 q 806 904 706 982 l 807 914 q 823 958 810 944 q 864 972 836 972 l 1365 972 m 471 144 q 686 253 607 144 q 765 561 765 361 q 709 760 765 692 q 543 828 653 828 q 328 719 407 828 q 250 410 250 611 q 306 212 250 279 q 471 144 361 144 z "},"P":{"ha":792,"x_min":56,"x_max":793,"o":"m 497 972 q 704 920 615 972 q 793 726 793 868 q 731 511 793 588 q 592 408 669 435 q 450 382 514 382 l 272 382 l 236 36 q 158 -3 232 -3 l 125 -3 q 72 7 88 -3 q 56 36 56 17 l 149 922 q 165 960 151 949 q 204 972 178 972 l 497 972 m 318 818 l 288 538 l 451 538 q 557 574 508 538 q 606 701 606 610 q 567 792 606 765 q 475 818 529 818 l 318 818 z "},"Þ":{"ha":788,"x_min":56,"x_max":776,"o":"m 260 975 q 315 965 299 975 q 331 936 331 956 l 317 817 l 482 817 q 688 764 599 817 q 776 568 776 711 q 714 354 776 431 q 574 252 651 278 q 433 226 496 226 l 256 226 l 236 36 q 158 -3 232 -3 l 125 -3 q 72 7 88 -3 q 56 36 56 17 l 150 936 q 226 975 154 975 l 260 975 m 301 663 l 272 381 l 436 381 q 542 417 493 381 q 590 546 590 454 q 551 636 590 610 q 457 663 513 663 l 301 663 z "},"Q":{"ha":1015,"x_min":67,"x_max":956,"o":"m 564 981 q 856 877 756 981 q 956 576 956 774 q 877 225 956 367 q 663 31 799 83 l 661 25 l 885 -56 q 902 -67 897 -60 q 907 -89 907 -75 q 896 -196 907 -169 q 869 -222 885 -222 q 519 -82 856 -222 q 279 17 313 4 q 67 393 69 101 q 122 695 67 563 q 288 904 176 828 q 564 981 400 981 m 547 828 q 333 718 413 828 q 254 408 254 608 q 310 208 254 276 q 475 139 367 139 q 690 249 611 139 q 769 560 769 358 q 713 759 769 690 q 547 828 656 828 z "},"R":{"ha":847,"x_min":56,"x_max":779,"o":"m 461 972 q 779 751 779 972 q 728 590 779 657 q 592 490 678 522 l 592 485 q 644 435 621 474 q 685 340 668 397 l 772 47 l 775 25 q 699 -3 772 -3 l 657 -3 q 588 24 597 -3 l 508 296 q 457 375 489 353 q 354 397 425 397 l 275 397 l 236 36 q 160 -3 232 -3 l 126 -3 q 72 7 88 -3 q 56 36 56 17 l 149 922 q 165 960 151 949 q 204 972 178 972 l 461 972 m 319 818 l 292 554 l 442 554 q 546 600 501 554 q 590 708 590 646 q 556 790 590 761 q 460 818 522 818 l 319 818 z "},"Ŕ":{"ha":847,"x_min":56,"x_max":779,"o":"m 56 0 m 461 972 q 779 751 779 972 q 728 590 779 657 q 592 490 678 522 l 592 485 q 644 435 621 474 q 685 340 668 397 l 772 47 l 775 25 q 699 -3 772 -3 l 657 -3 q 588 24 597 -3 l 508 296 q 457 375 489 353 q 354 397 425 397 l 275 397 l 236 36 q 160 -3 232 -3 l 126 -3 q 72 7 88 -3 q 56 36 56 17 l 149 922 q 165 960 151 949 q 204 972 178 972 l 461 972 m 319 818 l 292 554 l 442 554 q 546 600 501 554 q 590 708 590 646 q 556 790 590 761 q 460 818 522 818 l 319 818 m 592 1264 q 667 1247 667 1264 q 657 1227 667 1238 q 603 1171 647 1217 q 511 1081 581 1150 q 415 1050 481 1050 q 386 1053 394 1050 q 378 1065 378 1057 q 388 1089 378 1072 q 418 1133 399 1106 q 443 1170 428 1147 q 481 1228 458 1193 q 592 1264 506 1264 z "},"Ř":{"ha":847,"x_min":56,"x_max":779,"o":"m 56 0 m 461 972 q 779 751 779 972 q 728 590 779 657 q 592 490 678 522 l 592 485 q 644 435 621 474 q 685 340 668 397 l 772 47 l 775 25 q 699 -3 772 -3 l 657 -3 q 588 24 597 -3 l 508 296 q 457 375 489 353 q 354 397 425 397 l 275 397 l 236 36 q 160 -3 232 -3 l 126 -3 q 72 7 88 -3 q 56 36 56 17 l 149 922 q 165 960 151 949 q 204 972 178 972 l 461 972 m 319 818 l 292 554 l 442 554 q 546 600 501 554 q 590 708 590 646 q 556 790 590 761 q 460 818 522 818 l 319 818 m 625 1246 q 653 1231 653 1246 q 643 1208 653 1219 l 543 1074 q 512 1051 531 1057 q 463 1046 493 1046 l 440 1046 q 393 1051 411 1046 q 367 1074 375 1057 l 294 1208 q 290 1228 290 1219 q 319 1246 290 1246 l 340 1246 q 413 1218 392 1246 l 463 1146 l 525 1218 q 558 1240 539 1235 q 603 1246 576 1246 l 625 1246 z "},"Ŗ":{"ha":847,"x_min":56,"x_max":779,"o":"m 56 0 m 461 972 q 779 751 779 972 q 728 590 779 657 q 592 490 678 522 l 592 485 q 644 435 621 474 q 685 340 668 397 l 772 47 l 775 25 q 699 -3 772 -3 l 657 -3 q 588 24 597 -3 l 508 296 q 457 375 489 353 q 354 397 425 397 l 275 397 l 236 36 q 160 -3 232 -3 l 126 -3 q 72 7 88 -3 q 56 36 56 17 l 149 922 q 165 960 151 949 q 204 972 178 972 l 461 972 m 319 818 l 292 554 l 442 554 q 546 600 501 554 q 590 708 590 646 q 556 790 590 761 q 460 818 522 818 l 319 818 m 392 -71 q 450 -124 450 -71 q 419 -214 450 -165 q 346 -297 388 -262 q 281 -331 304 -331 q 245 -324 261 -331 q 229 -306 229 -318 q 238 -282 229 -296 q 247 -265 246 -268 q 278 -201 267 -232 q 290 -126 290 -171 q 311 -86 290 -101 q 369 -71 332 -71 l 392 -71 z "},"Ṛ":{"ha":847,"x_min":56,"x_max":779,"o":"m 56 0 m 461 972 q 779 751 779 972 q 728 590 779 657 q 592 490 678 522 l 592 485 q 644 435 621 474 q 685 340 668 397 l 772 47 l 775 25 q 699 -3 772 -3 l 657 -3 q 588 24 597 -3 l 508 296 q 457 375 489 353 q 354 397 425 397 l 275 397 l 236 36 q 160 -3 232 -3 l 126 -3 q 72 7 88 -3 q 56 36 56 17 l 149 922 q 165 960 151 949 q 204 972 178 972 l 461 972 m 319 818 l 292 554 l 442 554 q 546 600 501 554 q 590 708 590 646 q 556 790 590 761 q 460 818 522 818 l 319 818 m 369 -111 q 423 -121 407 -111 q 439 -150 439 -131 l 431 -229 q 351 -268 424 -268 q 297 -259 313 -268 q 282 -229 282 -250 l 290 -150 q 369 -111 294 -111 z "},"S":{"ha":694,"x_min":42,"x_max":660,"o":"m 426 982 q 543 969 489 982 q 628 935 597 956 q 660 893 660 914 q 632 828 660 869 q 585 786 604 786 q 560 794 582 786 q 500 819 531 810 q 425 828 469 828 q 305 794 344 828 q 265 711 265 761 q 301 628 265 658 q 408 564 336 599 q 527 499 481 531 q 607 415 574 468 q 640 282 640 363 q 594 122 640 188 q 469 23 547 56 q 294 -10 390 -10 q 122 17 203 -10 q 42 99 42 43 q 72 221 42 221 q 111 201 82 221 q 289 144 199 144 q 405 176 357 144 q 453 269 453 208 q 432 338 453 308 q 381 385 411 367 q 297 431 350 404 q 184 495 228 465 q 109 576 140 525 q 78 701 78 626 q 126 856 78 793 q 254 951 175 919 q 426 982 333 982 z "},"Ś":{"ha":694,"x_min":42,"x_max":660,"o":"m 42 0 m 426 982 q 543 969 489 982 q 628 935 597 956 q 660 893 660 914 q 632 828 660 869 q 585 786 604 786 q 560 794 582 786 q 500 819 531 810 q 425 828 469 828 q 305 794 344 828 q 265 711 265 761 q 301 628 265 658 q 408 564 336 599 q 527 499 481 531 q 607 415 574 468 q 640 282 640 363 q 594 122 640 188 q 469 23 547 56 q 294 -10 390 -10 q 122 17 203 -10 q 42 99 42 43 q 72 221 42 221 q 111 201 82 221 q 289 144 199 144 q 405 176 357 144 q 453 269 453 208 q 432 338 453 308 q 381 385 411 367 q 297 431 350 404 q 184 495 228 465 q 109 576 140 525 q 78 701 78 626 q 126 856 78 793 q 254 951 175 919 q 426 982 333 982 m 551 1264 q 626 1247 626 1264 q 617 1227 626 1238 q 563 1171 607 1217 q 471 1081 540 1150 q 375 1050 440 1050 q 346 1053 354 1050 q 338 1065 338 1057 q 348 1089 338 1072 q 378 1133 358 1106 q 403 1170 388 1147 q 440 1228 418 1193 q 551 1264 465 1264 z "},"Š":{"ha":694,"x_min":42,"x_max":660,"o":"m 42 0 m 426 982 q 543 969 489 982 q 628 935 597 956 q 660 893 660 914 q 632 828 660 869 q 585 786 604 786 q 560 794 582 786 q 500 819 531 810 q 425 828 469 828 q 305 794 344 828 q 265 711 265 761 q 301 628 265 658 q 408 564 336 599 q 527 499 481 531 q 607 415 574 468 q 640 282 640 363 q 594 122 640 188 q 469 23 547 56 q 294 -10 390 -10 q 122 17 203 -10 q 42 99 42 43 q 72 221 42 221 q 111 201 82 221 q 289 144 199 144 q 405 176 357 144 q 453 269 453 208 q 432 338 453 308 q 381 385 411 367 q 297 431 350 404 q 184 495 228 465 q 109 576 140 525 q 78 701 78 626 q 126 856 78 793 q 254 951 175 919 q 426 982 333 982 m 585 1246 q 613 1231 613 1246 q 603 1208 613 1219 l 503 1074 q 472 1051 490 1057 q 422 1046 453 1046 l 400 1046 q 353 1051 371 1046 q 326 1074 335 1057 l 254 1208 q 250 1228 250 1219 q 279 1246 250 1246 l 300 1246 q 372 1218 351 1246 l 422 1146 l 485 1218 q 517 1240 499 1235 q 563 1246 536 1246 l 585 1246 z "},"Ş":{"ha":694,"x_min":42,"x_max":660,"o":"m 408 564 q 527 499 481 531 q 607 415 574 468 q 640 282 640 363 q 561 83 640 157 q 356 -6 482 8 l 336 -56 q 407 -83 375 -60 q 439 -153 439 -107 q 390 -260 439 -226 q 261 -293 340 -293 q 167 -279 213 -293 q 121 -226 121 -265 q 139 -168 121 -168 q 164 -178 143 -168 q 207 -197 185 -189 q 257 -204 229 -204 q 310 -169 310 -204 q 301 -148 310 -156 q 272 -132 292 -140 q 246 -117 254 -124 q 238 -100 238 -111 q 274 -10 238 -93 q 113 21 183 -6 q 42 99 42 47 q 72 221 42 221 q 111 201 82 221 q 289 144 199 144 q 405 176 357 144 q 453 269 453 208 q 432 338 453 308 q 381 385 411 367 q 297 431 350 404 q 184 495 228 465 q 109 576 140 525 q 78 701 78 626 q 126 856 78 793 q 254 951 175 919 q 426 982 333 982 q 543 969 489 982 q 628 935 597 956 q 660 893 660 914 q 632 828 660 869 q 585 786 604 786 q 560 794 582 786 q 500 819 531 810 q 425 828 469 828 q 305 794 344 828 q 265 711 265 761 q 301 628 265 658 q 408 564 336 599 z "},"Ŝ":{"ha":694,"x_min":42,"x_max":660,"o":"m 42 0 m 426 982 q 543 969 489 982 q 628 935 597 956 q 660 893 660 914 q 632 828 660 869 q 585 786 604 786 q 560 794 582 786 q 500 819 531 810 q 425 828 469 828 q 305 794 344 828 q 265 711 265 761 q 301 628 265 658 q 408 564 336 599 q 527 499 481 531 q 607 415 574 468 q 640 282 640 363 q 594 122 640 188 q 469 23 547 56 q 294 -10 390 -10 q 122 17 203 -10 q 42 99 42 43 q 72 221 42 221 q 111 201 82 221 q 289 144 199 144 q 405 176 357 144 q 453 269 453 208 q 432 338 453 308 q 381 385 411 367 q 297 431 350 404 q 184 495 228 465 q 109 576 140 525 q 78 701 78 626 q 126 856 78 793 q 254 951 175 919 q 426 982 333 982 m 439 1243 q 486 1238 468 1243 q 513 1215 504 1232 l 585 1081 q 589 1061 589 1071 q 581 1047 589 1053 q 560 1042 574 1042 l 539 1042 q 467 1069 488 1042 l 417 1143 l 354 1071 q 320 1048 339 1054 q 275 1042 301 1042 l 253 1042 q 226 1057 226 1042 q 236 1081 226 1067 l 336 1215 q 367 1238 347 1232 q 415 1243 386 1243 l 439 1243 z "},"Ș":{"ha":694,"x_min":42,"x_max":660,"o":"m 42 0 m 426 982 q 543 969 489 982 q 628 935 597 956 q 660 893 660 914 q 632 828 660 869 q 585 786 604 786 q 560 794 582 786 q 500 819 531 810 q 425 828 469 828 q 305 794 344 828 q 265 711 265 761 q 301 628 265 658 q 408 564 336 599 q 527 499 481 531 q 607 415 574 468 q 640 282 640 363 q 594 122 640 188 q 469 23 547 56 q 294 -10 390 -10 q 122 17 203 -10 q 42 99 42 43 q 72 221 42 221 q 111 201 82 221 q 289 144 199 144 q 405 176 357 144 q 453 269 453 208 q 432 338 453 308 q 381 385 411 367 q 297 431 350 404 q 184 495 228 465 q 109 576 140 525 q 78 701 78 626 q 126 856 78 793 q 254 951 175 919 q 426 982 333 982 m 325 -71 q 383 -124 383 -71 q 352 -214 383 -165 q 279 -297 321 -262 q 214 -331 238 -331 q 178 -324 194 -331 q 163 -306 163 -318 q 171 -282 163 -296 q 181 -265 179 -268 q 212 -201 200 -232 q 224 -126 224 -171 q 244 -86 224 -101 q 303 -71 265 -71 l 325 -71 z "},"Ṣ":{"ha":694,"x_min":42,"x_max":660,"o":"m 42 0 m 426 982 q 543 969 489 982 q 628 935 597 956 q 660 893 660 914 q 632 828 660 869 q 585 786 604 786 q 560 794 582 786 q 500 819 531 810 q 425 828 469 828 q 305 794 344 828 q 265 711 265 761 q 301 628 265 658 q 408 564 336 599 q 527 499 481 531 q 607 415 574 468 q 640 282 640 363 q 594 122 640 188 q 469 23 547 56 q 294 -10 390 -10 q 122 17 203 -10 q 42 99 42 43 q 72 221 42 221 q 111 201 82 221 q 289 144 199 144 q 405 176 357 144 q 453 269 453 208 q 432 338 453 308 q 381 385 411 367 q 297 431 350 404 q 184 495 228 465 q 109 576 140 525 q 78 701 78 626 q 126 856 78 793 q 254 951 175 919 q 426 982 333 982 m 303 -111 q 356 -121 340 -111 q 372 -150 372 -131 l 364 -229 q 285 -268 357 -268 q 231 -259 246 -268 q 215 -229 215 -250 l 224 -150 q 303 -111 228 -111 z "},"ẞ":{"ha":972,"x_min":68,"x_max":922,"o":"m 560 982 q 879 944 739 982 q 906 903 893 939 q 918 843 918 868 q 913 821 918 829 l 711 551 q 874 462 826 518 q 922 319 922 406 q 874 140 922 214 q 745 28 825 65 q 574 -10 665 -10 q 437 7 506 -10 q 367 71 368 24 q 396 183 367 183 q 424 168 399 183 q 484 141 449 153 q 564 129 519 129 q 693 176 640 129 q 746 313 746 222 q 589 440 746 433 l 542 440 q 515 478 526 440 q 503 542 503 515 q 508 564 503 556 l 697 815 q 538 828 610 828 q 376 767 433 828 q 308 597 318 707 l 250 36 q 174 -3 246 -3 l 138 -3 q 68 36 68 -3 l 126 590 q 246 875 143 768 q 560 982 349 982 z "},"Ə":{"ha":933,"x_min":85,"x_max":861,"o":"m 475 982 q 759 890 657 982 q 861 607 861 799 q 805 273 861 411 q 647 64 749 135 q 410 -7 546 -7 q 217 38 289 -7 q 115 146 144 82 q 85 271 85 210 q 141 465 85 389 q 287 574 197 540 q 481 608 376 608 q 685 599 593 608 q 625 790 683 738 q 454 843 567 843 q 323 822 381 843 q 204 769 265 801 q 164 751 172 751 q 156 754 158 751 q 154 769 154 757 q 157 813 154 782 q 164 860 160 844 q 229 931 175 903 q 351 970 283 958 q 475 982 419 982 m 529 485 q 336 434 417 485 q 256 292 256 383 q 301 174 256 217 q 424 132 347 132 q 676 485 629 132 l 529 485 z "},"T":{"ha":763,"x_min":54,"x_max":789,"o":"m 758 972 q 789 926 789 972 q 779 847 789 875 q 743 818 769 818 l 506 818 l 424 36 q 347 -3 419 -3 l 311 -3 q 242 36 242 -3 l 325 818 l 86 818 q 62 829 69 818 q 54 864 54 840 q 64 943 54 914 q 100 972 74 972 l 758 972 z "},"Ŧ":{"ha":763,"x_min":54,"x_max":789,"o":"m 758 972 q 789 926 789 972 q 779 847 789 875 q 743 818 769 818 l 506 818 l 478 549 l 636 549 q 668 508 668 549 q 659 453 668 479 q 622 428 650 428 l 465 428 l 424 36 q 347 -3 419 -3 l 311 -3 q 242 36 242 -3 l 283 428 l 124 428 q 99 438 107 428 q 92 468 92 447 q 136 549 92 549 l 296 549 l 325 818 l 86 818 q 62 829 69 818 q 54 864 54 840 q 64 943 54 914 q 100 972 74 972 l 758 972 z "},"Ť":{"ha":763,"x_min":54,"x_max":789,"o":"m 54 0 m 758 972 q 789 926 789 972 q 779 847 789 875 q 743 818 769 818 l 506 818 l 424 36 q 347 -3 419 -3 l 311 -3 q 242 36 242 -3 l 325 818 l 86 818 q 62 829 69 818 q 54 864 54 840 q 64 943 54 914 q 100 972 74 972 l 758 972 m 606 1246 q 633 1231 633 1246 q 624 1208 633 1219 l 524 1074 q 492 1051 511 1057 q 443 1046 474 1046 l 421 1046 q 374 1051 392 1046 q 347 1074 356 1057 l 275 1208 q 271 1228 271 1219 q 300 1246 271 1246 l 321 1246 q 393 1218 372 1246 l 443 1146 l 506 1218 q 538 1240 519 1235 q 583 1246 557 1246 l 606 1246 z "},"Ţ":{"ha":763,"x_min":54,"x_max":789,"o":"m 758 972 q 789 926 789 972 q 779 847 789 875 q 743 818 769 818 l 506 818 l 424 36 q 361 -3 419 1 l 340 -57 q 411 -85 379 -61 q 443 -154 443 -108 q 394 -261 443 -228 q 265 -294 344 -294 q 171 -281 217 -294 q 125 -228 125 -267 q 143 -169 125 -169 q 168 -180 147 -169 q 211 -198 189 -190 q 261 -206 233 -206 q 314 -171 314 -206 q 305 -149 314 -157 q 276 -133 296 -142 q 250 -119 258 -125 q 242 -101 242 -112 q 282 0 242 -94 q 242 36 242 7 l 325 818 l 86 818 q 62 829 69 818 q 54 864 54 840 q 64 943 54 914 q 100 972 74 972 l 758 972 z "},"Ț":{"ha":763,"x_min":54,"x_max":789,"o":"m 54 0 m 758 972 q 789 926 789 972 q 779 847 789 875 q 743 818 769 818 l 506 818 l 424 36 q 347 -3 419 -3 l 311 -3 q 242 36 242 -3 l 325 818 l 86 818 q 62 829 69 818 q 54 864 54 840 q 64 943 54 914 q 100 972 74 972 l 758 972 m 329 -72 q 388 -125 388 -72 q 356 -215 388 -167 q 283 -298 325 -264 q 218 -332 242 -332 q 183 -326 199 -332 q 167 -307 167 -319 q 175 -283 167 -297 q 185 -267 183 -269 q 216 -203 204 -233 q 228 -128 228 -172 q 249 -87 228 -103 q 307 -72 269 -72 l 329 -72 z "},"Ṭ":{"ha":763,"x_min":54,"x_max":789,"o":"m 54 0 m 758 972 q 789 926 789 972 q 779 847 789 875 q 743 818 769 818 l 506 818 l 424 36 q 347 -3 419 -3 l 311 -3 q 242 36 242 -3 l 325 818 l 86 818 q 62 829 69 818 q 54 864 54 840 q 64 943 54 914 q 100 972 74 972 l 758 972 m 307 -112 q 360 -122 344 -112 q 376 -151 376 -132 l 368 -231 q 289 -269 361 -269 q 235 -260 250 -269 q 219 -231 219 -251 l 228 -151 q 307 -112 232 -112 z "},"U":{"ha":989,"x_min":78,"x_max":932,"o":"m 864 975 q 917 965 901 975 q 932 936 932 956 l 868 319 q 740 77 853 164 q 439 -10 626 -10 q 172 65 265 -10 q 78 275 78 139 q 110 597 78 286 q 144 936 125 763 q 222 975 147 975 l 257 975 q 310 965 294 975 q 325 936 325 956 q 260 307 260 321 q 313 190 260 235 q 456 144 365 144 q 616 196 550 144 q 690 328 682 247 l 753 936 q 831 975 757 975 l 864 975 z "},"Ú":{"ha":989,"x_min":78,"x_max":932,"o":"m 78 0 m 864 975 q 917 965 901 975 q 932 936 932 956 l 868 319 q 740 77 853 164 q 439 -10 626 -10 q 172 65 265 -10 q 78 275 78 139 q 110 597 78 286 q 144 936 125 763 q 222 975 147 975 l 257 975 q 310 965 294 975 q 325 936 325 956 q 260 307 260 321 q 313 190 260 235 q 456 144 365 144 q 616 196 550 144 q 690 328 682 247 l 753 936 q 831 975 757 975 l 864 975 m 689 1264 q 764 1247 764 1264 q 754 1227 764 1238 q 700 1171 744 1217 q 608 1081 678 1150 q 513 1050 578 1050 q 483 1053 492 1050 q 475 1065 475 1057 q 485 1089 475 1072 q 515 1133 496 1106 q 540 1170 525 1147 q 578 1228 556 1193 q 689 1264 603 1264 z "},"Ŭ":{"ha":989,"x_min":78,"x_max":932,"o":"m 78 0 m 864 975 q 917 965 901 975 q 932 936 932 956 l 868 319 q 740 77 853 164 q 439 -10 626 -10 q 172 65 265 -10 q 78 275 78 139 q 110 597 78 286 q 144 936 125 763 q 222 975 147 975 l 257 975 q 310 965 294 975 q 325 936 325 956 q 260 307 260 321 q 313 190 260 235 q 456 144 365 144 q 616 196 550 144 q 690 328 682 247 l 753 936 q 831 975 757 975 l 864 975 m 733 1239 q 768 1211 768 1239 q 737 1130 768 1167 q 654 1072 706 1093 q 549 1050 603 1050 q 415 1090 468 1050 q 361 1193 361 1131 q 371 1227 361 1215 q 404 1239 381 1239 q 424 1234 418 1239 q 435 1222 431 1229 q 442 1210 439 1214 q 561 1164 468 1164 q 644 1178 614 1164 q 696 1215 675 1192 q 703 1226 697 1218 q 716 1236 710 1233 q 733 1239 722 1239 z "},"Û":{"ha":989,"x_min":78,"x_max":932,"o":"m 78 0 m 864 975 q 917 965 901 975 q 932 936 932 956 l 868 319 q 740 77 853 164 q 439 -10 626 -10 q 172 65 265 -10 q 78 275 78 139 q 110 597 78 286 q 144 936 125 763 q 222 975 147 975 l 257 975 q 310 965 294 975 q 325 936 325 956 q 260 307 260 321 q 313 190 260 235 q 456 144 365 144 q 616 196 550 144 q 690 328 682 247 l 753 936 q 831 975 757 975 l 864 975 m 576 1243 q 624 1238 606 1243 q 650 1215 642 1232 l 722 1081 q 726 1061 726 1071 q 719 1047 726 1053 q 697 1042 711 1042 l 676 1042 q 604 1069 625 1042 l 554 1143 l 492 1071 q 458 1048 476 1054 q 413 1042 439 1042 l 390 1042 q 364 1057 364 1042 q 374 1081 364 1067 l 474 1215 q 504 1238 485 1232 q 553 1243 524 1243 l 576 1243 z "},"Ü":{"ha":989,"x_min":78,"x_max":932,"o":"m 78 0 m 864 975 q 917 965 901 975 q 932 936 932 956 l 868 319 q 740 77 853 164 q 439 -10 626 -10 q 172 65 265 -10 q 78 275 78 139 q 110 597 78 286 q 144 936 125 763 q 222 975 147 975 l 257 975 q 310 965 294 975 q 325 936 325 956 q 260 307 260 321 q 313 190 260 235 q 456 144 365 144 q 616 196 550 144 q 690 328 682 247 l 753 936 q 831 975 757 975 l 864 975 m 456 1221 q 509 1211 493 1221 q 525 1182 525 1201 l 515 1103 q 438 1064 511 1064 q 383 1073 399 1064 q 367 1103 367 1082 l 376 1182 q 456 1221 381 1221 m 686 1221 q 741 1211 725 1221 q 757 1182 757 1201 l 747 1103 q 668 1064 743 1064 q 614 1073 629 1064 q 599 1103 599 1082 l 608 1182 q 686 1221 611 1221 z "},"Ụ":{"ha":989,"x_min":78,"x_max":932,"o":"m 78 0 m 864 975 q 917 965 901 975 q 932 936 932 956 l 868 319 q 740 77 853 164 q 439 -10 626 -10 q 172 65 265 -10 q 78 275 78 139 q 110 597 78 286 q 144 936 125 763 q 222 975 147 975 l 257 975 q 310 965 294 975 q 325 936 325 956 q 260 307 260 321 q 313 190 260 235 q 456 144 365 144 q 616 196 550 144 q 690 328 682 247 l 753 936 q 831 975 757 975 l 864 975 m 426 -111 q 480 -121 464 -111 q 496 -150 496 -131 l 488 -229 q 408 -268 481 -268 q 354 -259 369 -268 q 339 -229 339 -250 l 347 -150 q 426 -111 351 -111 z "},"Ù":{"ha":989,"x_min":78,"x_max":932,"o":"m 78 0 m 864 975 q 917 965 901 975 q 932 936 932 956 l 868 319 q 740 77 853 164 q 439 -10 626 -10 q 172 65 265 -10 q 78 275 78 139 q 110 597 78 286 q 144 936 125 763 q 222 975 147 975 l 257 975 q 310 965 294 975 q 325 936 325 956 q 260 307 260 321 q 313 190 260 235 q 456 144 365 144 q 616 196 550 144 q 690 328 682 247 l 753 936 q 831 975 757 975 l 864 975 m 447 1264 q 550 1228 532 1264 l 565 1199 q 610 1110 594 1143 q 626 1068 626 1076 q 617 1054 626 1058 q 586 1050 607 1050 q 496 1081 521 1050 l 439 1147 q 385 1214 401 1192 q 368 1244 368 1236 q 387 1260 368 1256 q 447 1264 406 1264 z "},"Ủ":{"ha":989,"x_min":78,"x_max":932,"o":"m 78 0 m 864 975 q 917 965 901 975 q 932 936 932 956 l 868 319 q 740 77 853 164 q 439 -10 626 -10 q 172 65 265 -10 q 78 275 78 139 q 110 597 78 286 q 144 936 125 763 q 222 975 147 975 l 257 975 q 310 965 294 975 q 325 936 325 956 q 260 307 260 321 q 313 190 260 235 q 456 144 365 144 q 616 196 550 144 q 690 328 682 247 l 753 936 q 831 975 757 975 l 864 975 m 604 1176 q 592 1200 604 1192 q 560 1208 581 1208 q 518 1200 536 1208 q 496 1192 500 1192 q 476 1212 488 1192 q 464 1246 464 1232 q 503 1274 464 1260 q 578 1289 542 1289 q 676 1260 638 1289 q 715 1185 715 1232 q 687 1114 715 1149 q 623 1056 658 1079 q 575 1033 588 1033 q 524 1042 543 1033 q 504 1061 504 1050 q 514 1080 504 1071 q 544 1104 524 1089 q 590 1140 575 1125 q 604 1176 604 1156 z "},"Ư":{"ha":989,"x_min":78,"x_max":1078,"o":"m 1078 1056 q 1040 967 1078 1003 q 931 924 1001 932 l 868 319 q 740 77 853 164 q 439 -10 626 -10 q 172 65 265 -10 q 78 275 78 139 q 110 597 78 286 q 144 936 125 763 q 222 975 147 975 l 257 975 q 310 965 294 975 q 325 936 325 956 q 260 307 260 321 q 313 190 260 235 q 456 144 365 144 q 616 196 550 144 q 690 328 682 247 l 753 936 q 831 975 757 975 l 900 975 q 975 1031 975 975 q 958 1074 975 1049 q 946 1101 946 1092 q 963 1125 946 1115 l 1006 1153 q 1026 1160 1017 1160 q 1064 1125 1050 1160 q 1078 1056 1078 1090 z "},"Ứ":{"ha":989,"x_min":78,"x_max":1078,"o":"m 513 1050 q 483 1053 492 1050 q 475 1065 475 1057 q 485 1089 475 1072 q 515 1133 496 1106 q 540 1170 525 1147 q 578 1228 556 1193 q 689 1264 603 1264 q 764 1247 764 1264 q 754 1226 764 1238 q 700 1171 744 1215 q 608 1081 678 1150 q 513 1050 578 1050 m 1078 1056 q 1040 967 1078 1003 q 931 924 1001 932 l 868 319 q 740 77 853 164 q 439 -10 626 -10 q 172 65 265 -10 q 78 275 78 139 q 110 597 78 286 q 144 936 125 763 q 222 975 147 975 l 257 975 q 310 965 294 975 q 325 936 325 956 q 260 307 260 321 q 313 190 260 235 q 456 144 365 144 q 616 196 550 144 q 690 328 682 247 l 753 936 q 831 975 757 975 l 900 975 q 975 1031 975 975 q 958 1074 975 1049 q 946 1101 946 1092 q 963 1125 946 1115 l 1006 1153 q 1026 1160 1017 1160 q 1064 1125 1050 1160 q 1078 1056 1078 1090 z "},"Ự":{"ha":989,"x_min":78,"x_max":1078,"o":"m 1078 1056 q 1040 967 1078 1003 q 931 924 1001 932 l 868 319 q 740 77 853 164 q 439 -10 626 -10 q 172 65 265 -10 q 78 275 78 139 q 110 597 78 286 q 144 936 125 763 q 222 975 147 975 l 257 975 q 310 965 294 975 q 325 936 325 956 q 260 307 260 321 q 313 190 260 235 q 456 144 365 144 q 616 196 550 144 q 690 328 682 247 l 753 936 q 831 975 757 975 l 900 975 q 975 1031 975 975 q 958 1074 975 1049 q 946 1101 946 1092 q 963 1125 946 1115 l 1006 1153 q 1026 1160 1017 1160 q 1064 1125 1050 1160 q 1078 1056 1078 1090 m 426 -111 q 480 -121 464 -111 q 496 -150 496 -131 l 488 -229 q 408 -268 481 -268 q 354 -259 369 -268 q 339 -229 339 -250 l 347 -150 q 426 -111 351 -111 z "},"Ừ":{"ha":989,"x_min":78,"x_max":1078,"o":"m 586 1050 q 496 1081 521 1050 l 439 1147 q 385 1214 401 1192 q 368 1244 368 1236 q 387 1260 368 1256 q 447 1264 406 1264 q 550 1228 532 1264 l 565 1199 q 610 1110 594 1143 q 626 1068 626 1076 q 617 1054 626 1058 q 586 1050 607 1050 m 1078 1056 q 1040 967 1078 1003 q 931 924 1001 932 l 868 319 q 740 77 853 164 q 439 -10 626 -10 q 172 65 265 -10 q 78 275 78 139 q 110 597 78 286 q 144 936 125 763 q 222 975 147 975 l 257 975 q 310 965 294 975 q 325 936 325 956 q 260 307 260 321 q 313 190 260 235 q 456 144 365 144 q 616 196 550 144 q 690 328 682 247 l 753 936 q 831 975 757 975 l 900 975 q 975 1031 975 975 q 958 1074 975 1049 q 946 1101 946 1092 q 963 1125 946 1115 l 1006 1153 q 1026 1160 1017 1160 q 1064 1125 1050 1160 q 1078 1056 1078 1090 z "},"Ử":{"ha":989,"x_min":78,"x_max":1078,"o":"m 496 1192 q 476 1212 488 1192 q 464 1246 464 1232 q 503 1274 464 1260 q 578 1289 542 1289 q 676 1260 638 1289 q 715 1185 715 1232 q 687 1114 715 1149 q 623 1056 658 1079 q 575 1033 588 1033 q 524 1042 543 1033 q 504 1061 504 1050 q 514 1080 504 1071 q 544 1104 524 1089 q 590 1140 575 1125 q 604 1176 604 1156 q 592 1200 604 1192 q 560 1208 581 1208 q 518 1200 536 1208 q 496 1192 500 1192 m 1078 1056 q 1040 967 1078 1003 q 931 924 1001 932 l 868 319 q 740 77 853 164 q 439 -10 626 -10 q 172 65 265 -10 q 78 275 78 139 q 110 597 78 286 q 144 936 125 763 q 222 975 147 975 l 257 975 q 310 965 294 975 q 325 936 325 956 q 260 307 260 321 q 313 190 260 235 q 456 144 365 144 q 616 196 550 144 q 690 328 682 247 l 753 936 q 831 975 757 975 l 900 975 q 975 1031 975 975 q 958 1074 975 1049 q 946 1101 946 1092 q 963 1125 946 1115 l 1006 1153 q 1026 1160 1017 1160 q 1064 1125 1050 1160 q 1078 1056 1078 1090 z "},"Ữ":{"ha":989,"x_min":78,"x_max":1078,"o":"m 329 1063 q 304 1092 304 1071 q 308 1111 304 1101 q 363 1182 326 1156 q 451 1208 399 1208 q 505 1200 472 1208 q 568 1182 538 1192 q 663 1160 635 1161 q 714 1189 692 1160 q 749 1211 731 1211 l 765 1208 l 778 1204 q 804 1175 804 1197 q 800 1156 804 1167 q 745 1084 782 1110 q 658 1058 708 1058 q 542 1083 625 1058 q 488 1099 514 1092 q 444 1106 461 1106 q 393 1076 415 1106 q 360 1054 376 1054 q 343 1057 354 1054 l 329 1063 m 1078 1056 q 1040 967 1078 1003 q 931 924 1001 932 l 868 319 q 740 77 853 164 q 439 -10 626 -10 q 172 65 265 -10 q 78 275 78 139 q 110 597 78 286 q 144 936 125 763 q 222 975 147 975 l 257 975 q 310 965 294 975 q 325 936 325 956 q 260 307 260 321 q 313 190 260 235 q 456 144 365 144 q 616 196 550 144 q 690 328 682 247 l 753 936 q 831 975 757 975 l 900 975 q 975 1031 975 975 q 958 1074 975 1049 q 946 1101 946 1092 q 963 1125 946 1115 l 1006 1153 q 1026 1160 1017 1160 q 1064 1125 1050 1160 q 1078 1056 1078 1090 z "},"Ű":{"ha":989,"x_min":78,"x_max":932,"o":"m 78 0 m 864 975 q 917 965 901 975 q 932 936 932 956 l 868 319 q 740 77 853 164 q 439 -10 626 -10 q 172 65 265 -10 q 78 275 78 139 q 110 597 78 286 q 144 936 125 763 q 222 975 147 975 l 257 975 q 310 965 294 975 q 325 936 325 956 q 260 307 260 321 q 313 190 260 235 q 456 144 365 144 q 616 196 550 144 q 690 328 682 247 l 753 936 q 831 975 757 975 l 864 975 m 599 1264 q 656 1260 638 1264 q 674 1247 674 1257 q 663 1225 674 1238 q 599 1160 651 1213 q 518 1081 578 1140 q 422 1050 488 1050 q 393 1053 401 1050 q 385 1065 385 1057 q 395 1089 385 1072 q 425 1133 406 1106 q 450 1170 435 1147 q 488 1228 465 1193 q 599 1264 513 1264 m 833 1264 q 908 1247 908 1264 q 899 1227 908 1238 q 844 1171 889 1217 q 753 1081 822 1150 q 657 1050 722 1050 q 628 1053 636 1050 q 619 1065 619 1057 q 630 1089 619 1072 q 660 1133 640 1106 q 685 1170 669 1147 q 722 1228 700 1193 q 833 1264 747 1264 z "},"Ū":{"ha":989,"x_min":78,"x_max":932,"o":"m 78 0 m 864 975 q 917 965 901 975 q 932 936 932 956 l 868 319 q 740 77 853 164 q 439 -10 626 -10 q 172 65 265 -10 q 78 275 78 139 q 110 597 78 286 q 144 936 125 763 q 222 975 147 975 l 257 975 q 310 965 294 975 q 325 936 325 956 q 260 307 260 321 q 313 190 260 235 q 456 144 365 144 q 616 196 550 144 q 690 328 682 247 l 753 936 q 831 975 757 975 l 864 975 m 718 1203 q 750 1163 750 1203 q 741 1108 750 1133 q 704 1082 732 1082 l 400 1082 q 376 1092 383 1082 q 368 1122 368 1101 q 413 1203 368 1203 l 718 1203 z "},"Ų":{"ha":989,"x_min":78,"x_max":932,"o":"m 864 975 q 917 965 901 975 q 932 936 932 956 l 868 319 q 775 109 856 192 q 560 1 694 26 l 560 -1 q 550 -33 560 -14 q 535 -97 535 -69 q 558 -145 535 -133 q 615 -157 582 -157 q 668 -147 642 -157 q 699 -136 694 -136 q 708 -143 706 -136 q 711 -168 711 -150 q 676 -235 711 -217 q 589 -254 640 -254 q 471 -217 503 -254 q 439 -131 439 -179 q 449 -67 439 -103 q 479 -8 460 -32 q 439 -10 465 -10 q 172 65 265 -10 q 78 275 78 139 q 110 597 78 286 q 144 936 125 763 q 222 975 147 975 l 257 975 q 310 965 294 975 q 325 936 325 956 q 260 307 260 321 q 313 190 260 235 q 456 144 365 144 q 616 196 550 144 q 690 328 682 247 l 753 936 q 831 975 757 975 l 864 975 z "},"Ů":{"ha":989,"x_min":78,"x_max":932,"o":"m 78 0 m 864 975 q 917 965 901 975 q 932 936 932 956 l 868 319 q 740 77 853 164 q 439 -10 626 -10 q 172 65 265 -10 q 78 275 78 139 q 110 597 78 286 q 144 936 125 763 q 222 975 147 975 l 257 975 q 310 965 294 975 q 325 936 325 956 q 260 307 260 321 q 313 190 260 235 q 456 144 365 144 q 616 196 550 144 q 690 328 682 247 l 753 936 q 831 975 757 975 l 864 975 m 569 1278 q 654 1244 621 1278 q 688 1161 688 1211 q 647 1058 688 1100 q 543 1017 607 1017 q 458 1050 492 1017 q 425 1133 425 1083 q 466 1236 425 1194 q 569 1278 507 1278 m 563 1204 q 518 1185 538 1204 q 499 1140 499 1167 q 513 1103 499 1118 q 550 1089 528 1089 q 595 1107 576 1089 q 614 1151 614 1125 q 599 1189 614 1174 q 563 1204 585 1204 z "},"Ũ":{"ha":989,"x_min":78,"x_max":932,"o":"m 78 0 m 864 975 q 917 965 901 975 q 932 936 932 956 l 868 319 q 740 77 853 164 q 439 -10 626 -10 q 172 65 265 -10 q 78 275 78 139 q 110 597 78 286 q 144 936 125 763 q 222 975 147 975 l 257 975 q 310 965 294 975 q 325 936 325 956 q 260 307 260 321 q 313 190 260 235 q 456 144 365 144 q 616 196 550 144 q 690 328 682 247 l 753 936 q 831 975 757 975 l 864 975 m 450 1208 q 503 1200 471 1208 q 567 1182 536 1192 q 661 1160 633 1161 q 713 1189 690 1160 q 747 1211 729 1211 l 764 1208 l 776 1204 q 803 1175 803 1197 q 799 1156 803 1167 q 744 1084 781 1110 q 657 1058 707 1058 q 540 1083 624 1058 q 486 1099 513 1092 q 443 1106 460 1106 q 392 1076 414 1106 q 358 1054 375 1054 q 342 1057 353 1054 l 328 1063 q 303 1092 303 1071 q 307 1111 303 1101 q 361 1182 325 1156 q 450 1208 397 1208 z "},"V":{"ha":857,"x_min":63,"x_max":885,"o":"m 814 975 q 885 946 885 975 q 879 924 885 935 l 479 24 q 407 -3 467 -3 l 344 -3 q 278 24 283 -3 q 104 763 136 621 q 63 939 63 935 q 140 975 63 975 l 175 975 q 243 942 236 975 l 389 290 l 397 232 l 401 232 l 424 292 l 708 942 q 735 967 715 958 q 783 975 756 975 l 814 975 z "},"W":{"ha":1225,"x_min":50,"x_max":1268,"o":"m 1194 975 q 1268 944 1268 975 q 1228 828 1268 939 q 1082 425 1189 718 q 938 24 1011 226 q 913 4 932 11 q 867 -3 893 -3 l 781 -3 q 734 4 753 -3 q 714 24 715 11 l 643 518 l 629 661 l 583 515 l 407 24 q 382 4 401 11 q 336 -3 363 -3 l 251 -3 q 185 24 186 -3 l 50 936 q 69 965 50 956 q 131 975 89 975 l 158 975 q 235 939 229 975 l 308 407 l 328 232 l 388 408 l 578 947 q 601 969 583 963 q 649 975 618 975 l 690 975 q 757 947 753 975 l 832 406 q 846 290 835 388 q 849 260 847 276 q 853 226 850 243 l 914 410 l 1099 939 q 1182 975 1111 975 l 1194 975 z "},"Ẃ":{"ha":1225,"x_min":50,"x_max":1268,"o":"m 50 0 m 1194 975 q 1268 944 1268 975 q 1228 828 1268 939 q 1082 425 1189 718 q 938 24 1011 226 q 913 4 932 11 q 867 -3 893 -3 l 781 -3 q 734 4 753 -3 q 714 24 715 11 l 643 518 l 629 661 l 583 515 l 407 24 q 382 4 401 11 q 336 -3 363 -3 l 251 -3 q 185 24 186 -3 l 50 936 q 69 965 50 956 q 131 975 89 975 l 158 975 q 235 939 229 975 l 308 407 l 328 232 l 388 408 l 578 947 q 601 969 583 963 q 649 975 618 975 l 690 975 q 757 947 753 975 l 832 406 q 846 290 835 388 q 849 260 847 276 q 853 226 850 243 l 914 410 l 1099 939 q 1182 975 1111 975 l 1194 975 m 814 1264 q 889 1247 889 1264 q 879 1227 889 1238 q 825 1171 869 1217 q 733 1081 803 1150 q 638 1050 703 1050 q 608 1053 617 1050 q 600 1065 600 1057 q 610 1089 600 1072 q 640 1133 621 1106 q 665 1170 650 1147 q 703 1228 681 1193 q 814 1264 728 1264 z "},"Ŵ":{"ha":1225,"x_min":50,"x_max":1268,"o":"m 50 0 m 1194 975 q 1268 944 1268 975 q 1228 828 1268 939 q 1082 425 1189 718 q 938 24 1011 226 q 913 4 932 11 q 867 -3 893 -3 l 781 -3 q 734 4 753 -3 q 714 24 715 11 l 643 518 l 629 661 l 583 515 l 407 24 q 382 4 401 11 q 336 -3 363 -3 l 251 -3 q 185 24 186 -3 l 50 936 q 69 965 50 956 q 131 975 89 975 l 158 975 q 235 939 229 975 l 308 407 l 328 232 l 388 408 l 578 947 q 601 969 583 963 q 649 975 618 975 l 690 975 q 757 947 753 975 l 832 406 q 846 290 835 388 q 849 260 847 276 q 853 226 850 243 l 914 410 l 1099 939 q 1182 975 1111 975 l 1194 975 m 701 1243 q 749 1238 731 1243 q 775 1215 767 1232 l 847 1081 q 851 1061 851 1071 q 844 1047 851 1053 q 822 1042 836 1042 l 801 1042 q 729 1069 750 1042 l 679 1143 l 617 1071 q 583 1048 601 1054 q 538 1042 564 1042 l 515 1042 q 489 1057 489 1042 q 499 1081 489 1067 l 599 1215 q 629 1238 610 1232 q 678 1243 649 1243 l 701 1243 z "},"Ẅ":{"ha":1225,"x_min":50,"x_max":1268,"o":"m 50 0 m 1194 975 q 1268 944 1268 975 q 1228 828 1268 939 q 1082 425 1189 718 q 938 24 1011 226 q 913 4 932 11 q 867 -3 893 -3 l 781 -3 q 734 4 753 -3 q 714 24 715 11 l 643 518 l 629 661 l 583 515 l 407 24 q 382 4 401 11 q 336 -3 363 -3 l 251 -3 q 185 24 186 -3 l 50 936 q 69 965 50 956 q 131 975 89 975 l 158 975 q 235 939 229 975 l 308 407 l 328 232 l 388 408 l 578 947 q 601 969 583 963 q 649 975 618 975 l 690 975 q 757 947 753 975 l 832 406 q 846 290 835 388 q 849 260 847 276 q 853 226 850 243 l 914 410 l 1099 939 q 1182 975 1111 975 l 1194 975 m 581 1221 q 634 1211 618 1221 q 650 1182 650 1201 l 640 1103 q 563 1064 636 1064 q 508 1073 524 1064 q 492 1103 492 1082 l 501 1182 q 581 1221 506 1221 m 811 1221 q 866 1211 850 1221 q 882 1182 882 1201 l 872 1103 q 793 1064 868 1064 q 739 1073 754 1064 q 724 1103 724 1082 l 733 1182 q 811 1221 736 1221 z "},"Ẁ":{"ha":1225,"x_min":50,"x_max":1268,"o":"m 50 0 m 1194 975 q 1268 944 1268 975 q 1228 828 1268 939 q 1082 425 1189 718 q 938 24 1011 226 q 913 4 932 11 q 867 -3 893 -3 l 781 -3 q 734 4 753 -3 q 714 24 715 11 l 643 518 l 629 661 l 583 515 l 407 24 q 382 4 401 11 q 336 -3 363 -3 l 251 -3 q 185 24 186 -3 l 50 936 q 69 965 50 956 q 131 975 89 975 l 158 975 q 235 939 229 975 l 308 407 l 328 232 l 388 408 l 578 947 q 601 969 583 963 q 649 975 618 975 l 690 975 q 757 947 753 975 l 832 406 q 846 290 835 388 q 849 260 847 276 q 853 226 850 243 l 914 410 l 1099 939 q 1182 975 1111 975 l 1194 975 m 572 1264 q 675 1228 657 1264 l 690 1199 q 735 1110 719 1143 q 751 1068 751 1076 q 742 1054 751 1058 q 711 1050 732 1050 q 621 1081 646 1050 l 564 1147 q 510 1214 526 1192 q 493 1244 493 1236 q 512 1260 493 1256 q 572 1264 531 1264 z "},"X":{"ha":849,"x_min":-36,"x_max":850,"o":"m 775 975 q 830 970 810 975 q 850 949 850 965 q 836 918 850 939 l 525 508 l 767 54 q 775 29 775 35 q 754 4 775 11 q 696 -3 733 -3 l 653 -3 q 604 3 621 -3 q 581 22 588 8 l 404 350 l 154 21 q 125 2 143 7 q 76 -3 107 -3 l 39 -3 q -17 2 3 -3 q -36 24 -36 7 q -21 54 -36 38 l 321 507 l 101 918 q 93 944 93 935 q 113 969 93 963 q 174 975 133 975 l 217 975 q 263 969 246 975 q 289 950 281 964 l 442 664 l 660 951 q 689 970 671 965 q 738 975 707 975 l 775 975 z "},"Y":{"ha":776,"x_min":56,"x_max":822,"o":"m 750 975 q 822 949 822 975 q 807 918 822 938 l 479 474 l 433 36 q 356 -3 429 -3 l 322 -3 q 268 7 283 -3 q 253 36 253 17 l 299 478 l 64 918 q 56 944 56 933 q 76 969 56 963 q 135 975 96 975 l 179 975 q 251 950 239 975 l 410 638 l 636 951 q 714 975 653 975 l 750 975 z "},"Ý":{"ha":776,"x_min":56,"x_max":822,"o":"m 56 0 m 750 975 q 822 949 822 975 q 807 918 822 938 l 479 474 l 433 36 q 356 -3 429 -3 l 322 -3 q 268 7 283 -3 q 253 36 253 17 l 299 478 l 64 918 q 56 944 56 933 q 76 969 56 963 q 135 975 96 975 l 179 975 q 251 950 239 975 l 410 638 l 636 951 q 714 975 653 975 l 750 975 m 583 1264 q 658 1247 658 1264 q 649 1227 658 1238 q 594 1171 639 1217 q 503 1081 572 1150 q 407 1050 472 1050 q 378 1053 386 1050 q 369 1065 369 1057 q 380 1089 369 1072 q 410 1133 390 1106 q 435 1170 419 1147 q 472 1228 450 1193 q 583 1264 497 1264 z "},"Ŷ":{"ha":776,"x_min":56,"x_max":822,"o":"m 56 0 m 750 975 q 822 949 822 975 q 807 918 822 938 l 479 474 l 433 36 q 356 -3 429 -3 l 322 -3 q 268 7 283 -3 q 253 36 253 17 l 299 478 l 64 918 q 56 944 56 933 q 76 969 56 963 q 135 975 96 975 l 179 975 q 251 950 239 975 l 410 638 l 636 951 q 714 975 653 975 l 750 975 m 471 1243 q 518 1238 500 1243 q 544 1215 536 1232 l 617 1081 q 621 1061 621 1071 q 613 1047 621 1053 q 592 1042 606 1042 l 571 1042 q 499 1069 519 1042 l 449 1143 l 386 1071 q 352 1048 371 1054 q 307 1042 333 1042 l 285 1042 q 258 1057 258 1042 q 268 1081 258 1067 l 368 1215 q 399 1238 379 1232 q 447 1243 418 1243 l 471 1243 z "},"Ÿ":{"ha":776,"x_min":56,"x_max":822,"o":"m 56 0 m 750 975 q 822 949 822 975 q 807 918 822 938 l 479 474 l 433 36 q 356 -3 429 -3 l 322 -3 q 268 7 283 -3 q 253 36 253 17 l 299 478 l 64 918 q 56 944 56 933 q 76 969 56 963 q 135 975 96 975 l 179 975 q 251 950 239 975 l 410 638 l 636 951 q 714 975 653 975 l 750 975 m 350 1221 q 403 1211 388 1221 q 419 1182 419 1201 l 410 1103 q 332 1064 406 1064 q 277 1073 293 1064 q 261 1103 261 1082 l 271 1182 q 350 1221 275 1221 m 581 1221 q 635 1211 619 1221 q 651 1182 651 1201 l 642 1103 q 563 1064 638 1064 q 508 1073 524 1064 q 493 1103 493 1082 l 503 1182 q 581 1221 506 1221 z "},"Ỵ":{"ha":776,"x_min":56,"x_max":822,"o":"m 56 0 m 750 975 q 822 949 822 975 q 807 918 822 938 l 479 474 l 433 36 q 356 -3 429 -3 l 322 -3 q 268 7 283 -3 q 253 36 253 17 l 299 478 l 64 918 q 56 944 56 933 q 76 969 56 963 q 135 975 96 975 l 179 975 q 251 950 239 975 l 410 638 l 636 951 q 714 975 653 975 l 750 975 m 325 -111 q 378 -121 363 -111 q 394 -150 394 -131 l 386 -229 q 307 -268 379 -268 q 253 -259 268 -268 q 238 -229 238 -250 l 246 -150 q 325 -111 250 -111 z "},"Ỳ":{"ha":776,"x_min":56,"x_max":822,"o":"m 56 0 m 750 975 q 822 949 822 975 q 807 918 822 938 l 479 474 l 433 36 q 356 -3 429 -3 l 322 -3 q 268 7 283 -3 q 253 36 253 17 l 299 478 l 64 918 q 56 944 56 933 q 76 969 56 963 q 135 975 96 975 l 179 975 q 251 950 239 975 l 410 638 l 636 951 q 714 975 653 975 l 750 975 m 342 1264 q 444 1228 426 1264 l 460 1199 q 505 1110 489 1143 q 521 1068 521 1076 q 511 1054 521 1058 q 481 1050 501 1050 q 390 1081 415 1050 l 333 1147 q 279 1214 296 1192 q 263 1244 263 1236 q 281 1260 263 1256 q 342 1264 300 1264 z "},"Ỷ":{"ha":776,"x_min":56,"x_max":822,"o":"m 56 0 m 750 975 q 822 949 822 975 q 807 918 822 938 l 479 474 l 433 36 q 356 -3 429 -3 l 322 -3 q 268 7 283 -3 q 253 36 253 17 l 299 478 l 64 918 q 56 944 56 933 q 76 969 56 963 q 135 975 96 975 l 179 975 q 251 950 239 975 l 410 638 l 636 951 q 714 975 653 975 l 750 975 m 499 1176 q 487 1200 499 1192 q 454 1208 475 1208 q 413 1200 431 1208 q 390 1192 394 1192 q 370 1212 382 1192 q 358 1246 358 1232 q 397 1274 358 1260 q 472 1289 436 1289 q 571 1260 532 1289 q 610 1185 610 1232 q 581 1114 610 1149 q 517 1056 553 1079 q 469 1033 482 1033 q 418 1042 438 1033 q 399 1061 399 1050 q 408 1080 399 1071 q 439 1104 418 1089 q 484 1140 469 1125 q 499 1176 499 1156 z "},"Ỹ":{"ha":776,"x_min":56,"x_max":822,"o":"m 56 0 m 750 975 q 822 949 822 975 q 807 918 822 938 l 479 474 l 433 36 q 356 -3 429 -3 l 322 -3 q 268 7 283 -3 q 253 36 253 17 l 299 478 l 64 918 q 56 944 56 933 q 76 969 56 963 q 135 975 96 975 l 179 975 q 251 950 239 975 l 410 638 l 636 951 q 714 975 653 975 l 750 975 m 344 1208 q 398 1200 365 1208 q 461 1182 431 1192 q 556 1160 528 1161 q 607 1189 585 1160 q 642 1211 624 1211 l 658 1208 l 671 1204 q 697 1175 697 1197 q 693 1156 697 1167 q 638 1084 675 1110 q 551 1058 601 1058 q 435 1083 518 1058 q 381 1099 407 1092 q 338 1106 354 1106 q 286 1076 308 1106 q 253 1054 269 1054 q 236 1057 247 1054 l 222 1063 q 197 1092 197 1071 q 201 1111 197 1101 q 256 1182 219 1156 q 344 1208 292 1208 z "},"Z":{"ha":856,"x_min":4,"x_max":838,"o":"m 801 972 q 826 937 815 972 q 838 871 838 901 q 833 849 838 856 l 258 154 l 726 154 q 751 143 743 154 q 758 108 758 132 q 748 29 758 58 q 711 0 738 0 l 42 0 q 16 36 28 0 q 4 101 4 72 q 10 124 4 118 l 582 818 l 154 818 q 130 829 138 818 q 122 864 122 840 q 133 943 122 914 q 169 972 143 972 l 801 972 z "},"Ź":{"ha":856,"x_min":4,"x_max":838,"o":"m 4 0 m 801 972 q 826 937 815 972 q 838 871 838 901 q 833 849 838 856 l 258 154 l 726 154 q 751 143 743 154 q 758 108 758 132 q 748 29 758 58 q 711 0 738 0 l 42 0 q 16 36 28 0 q 4 101 4 72 q 10 124 4 118 l 582 818 l 154 818 q 130 829 138 818 q 122 864 122 840 q 133 943 122 914 q 169 972 143 972 l 801 972 m 608 1264 q 683 1247 683 1264 q 674 1227 683 1238 q 619 1171 664 1217 q 528 1081 597 1150 q 432 1050 497 1050 q 403 1053 411 1050 q 394 1065 394 1057 q 405 1089 394 1072 q 435 1133 415 1106 q 460 1170 444 1147 q 497 1228 475 1193 q 608 1264 522 1264 z "},"Ž":{"ha":856,"x_min":4,"x_max":838,"o":"m 4 0 m 801 972 q 826 937 815 972 q 838 871 838 901 q 833 849 838 856 l 258 154 l 726 154 q 751 143 743 154 q 758 108 758 132 q 748 29 758 58 q 711 0 738 0 l 42 0 q 16 36 28 0 q 4 101 4 72 q 10 124 4 118 l 582 818 l 154 818 q 130 829 138 818 q 122 864 122 840 q 133 943 122 914 q 169 972 143 972 l 801 972 m 642 1246 q 669 1231 669 1246 q 660 1208 669 1219 l 560 1074 q 528 1051 547 1057 q 479 1046 510 1046 l 457 1046 q 410 1051 428 1046 q 383 1074 392 1057 l 311 1208 q 307 1228 307 1219 q 336 1246 307 1246 l 357 1246 q 429 1218 408 1246 l 479 1146 l 542 1218 q 574 1240 556 1235 q 619 1246 593 1246 l 642 1246 z "},"Ż":{"ha":856,"x_min":4,"x_max":838,"o":"m 4 0 m 801 972 q 826 937 815 972 q 838 871 838 901 q 833 849 838 856 l 258 154 l 726 154 q 751 143 743 154 q 758 108 758 132 q 748 29 758 58 q 711 0 738 0 l 42 0 q 16 36 28 0 q 4 101 4 72 q 10 124 4 118 l 582 818 l 154 818 q 130 829 138 818 q 122 864 122 840 q 133 943 122 914 q 169 972 143 972 l 801 972 m 478 1221 q 531 1211 515 1221 q 547 1182 547 1201 l 539 1103 q 460 1064 532 1064 q 406 1073 421 1064 q 390 1103 390 1082 l 399 1182 q 478 1221 403 1221 z "},"Ẓ":{"ha":856,"x_min":4,"x_max":838,"o":"m 4 0 m 801 972 q 826 937 815 972 q 838 871 838 901 q 833 849 838 856 l 258 154 l 726 154 q 751 143 743 154 q 758 108 758 132 q 748 29 758 58 q 711 0 738 0 l 42 0 q 16 36 28 0 q 4 101 4 72 q 10 124 4 118 l 582 818 l 154 818 q 130 829 138 818 q 122 864 122 840 q 133 943 122 914 q 169 972 143 972 l 801 972 m 371 -111 q 424 -121 408 -111 q 440 -150 440 -131 l 432 -229 q 353 -268 425 -268 q 299 -259 314 -268 q 283 -229 283 -250 l 292 -150 q 371 -111 296 -111 z "},"a":{"ha":757,"x_min":42,"x_max":732,"o":"m 721 138 q 732 124 732 138 q 724 53 732 103 q 685 6 718 22 q 615 -10 651 -10 q 467 108 485 -10 q 381 21 433 53 q 269 -11 329 -11 q 107 65 172 -11 q 42 290 42 140 q 82 522 42 421 q 194 680 122 624 q 361 736 267 736 q 459 713 415 736 q 532 661 503 690 q 548 703 542 690 q 569 722 554 715 q 613 728 583 728 l 626 728 q 690 696 690 728 l 681 600 q 638 179 638 197 q 649 140 638 150 q 682 129 660 129 q 705 133 693 129 q 721 138 717 138 m 493 482 q 507 551 496 504 q 396 596 454 596 q 262 517 306 596 q 218 301 218 439 q 328 133 218 133 q 407 167 368 133 q 472 269 446 201 l 486 407 l 493 482 z "},"á":{"ha":757,"x_min":42,"x_max":732,"o":"m 42 0 m 721 138 q 732 124 732 138 q 724 53 732 103 q 685 6 718 22 q 615 -10 651 -10 q 467 108 485 -10 q 381 21 433 53 q 269 -11 329 -11 q 107 65 172 -11 q 42 290 42 140 q 82 522 42 421 q 194 680 122 624 q 361 736 267 736 q 459 713 415 736 q 532 661 503 690 q 548 703 542 690 q 569 722 554 715 q 613 728 583 728 l 626 728 q 690 696 690 728 l 681 600 q 638 179 638 197 q 649 140 638 150 q 682 129 660 129 q 705 133 693 129 q 721 138 717 138 m 493 482 q 507 551 496 504 q 396 596 454 596 q 262 517 306 596 q 218 301 218 439 q 328 133 218 133 q 407 167 368 133 q 472 269 446 201 l 486 407 l 493 482 m 549 1018 q 624 1001 624 1018 q 614 981 624 992 q 560 925 604 971 q 468 835 538 904 q 372 804 438 804 q 343 808 351 804 q 335 819 335 811 q 345 843 335 826 q 375 888 356 860 q 400 924 385 901 q 438 982 415 947 q 549 1018 463 1018 z "},"ă":{"ha":757,"x_min":42,"x_max":732,"o":"m 42 0 m 721 138 q 732 124 732 138 q 724 53 732 103 q 685 6 718 22 q 615 -10 651 -10 q 467 108 485 -10 q 381 21 433 53 q 269 -11 329 -11 q 107 65 172 -11 q 42 290 42 140 q 82 522 42 421 q 194 680 122 624 q 361 736 267 736 q 459 713 415 736 q 532 661 503 690 q 548 703 542 690 q 569 722 554 715 q 613 728 583 728 l 626 728 q 690 696 690 728 l 681 600 q 638 179 638 197 q 649 140 638 150 q 682 129 660 129 q 705 133 693 129 q 721 138 717 138 m 493 482 q 507 551 496 504 q 396 596 454 596 q 262 517 306 596 q 218 301 218 439 q 328 133 218 133 q 407 167 368 133 q 472 269 446 201 l 486 407 l 493 482 m 593 993 q 628 965 628 993 q 597 884 628 921 q 514 826 565 847 q 408 804 463 804 q 274 844 328 804 q 221 947 221 885 q 231 981 221 969 q 264 993 240 993 q 284 988 278 993 q 294 976 290 983 q 301 964 299 968 q 421 918 328 918 q 504 932 474 918 q 556 969 535 946 q 563 980 557 972 q 576 990 569 988 q 593 993 582 993 z "},"ắ":{"ha":757,"x_min":42,"x_max":732,"o":"m 42 0 m 721 138 q 732 124 732 138 q 724 53 732 103 q 685 6 718 22 q 615 -10 651 -10 q 467 108 485 -10 q 381 21 433 53 q 269 -11 329 -11 q 107 65 172 -11 q 42 290 42 140 q 82 522 42 421 q 194 680 122 624 q 361 736 267 736 q 459 713 415 736 q 532 661 503 690 q 548 703 542 690 q 569 722 554 715 q 613 728 583 728 l 626 728 q 690 696 690 728 l 681 600 q 638 179 638 197 q 649 140 638 150 q 682 129 660 129 q 705 133 693 129 q 721 138 717 138 m 493 482 q 507 551 496 504 q 396 596 454 596 q 262 517 306 596 q 218 301 218 439 q 328 133 218 133 q 407 167 368 133 q 472 269 446 201 l 486 407 l 493 482 m 593 993 q 628 965 628 993 q 597 884 628 921 q 514 826 565 847 q 408 804 463 804 q 274 844 328 804 q 221 947 221 885 q 231 981 221 969 q 264 993 240 993 q 284 988 278 993 q 294 976 290 983 q 301 964 299 968 q 421 918 328 918 q 504 932 474 918 q 556 969 535 946 q 563 980 557 972 q 576 990 569 988 q 593 993 582 993 m 575 1238 q 650 1221 650 1238 q 640 1201 650 1211 q 586 1144 631 1190 q 494 1054 564 1124 q 399 1024 464 1024 q 369 1027 378 1024 q 361 1039 361 1031 q 372 1063 361 1046 q 401 1107 382 1079 q 426 1144 411 1121 q 464 1201 442 1167 q 575 1238 489 1238 z "},"ặ":{"ha":757,"x_min":42,"x_max":732,"o":"m 42 0 m 721 138 q 732 124 732 138 q 724 53 732 103 q 685 6 718 22 q 615 -10 651 -10 q 467 108 485 -10 q 381 21 433 53 q 269 -11 329 -11 q 107 65 172 -11 q 42 290 42 140 q 82 522 42 421 q 194 680 122 624 q 361 736 267 736 q 459 713 415 736 q 532 661 503 690 q 548 703 542 690 q 569 722 554 715 q 613 728 583 728 l 626 728 q 690 696 690 728 l 681 600 q 638 179 638 197 q 649 140 638 150 q 682 129 660 129 q 705 133 693 129 q 721 138 717 138 m 493 482 q 507 551 496 504 q 396 596 454 596 q 262 517 306 596 q 218 301 218 439 q 328 133 218 133 q 407 167 368 133 q 472 269 446 201 l 486 407 l 493 482 m 593 993 q 628 965 628 993 q 597 884 628 921 q 514 826 565 847 q 408 804 463 804 q 274 844 328 804 q 221 947 221 885 q 231 981 221 969 q 264 993 240 993 q 284 988 278 993 q 294 976 290 983 q 301 964 299 968 q 421 918 328 918 q 504 932 474 918 q 556 969 535 946 q 563 980 557 972 q 576 990 569 988 q 593 993 582 993 m 307 -111 q 360 -121 344 -111 q 376 -150 376 -131 l 368 -229 q 289 -268 361 -268 q 235 -259 250 -268 q 219 -229 219 -250 l 228 -150 q 307 -111 232 -111 z "},"ằ":{"ha":757,"x_min":42,"x_max":732,"o":"m 42 0 m 721 138 q 732 124 732 138 q 724 53 732 103 q 685 6 718 22 q 615 -10 651 -10 q 467 108 485 -10 q 381 21 433 53 q 269 -11 329 -11 q 107 65 172 -11 q 42 290 42 140 q 82 522 42 421 q 194 680 122 624 q 361 736 267 736 q 459 713 415 736 q 532 661 503 690 q 548 703 542 690 q 569 722 554 715 q 613 728 583 728 l 626 728 q 690 696 690 728 l 681 600 q 638 179 638 197 q 649 140 638 150 q 682 129 660 129 q 705 133 693 129 q 721 138 717 138 m 493 482 q 507 551 496 504 q 396 596 454 596 q 262 517 306 596 q 218 301 218 439 q 328 133 218 133 q 407 167 368 133 q 472 269 446 201 l 486 407 l 493 482 m 593 993 q 628 965 628 993 q 597 884 628 921 q 514 826 565 847 q 408 804 463 804 q 274 844 328 804 q 221 947 221 885 q 231 981 221 969 q 264 993 240 993 q 284 988 278 993 q 294 976 290 983 q 301 964 299 968 q 421 918 328 918 q 504 932 474 918 q 556 969 535 946 q 563 980 557 972 q 576 990 569 988 q 593 993 582 993 m 333 1238 q 436 1201 418 1238 l 451 1172 q 497 1083 481 1117 q 513 1042 513 1050 q 503 1028 513 1032 q 472 1024 493 1024 q 382 1054 407 1024 l 325 1121 q 271 1188 288 1165 q 254 1218 254 1210 q 273 1233 254 1229 q 333 1238 292 1238 z "},"ẳ":{"ha":757,"x_min":42,"x_max":732,"o":"m 42 0 m 721 138 q 732 124 732 138 q 724 53 732 103 q 685 6 718 22 q 615 -10 651 -10 q 467 108 485 -10 q 381 21 433 53 q 269 -11 329 -11 q 107 65 172 -11 q 42 290 42 140 q 82 522 42 421 q 194 680 122 624 q 361 736 267 736 q 459 713 415 736 q 532 661 503 690 q 548 703 542 690 q 569 722 554 715 q 613 728 583 728 l 626 728 q 690 696 690 728 l 681 600 q 638 179 638 197 q 649 140 638 150 q 682 129 660 129 q 705 133 693 129 q 721 138 717 138 m 493 482 q 507 551 496 504 q 396 596 454 596 q 262 517 306 596 q 218 301 218 439 q 328 133 218 133 q 407 167 368 133 q 472 269 446 201 l 486 407 l 493 482 m 593 993 q 628 965 628 993 q 597 884 628 921 q 514 826 565 847 q 408 804 463 804 q 274 844 328 804 q 221 947 221 885 q 231 981 221 969 q 264 993 240 993 q 284 988 278 993 q 294 976 290 983 q 301 964 299 968 q 421 918 328 918 q 504 932 474 918 q 556 969 535 946 q 563 980 557 972 q 576 990 569 988 q 593 993 582 993 m 490 1150 q 478 1174 490 1165 q 446 1182 467 1182 q 404 1174 422 1182 q 382 1165 386 1165 q 362 1185 374 1165 q 350 1219 350 1206 q 389 1248 350 1233 q 464 1263 428 1263 q 563 1234 524 1263 q 601 1158 601 1206 q 573 1088 601 1122 q 509 1030 544 1053 q 461 1007 474 1007 q 410 1015 429 1007 q 390 1035 390 1024 q 400 1053 390 1044 q 431 1078 410 1063 q 476 1114 461 1099 q 490 1150 490 1129 z "},"ẵ":{"ha":757,"x_min":42,"x_max":732,"o":"m 236 1071 q 213 1101 213 1079 q 217 1119 213 1110 q 267 1190 233 1164 q 347 1217 300 1217 q 397 1208 367 1217 q 454 1190 426 1200 q 539 1168 514 1169 q 586 1197 565 1168 q 617 1219 601 1219 q 632 1217 621 1219 l 644 1213 q 668 1183 668 1206 q 664 1164 668 1175 q 615 1092 647 1118 q 535 1067 582 1067 q 429 1092 504 1067 q 380 1107 404 1100 q 340 1114 356 1114 q 294 1085 315 1114 q 264 1063 279 1063 q 249 1065 260 1063 l 236 1071 m 593 993 q 628 965 628 993 q 597 884 628 921 q 514 826 565 847 q 408 804 463 804 q 274 844 328 804 q 221 947 221 885 q 231 981 221 969 q 264 993 240 993 q 284 988 278 993 q 294 976 290 983 q 301 964 299 968 q 421 918 328 918 q 504 932 474 918 q 556 969 535 946 q 563 980 557 972 q 576 990 569 988 q 593 993 582 993 m 721 138 q 732 124 732 138 q 724 53 732 103 q 685 6 718 22 q 615 -10 651 -10 q 467 108 485 -10 q 381 21 433 53 q 269 -11 329 -11 q 107 65 172 -11 q 42 290 42 140 q 82 522 42 421 q 194 680 122 624 q 361 736 267 736 q 459 713 415 736 q 532 661 503 690 q 548 703 542 690 q 569 722 554 715 q 613 728 583 728 l 626 728 q 690 696 690 728 l 681 600 q 638 179 638 197 q 649 140 638 150 q 682 129 660 129 q 705 133 693 129 q 721 138 717 138 m 493 482 q 507 551 496 504 q 396 596 454 596 q 262 517 306 596 q 218 301 218 439 q 328 133 218 133 q 407 167 368 133 q 472 269 446 201 l 486 407 l 493 482 z "},"â":{"ha":757,"x_min":42,"x_max":732,"o":"m 42 0 m 721 138 q 732 124 732 138 q 724 53 732 103 q 685 6 718 22 q 615 -10 651 -10 q 467 108 485 -10 q 381 21 433 53 q 269 -11 329 -11 q 107 65 172 -11 q 42 290 42 140 q 82 522 42 421 q 194 680 122 624 q 361 736 267 736 q 459 713 415 736 q 532 661 503 690 q 548 703 542 690 q 569 722 554 715 q 613 728 583 728 l 626 728 q 690 696 690 728 l 681 600 q 638 179 638 197 q 649 140 638 150 q 682 129 660 129 q 705 133 693 129 q 721 138 717 138 m 493 482 q 507 551 496 504 q 396 596 454 596 q 262 517 306 596 q 218 301 218 439 q 328 133 218 133 q 407 167 368 133 q 472 269 446 201 l 486 407 l 493 482 m 436 997 q 483 992 465 997 q 510 969 501 986 l 582 835 q 586 815 586 825 q 578 801 586 807 q 557 796 571 796 l 536 796 q 464 824 485 796 l 414 897 l 351 825 q 317 802 336 808 q 272 796 299 796 l 250 796 q 224 811 224 796 q 233 835 224 821 l 333 969 q 364 992 344 986 q 413 997 383 997 l 436 997 z "},"ấ":{"ha":757,"x_min":42,"x_max":826,"o":"m 751 1197 q 826 1181 826 1197 q 817 1160 826 1171 q 763 1104 808 1149 q 671 1014 740 1083 q 575 983 640 983 q 546 987 554 983 q 538 999 538 990 q 548 1022 538 1006 q 578 1067 558 1039 q 603 1103 588 1081 q 640 1161 618 1126 q 751 1197 665 1197 m 251 796 q 225 811 225 796 q 235 835 225 821 l 335 969 q 365 992 346 986 q 414 997 385 997 l 438 997 q 474 991 460 997 q 497 969 489 985 l 563 835 q 567 815 567 825 q 559 801 567 807 q 538 796 551 796 l 517 796 q 467 801 486 796 q 444 824 449 807 l 415 897 l 353 825 q 319 802 338 808 q 274 796 300 796 l 251 796 m 721 138 q 732 124 732 138 q 724 53 732 103 q 685 6 718 22 q 615 -10 651 -10 q 467 108 485 -10 q 381 21 433 53 q 269 -11 329 -11 q 107 65 172 -11 q 42 290 42 140 q 82 522 42 421 q 194 680 122 624 q 361 736 267 736 q 459 713 415 736 q 532 661 503 690 q 548 703 542 690 q 569 722 554 715 q 613 728 583 728 l 626 728 q 690 696 690 728 l 681 600 q 638 179 638 197 q 649 140 638 150 q 682 129 660 129 q 705 133 693 129 q 721 138 717 138 m 493 482 q 507 551 496 504 q 396 596 454 596 q 262 517 306 596 q 218 301 218 439 q 328 133 218 133 q 407 167 368 133 q 472 269 446 201 l 486 407 l 493 482 z "},"ậ":{"ha":757,"x_min":42,"x_max":732,"o":"m 42 0 m 721 138 q 732 124 732 138 q 724 53 732 103 q 685 6 718 22 q 615 -10 651 -10 q 467 108 485 -10 q 381 21 433 53 q 269 -11 329 -11 q 107 65 172 -11 q 42 290 42 140 q 82 522 42 421 q 194 680 122 624 q 361 736 267 736 q 459 713 415 736 q 532 661 503 690 q 548 703 542 690 q 569 722 554 715 q 613 728 583 728 l 626 728 q 690 696 690 728 l 681 600 q 638 179 638 197 q 649 140 638 150 q 682 129 660 129 q 705 133 693 129 q 721 138 717 138 m 493 482 q 507 551 496 504 q 396 596 454 596 q 262 517 306 596 q 218 301 218 439 q 328 133 218 133 q 407 167 368 133 q 472 269 446 201 l 486 407 l 493 482 m 436 997 q 483 992 465 997 q 510 969 501 986 l 582 835 q 586 815 586 825 q 578 801 586 807 q 557 796 571 796 l 536 796 q 464 824 485 796 l 414 897 l 351 825 q 317 802 336 808 q 272 796 299 796 l 250 796 q 224 811 224 796 q 233 835 224 821 l 333 969 q 364 992 344 986 q 413 997 383 997 l 436 997 m 307 -111 q 360 -121 344 -111 q 376 -150 376 -131 l 368 -229 q 289 -268 361 -268 q 235 -259 250 -268 q 219 -229 219 -250 l 228 -150 q 307 -111 232 -111 z "},"ầ":{"ha":757,"x_min":42,"x_max":732,"o":"m 650 983 q 560 1014 585 983 l 503 1081 q 449 1147 465 1125 q 432 1178 432 1169 q 451 1193 432 1189 q 511 1197 469 1197 q 614 1161 596 1197 l 629 1132 q 674 1043 658 1076 q 690 1001 690 1010 q 681 988 690 992 q 650 983 671 983 m 251 796 q 225 811 225 796 q 235 835 225 821 l 335 969 q 365 992 346 986 q 414 997 385 997 l 438 997 q 474 991 460 997 q 497 969 489 985 l 563 835 q 567 815 567 825 q 559 801 567 807 q 538 796 551 796 l 517 796 q 467 801 486 796 q 444 824 449 807 l 415 897 l 353 825 q 319 802 338 808 q 274 796 300 796 l 251 796 m 721 138 q 732 124 732 138 q 724 53 732 103 q 685 6 718 22 q 615 -10 651 -10 q 467 108 485 -10 q 381 21 433 53 q 269 -11 329 -11 q 107 65 172 -11 q 42 290 42 140 q 82 522 42 421 q 194 680 122 624 q 361 736 267 736 q 459 713 415 736 q 532 661 503 690 q 548 703 542 690 q 569 722 554 715 q 613 728 583 728 l 626 728 q 690 696 690 728 l 681 600 q 638 179 638 197 q 649 140 638 150 q 682 129 660 129 q 705 133 693 129 q 721 138 717 138 m 493 482 q 507 551 496 504 q 396 596 454 596 q 262 517 306 596 q 218 301 218 439 q 328 133 218 133 q 407 167 368 133 q 472 269 446 201 l 486 407 l 493 482 z "},"ẩ":{"ha":757,"x_min":42,"x_max":779,"o":"m 642 1222 q 740 1194 701 1222 q 779 1118 779 1165 q 751 1047 779 1082 q 687 990 722 1013 q 639 967 651 967 q 588 975 607 967 q 568 994 568 983 q 578 1013 568 1004 q 608 1038 588 1022 q 653 1074 639 1058 q 668 1110 668 1089 q 656 1133 668 1125 q 624 1142 644 1142 q 582 1133 600 1142 q 560 1125 564 1125 q 540 1145 551 1125 q 528 1179 528 1165 q 567 1208 528 1193 q 642 1222 606 1222 m 251 796 q 225 811 225 796 q 235 835 225 821 l 335 969 q 365 992 346 986 q 414 997 385 997 l 438 997 q 474 991 460 997 q 497 969 489 985 l 563 835 q 567 815 567 825 q 559 801 567 807 q 538 796 551 796 l 517 796 q 467 801 486 796 q 444 824 449 807 l 415 897 l 353 825 q 319 802 338 808 q 274 796 300 796 l 251 796 m 721 138 q 732 124 732 138 q 724 53 732 103 q 685 6 718 22 q 615 -10 651 -10 q 467 108 485 -10 q 381 21 433 53 q 269 -11 329 -11 q 107 65 172 -11 q 42 290 42 140 q 82 522 42 421 q 194 680 122 624 q 361 736 267 736 q 459 713 415 736 q 532 661 503 690 q 548 703 542 690 q 569 722 554 715 q 613 728 583 728 l 626 728 q 690 696 690 728 l 681 600 q 638 179 638 197 q 649 140 638 150 q 682 129 660 129 q 705 133 693 129 q 721 138 717 138 m 493 482 q 507 551 496 504 q 396 596 454 596 q 262 517 306 596 q 218 301 218 439 q 328 133 218 133 q 407 167 368 133 q 472 269 446 201 l 486 407 l 493 482 z "},"ẫ":{"ha":757,"x_min":42,"x_max":732,"o":"m 244 1074 q 221 1104 221 1082 q 225 1122 221 1113 q 275 1193 242 1167 q 356 1219 308 1219 q 405 1211 375 1219 q 463 1193 435 1203 q 547 1171 522 1172 q 594 1200 574 1171 q 625 1222 610 1222 q 640 1219 629 1222 l 653 1215 q 676 1186 676 1208 q 672 1167 676 1178 q 623 1095 656 1121 q 543 1069 590 1069 q 438 1094 513 1069 q 388 1110 413 1103 q 349 1117 364 1117 q 303 1088 324 1117 q 272 1065 288 1065 q 257 1068 268 1065 l 244 1074 m 436 997 q 483 992 465 997 q 510 969 501 986 l 582 835 q 586 815 586 825 q 578 801 586 807 q 557 796 571 796 l 536 796 q 464 824 485 796 l 414 897 l 351 825 q 317 802 336 808 q 272 796 299 796 l 250 796 q 224 811 224 796 q 233 835 224 821 l 333 969 q 364 992 344 986 q 413 997 383 997 l 436 997 m 721 138 q 732 124 732 138 q 724 53 732 103 q 685 6 718 22 q 615 -10 651 -10 q 467 108 485 -10 q 381 21 433 53 q 269 -11 329 -11 q 107 65 172 -11 q 42 290 42 140 q 82 522 42 421 q 194 680 122 624 q 361 736 267 736 q 459 713 415 736 q 532 661 503 690 q 548 703 542 690 q 569 722 554 715 q 613 728 583 728 l 626 728 q 690 696 690 728 l 681 600 q 638 179 638 197 q 649 140 638 150 q 682 129 660 129 q 705 133 693 129 q 721 138 717 138 m 493 482 q 507 551 496 504 q 396 596 454 596 q 262 517 306 596 q 218 301 218 439 q 328 133 218 133 q 407 167 368 133 q 472 269 446 201 l 486 407 l 493 482 z "},"ä":{"ha":757,"x_min":42,"x_max":732,"o":"m 42 0 m 721 138 q 732 124 732 138 q 724 53 732 103 q 685 6 718 22 q 615 -10 651 -10 q 467 108 485 -10 q 381 21 433 53 q 269 -11 329 -11 q 107 65 172 -11 q 42 290 42 140 q 82 522 42 421 q 194 680 122 624 q 361 736 267 736 q 459 713 415 736 q 532 661 503 690 q 548 703 542 690 q 569 722 554 715 q 613 728 583 728 l 626 728 q 690 696 690 728 l 681 600 q 638 179 638 197 q 649 140 638 150 q 682 129 660 129 q 705 133 693 129 q 721 138 717 138 m 493 482 q 507 551 496 504 q 396 596 454 596 q 262 517 306 596 q 218 301 218 439 q 328 133 218 133 q 407 167 368 133 q 472 269 446 201 l 486 407 l 493 482 m 315 975 q 369 965 353 975 q 385 936 385 956 l 375 857 q 297 818 371 818 q 242 827 258 818 q 226 857 226 836 l 236 936 q 315 975 240 975 m 546 975 q 601 965 585 975 q 617 936 617 956 l 607 857 q 528 818 603 818 q 474 827 489 818 q 458 857 458 836 l 468 936 q 546 975 471 975 z "},"ạ":{"ha":757,"x_min":42,"x_max":732,"o":"m 42 0 m 721 138 q 732 124 732 138 q 724 53 732 103 q 685 6 718 22 q 615 -10 651 -10 q 467 108 485 -10 q 381 21 433 53 q 269 -11 329 -11 q 107 65 172 -11 q 42 290 42 140 q 82 522 42 421 q 194 680 122 624 q 361 736 267 736 q 459 713 415 736 q 532 661 503 690 q 548 703 542 690 q 569 722 554 715 q 613 728 583 728 l 626 728 q 690 696 690 728 l 681 600 q 638 179 638 197 q 649 140 638 150 q 682 129 660 129 q 705 133 693 129 q 721 138 717 138 m 493 482 q 507 551 496 504 q 396 596 454 596 q 262 517 306 596 q 218 301 218 439 q 328 133 218 133 q 407 167 368 133 q 472 269 446 201 l 486 407 l 493 482 m 307 -111 q 360 -121 344 -111 q 376 -150 376 -131 l 368 -229 q 289 -268 361 -268 q 235 -259 250 -268 q 219 -229 219 -250 l 228 -150 q 307 -111 232 -111 z "},"à":{"ha":757,"x_min":42,"x_max":732,"o":"m 42 0 m 721 138 q 732 124 732 138 q 724 53 732 103 q 685 6 718 22 q 615 -10 651 -10 q 467 108 485 -10 q 381 21 433 53 q 269 -11 329 -11 q 107 65 172 -11 q 42 290 42 140 q 82 522 42 421 q 194 680 122 624 q 361 736 267 736 q 459 713 415 736 q 532 661 503 690 q 548 703 542 690 q 569 722 554 715 q 613 728 583 728 l 626 728 q 690 696 690 728 l 681 600 q 638 179 638 197 q 649 140 638 150 q 682 129 660 129 q 705 133 693 129 q 721 138 717 138 m 493 482 q 507 551 496 504 q 396 596 454 596 q 262 517 306 596 q 218 301 218 439 q 328 133 218 133 q 407 167 368 133 q 472 269 446 201 l 486 407 l 493 482 m 307 1018 q 410 982 392 1018 l 425 953 q 470 864 454 897 q 486 822 486 831 q 476 808 486 813 q 446 804 467 804 q 356 835 381 804 l 299 901 q 244 968 261 946 q 228 999 228 990 q 247 1014 228 1010 q 307 1018 265 1018 z "},"ả":{"ha":757,"x_min":42,"x_max":732,"o":"m 42 0 m 721 138 q 732 124 732 138 q 724 53 732 103 q 685 6 718 22 q 615 -10 651 -10 q 467 108 485 -10 q 381 21 433 53 q 269 -11 329 -11 q 107 65 172 -11 q 42 290 42 140 q 82 522 42 421 q 194 680 122 624 q 361 736 267 736 q 459 713 415 736 q 532 661 503 690 q 548 703 542 690 q 569 722 554 715 q 613 728 583 728 l 626 728 q 690 696 690 728 l 681 600 q 638 179 638 197 q 649 140 638 150 q 682 129 660 129 q 705 133 693 129 q 721 138 717 138 m 493 482 q 507 551 496 504 q 396 596 454 596 q 262 517 306 596 q 218 301 218 439 q 328 133 218 133 q 407 167 368 133 q 472 269 446 201 l 486 407 l 493 482 m 464 931 q 452 954 464 946 q 419 963 440 963 q 378 954 396 963 q 356 946 360 946 q 335 966 347 946 q 324 1000 324 986 q 363 1028 324 1014 q 438 1043 401 1043 q 536 1015 497 1043 q 575 939 575 986 q 547 868 575 903 q 483 810 518 833 q 435 788 447 788 q 383 796 403 788 q 364 815 364 804 q 374 834 364 825 q 404 858 383 843 q 449 894 435 879 q 464 931 464 910 z "},"ā":{"ha":757,"x_min":42,"x_max":732,"o":"m 42 0 m 721 138 q 732 124 732 138 q 724 53 732 103 q 685 6 718 22 q 615 -10 651 -10 q 467 108 485 -10 q 381 21 433 53 q 269 -11 329 -11 q 107 65 172 -11 q 42 290 42 140 q 82 522 42 421 q 194 680 122 624 q 361 736 267 736 q 459 713 415 736 q 532 661 503 690 q 548 703 542 690 q 569 722 554 715 q 613 728 583 728 l 626 728 q 690 696 690 728 l 681 600 q 638 179 638 197 q 649 140 638 150 q 682 129 660 129 q 705 133 693 129 q 721 138 717 138 m 493 482 q 507 551 496 504 q 396 596 454 596 q 262 517 306 596 q 218 301 218 439 q 328 133 218 133 q 407 167 368 133 q 472 269 446 201 l 486 407 l 493 482 m 578 957 q 610 917 610 957 q 601 862 610 888 q 564 836 592 836 l 260 836 q 235 846 243 836 q 228 876 228 856 q 272 957 228 957 l 578 957 z "},"ą":{"ha":757,"x_min":42,"x_max":817,"o":"m 804 -136 q 814 -143 811 -136 q 817 -168 817 -150 q 781 -235 817 -217 q 694 -254 746 -254 q 576 -217 608 -254 q 544 -131 544 -179 q 555 -67 544 -103 q 585 -8 565 -32 q 467 108 481 4 q 381 21 433 53 q 269 -11 329 -11 q 107 65 172 -11 q 42 290 42 140 q 82 522 42 421 q 194 680 122 624 q 361 736 267 736 q 459 713 415 736 q 532 661 503 690 q 548 703 542 690 q 569 722 554 715 q 613 728 583 728 l 626 728 q 690 696 690 728 l 681 600 q 638 179 638 197 q 649 140 638 150 q 682 129 660 129 q 705 133 693 129 q 721 138 717 138 q 732 124 732 138 q 724 53 732 103 q 665 -1 717 14 q 656 -33 665 -14 q 640 -97 640 -69 q 664 -145 640 -133 q 721 -157 688 -157 q 774 -147 747 -157 q 804 -136 800 -136 m 493 482 q 507 551 496 504 q 396 596 454 596 q 262 517 306 596 q 218 301 218 439 q 328 133 218 133 q 407 167 368 133 q 472 269 446 201 l 486 407 l 493 482 z "},"å":{"ha":757,"x_min":42,"x_max":732,"o":"m 42 0 m 721 138 q 732 124 732 138 q 724 53 732 103 q 685 6 718 22 q 615 -10 651 -10 q 467 108 485 -10 q 381 21 433 53 q 269 -11 329 -11 q 107 65 172 -11 q 42 290 42 140 q 82 522 42 421 q 194 680 122 624 q 361 736 267 736 q 459 713 415 736 q 532 661 503 690 q 548 703 542 690 q 569 722 554 715 q 613 728 583 728 l 626 728 q 690 696 690 728 l 681 600 q 638 179 638 197 q 649 140 638 150 q 682 129 660 129 q 705 133 693 129 q 721 138 717 138 m 493 482 q 507 551 496 504 q 396 596 454 596 q 262 517 306 596 q 218 301 218 439 q 328 133 218 133 q 407 167 368 133 q 472 269 446 201 l 486 407 l 493 482 m 429 1032 q 514 999 481 1032 q 547 915 547 965 q 507 813 547 854 q 403 771 467 771 q 318 804 351 771 q 285 888 285 838 q 326 990 285 949 q 429 1032 367 1032 m 422 958 q 378 940 397 958 q 358 894 358 921 q 373 858 358 872 q 410 843 388 843 q 455 861 436 843 q 474 906 474 879 q 459 943 474 928 q 422 958 444 958 z "},"ǻ":{"ha":757,"x_min":42,"x_max":732,"o":"m 42 0 m 721 138 q 732 124 732 138 q 724 53 732 103 q 685 6 718 22 q 615 -10 651 -10 q 467 108 485 -10 q 381 21 433 53 q 269 -11 329 -11 q 107 65 172 -11 q 42 290 42 140 q 82 522 42 421 q 194 680 122 624 q 361 736 267 736 q 459 713 415 736 q 532 661 503 690 q 548 703 542 690 q 569 722 554 715 q 613 728 583 728 l 626 728 q 690 696 690 728 l 681 600 q 638 179 638 197 q 649 140 638 150 q 682 129 660 129 q 705 133 693 129 q 721 138 717 138 m 493 482 q 507 551 496 504 q 396 596 454 596 q 262 517 306 596 q 218 301 218 439 q 328 133 218 133 q 407 167 368 133 q 472 269 446 201 l 486 407 l 493 482 m 429 1032 q 514 999 481 1032 q 547 915 547 965 q 507 813 547 854 q 403 771 467 771 q 318 804 351 771 q 285 888 285 838 q 326 990 285 949 q 429 1032 367 1032 m 422 958 q 378 940 397 958 q 358 894 358 921 q 373 858 358 872 q 410 843 388 843 q 455 861 436 843 q 474 906 474 879 q 459 943 474 928 q 422 958 444 958 m 585 1282 q 660 1265 660 1282 q 650 1245 660 1256 q 596 1189 640 1235 q 504 1099 574 1168 q 408 1068 474 1068 q 379 1072 388 1068 q 371 1083 371 1075 q 381 1107 371 1090 q 411 1151 392 1124 q 436 1188 421 1165 q 474 1246 451 1211 q 585 1282 499 1282 z "},"ã":{"ha":757,"x_min":42,"x_max":732,"o":"m 42 0 m 721 138 q 732 124 732 138 q 724 53 732 103 q 685 6 718 22 q 615 -10 651 -10 q 467 108 485 -10 q 381 21 433 53 q 269 -11 329 -11 q 107 65 172 -11 q 42 290 42 140 q 82 522 42 421 q 194 680 122 624 q 361 736 267 736 q 459 713 415 736 q 532 661 503 690 q 548 703 542 690 q 569 722 554 715 q 613 728 583 728 l 626 728 q 690 696 690 728 l 681 600 q 638 179 638 197 q 649 140 638 150 q 682 129 660 129 q 705 133 693 129 q 721 138 717 138 m 493 482 q 507 551 496 504 q 396 596 454 596 q 262 517 306 596 q 218 301 218 439 q 328 133 218 133 q 407 167 368 133 q 472 269 446 201 l 486 407 l 493 482 m 310 963 q 363 954 331 963 q 426 936 396 946 q 521 914 493 915 q 572 943 550 914 q 607 965 589 965 l 624 963 l 636 958 q 663 929 663 951 q 658 910 663 921 q 603 838 640 864 q 517 813 567 813 q 400 838 483 813 q 346 853 372 846 q 303 860 319 860 q 251 831 274 860 q 218 808 235 808 q 201 811 213 808 l 188 817 q 163 846 163 825 q 167 865 163 856 q 221 936 185 910 q 310 963 257 963 z "},"æ":{"ha":1151,"x_min":36,"x_max":1086,"o":"m 1086 542 q 990 353 1086 414 q 760 293 894 293 q 625 300 690 293 q 669 167 626 204 q 792 129 711 129 q 889 144 846 129 q 979 181 932 158 q 1007 193 1000 193 q 1015 190 1013 193 q 1017 175 1017 188 q 1014 131 1017 163 q 1007 85 1011 100 q 919 13 994 36 q 771 -10 843 -10 q 515 81 594 -10 q 399 17 471 44 q 251 -10 328 -10 q 93 38 150 -10 q 36 169 36 85 q 138 358 36 290 q 461 429 240 426 q 504 553 476 501 q 458 587 488 576 q 378 597 428 597 q 292 586 331 597 q 208 557 253 575 q 181 547 185 547 q 146 582 164 547 q 128 639 128 617 q 167 684 128 661 q 270 722 207 707 q 401 736 333 736 q 617 678 546 736 q 831 736 704 736 q 983 705 926 736 q 1063 630 1040 674 q 1086 542 1086 586 m 711 418 q 854 445 793 418 q 915 521 915 472 q 889 578 915 558 q 817 597 863 597 q 635 418 672 597 l 711 418 m 294 131 q 383 147 338 131 q 458 193 428 164 q 449 289 449 233 l 449 313 q 280 285 346 311 q 214 197 214 258 q 234 148 214 165 q 294 131 254 131 z "},"ǽ":{"ha":1151,"x_min":36,"x_max":1086,"o":"m 36 0 m 1086 542 q 990 353 1086 414 q 760 293 894 293 q 625 300 690 293 q 669 167 626 204 q 792 129 711 129 q 889 144 846 129 q 979 181 932 158 q 1007 193 1000 193 q 1015 190 1013 193 q 1017 175 1017 188 q 1014 131 1017 163 q 1007 85 1011 100 q 919 13 994 36 q 771 -10 843 -10 q 515 81 594 -10 q 399 17 471 44 q 251 -10 328 -10 q 93 38 150 -10 q 36 169 36 85 q 138 358 36 290 q 461 429 240 426 q 504 553 476 501 q 458 587 488 576 q 378 597 428 597 q 292 586 331 597 q 208 557 253 575 q 181 547 185 547 q 146 582 164 547 q 128 639 128 617 q 167 684 128 661 q 270 722 207 707 q 401 736 333 736 q 617 678 546 736 q 831 736 704 736 q 983 705 926 736 q 1063 630 1040 674 q 1086 542 1086 586 m 711 418 q 854 445 793 418 q 915 521 915 472 q 889 578 915 558 q 817 597 863 597 q 635 418 672 597 l 711 418 m 294 131 q 383 147 338 131 q 458 193 428 164 q 449 289 449 233 l 449 313 q 280 285 346 311 q 214 197 214 258 q 234 148 214 165 q 294 131 254 131 m 721 1018 q 796 1001 796 1018 q 786 981 796 992 q 732 925 776 971 q 640 835 710 904 q 544 804 610 804 q 515 808 524 804 q 507 819 507 811 q 517 843 507 826 q 547 888 528 860 q 572 924 557 901 q 610 982 588 947 q 721 1018 635 1018 z "},"b":{"ha":790,"x_min":42,"x_max":721,"o":"m 249 1046 q 301 1035 285 1046 q 318 1008 318 1025 l 279 633 q 361 710 313 683 q 465 736 410 736 q 648 662 575 736 q 721 438 721 588 q 677 206 721 307 q 555 47 633 104 q 374 -10 476 -10 q 274 12 318 -10 q 200 63 231 33 q 174 13 189 26 q 121 -3 160 -1 l 106 -3 q 42 31 42 -3 l 146 1007 q 222 1046 150 1046 l 249 1046 m 407 593 q 328 560 367 593 q 261 460 289 526 l 242 276 q 226 172 236 232 q 339 131 276 131 q 494 210 444 131 q 544 426 544 289 q 510 553 544 514 q 407 593 475 593 z "},"c":{"ha":674,"x_min":53,"x_max":644,"o":"m 433 736 q 577 714 511 736 q 644 649 643 692 q 633 615 644 638 q 605 574 621 592 q 576 557 589 557 q 563 562 571 557 q 550 569 554 567 q 501 590 528 582 q 433 597 475 597 q 284 524 336 597 q 232 300 232 451 q 268 171 232 213 q 383 129 304 129 q 472 140 435 129 q 549 169 510 151 q 579 181 571 181 q 586 178 585 181 q 588 163 588 175 q 585 119 588 150 q 578 71 582 88 q 496 10 565 29 q 363 -10 426 -10 q 129 62 206 -10 q 53 283 53 133 q 144 610 53 483 q 433 736 235 736 z "},"ć":{"ha":674,"x_min":53,"x_max":644,"o":"m 53 0 m 433 736 q 577 714 511 736 q 644 649 643 692 q 633 615 644 638 q 605 574 621 592 q 576 557 589 557 q 563 562 571 557 q 550 569 554 567 q 501 590 528 582 q 433 597 475 597 q 284 524 336 597 q 232 300 232 451 q 268 171 232 213 q 383 129 304 129 q 472 140 435 129 q 549 169 510 151 q 579 181 571 181 q 586 178 585 181 q 588 163 588 175 q 585 119 588 150 q 578 71 582 88 q 496 10 565 29 q 363 -10 426 -10 q 129 62 206 -10 q 53 283 53 133 q 144 610 53 483 q 433 736 235 736 m 556 1018 q 631 1001 631 1018 q 621 981 631 992 q 567 925 611 971 q 475 835 544 904 q 379 804 444 804 q 350 808 358 804 q 342 819 342 811 q 352 843 342 826 q 382 888 363 860 q 407 924 392 901 q 444 982 422 947 q 556 1018 469 1018 z "},"č":{"ha":674,"x_min":53,"x_max":644,"o":"m 53 0 m 433 736 q 577 714 511 736 q 644 649 643 692 q 633 615 644 638 q 605 574 621 592 q 576 557 589 557 q 563 562 571 557 q 550 569 554 567 q 501 590 528 582 q 433 597 475 597 q 284 524 336 597 q 232 300 232 451 q 268 171 232 213 q 383 129 304 129 q 472 140 435 129 q 549 169 510 151 q 579 181 571 181 q 586 178 585 181 q 588 163 588 175 q 585 119 588 150 q 578 71 582 88 q 496 10 565 29 q 363 -10 426 -10 q 129 62 206 -10 q 53 283 53 133 q 144 610 53 483 q 433 736 235 736 m 589 1000 q 617 985 617 1000 q 607 963 617 974 l 507 828 q 476 806 494 811 q 426 800 457 800 l 404 800 q 357 806 375 800 q 331 828 339 811 l 258 963 q 254 982 254 974 q 283 1000 254 1000 l 304 1000 q 376 972 356 1000 l 426 900 l 489 972 q 522 994 503 989 q 567 1000 540 1000 l 589 1000 z "},"ç":{"ha":674,"x_min":53,"x_max":644,"o":"m 433 597 q 284 524 336 597 q 232 300 232 451 q 268 171 232 213 q 383 129 304 129 q 472 140 435 129 q 549 169 510 151 q 579 181 571 181 q 586 178 585 181 q 588 163 588 175 q 585 119 588 150 q 578 71 582 88 q 508 14 567 33 q 385 -10 450 -6 l 367 -56 q 438 -83 406 -60 q 469 -153 469 -107 q 420 -260 469 -226 q 292 -293 371 -293 q 197 -279 243 -293 q 151 -226 151 -265 q 169 -168 151 -168 q 194 -178 174 -168 q 238 -197 215 -189 q 288 -204 260 -204 q 340 -169 340 -204 q 331 -148 340 -156 q 303 -132 322 -140 q 276 -117 285 -124 q 268 -100 268 -111 q 304 -7 268 -93 q 115 76 178 6 q 53 283 53 147 q 144 610 53 483 q 433 736 235 736 q 577 714 511 736 q 644 649 643 692 q 633 615 644 638 q 605 574 621 592 q 576 557 589 557 q 563 562 571 557 q 550 569 554 567 q 501 590 528 582 q 433 597 475 597 z "},"ĉ":{"ha":674,"x_min":53,"x_max":644,"o":"m 53 0 m 433 736 q 577 714 511 736 q 644 649 643 692 q 633 615 644 638 q 605 574 621 592 q 576 557 589 557 q 563 562 571 557 q 550 569 554 567 q 501 590 528 582 q 433 597 475 597 q 284 524 336 597 q 232 300 232 451 q 268 171 232 213 q 383 129 304 129 q 472 140 435 129 q 549 169 510 151 q 579 181 571 181 q 586 178 585 181 q 588 163 588 175 q 585 119 588 150 q 578 71 582 88 q 496 10 565 29 q 363 -10 426 -10 q 129 62 206 -10 q 53 283 53 133 q 144 610 53 483 q 433 736 235 736 m 443 997 q 490 992 472 997 q 517 969 508 986 l 589 835 q 593 815 593 825 q 585 801 593 807 q 564 796 578 796 l 543 796 q 471 824 492 796 l 421 897 l 358 825 q 324 802 343 808 q 279 796 306 796 l 257 796 q 231 811 231 796 q 240 835 231 821 l 340 969 q 371 992 351 986 q 419 997 390 997 l 443 997 z "},"ċ":{"ha":674,"x_min":53,"x_max":644,"o":"m 53 0 m 433 736 q 577 714 511 736 q 644 649 643 692 q 633 615 644 638 q 605 574 621 592 q 576 557 589 557 q 563 562 571 557 q 550 569 554 567 q 501 590 528 582 q 433 597 475 597 q 284 524 336 597 q 232 300 232 451 q 268 171 232 213 q 383 129 304 129 q 472 140 435 129 q 549 169 510 151 q 579 181 571 181 q 586 178 585 181 q 588 163 588 175 q 585 119 588 150 q 578 71 582 88 q 496 10 565 29 q 363 -10 426 -10 q 129 62 206 -10 q 53 283 53 133 q 144 610 53 483 q 433 736 235 736 m 425 975 q 478 965 463 975 q 494 936 494 956 l 486 857 q 407 818 479 818 q 353 827 368 818 q 338 857 338 836 l 346 936 q 425 975 350 975 z "},"d":{"ha":785,"x_min":43,"x_max":756,"o":"m 746 138 q 753 135 751 138 q 756 124 756 132 q 747 53 756 103 q 708 6 742 22 q 639 -10 675 -10 q 490 110 508 -10 q 405 22 457 53 q 290 -10 353 -10 q 167 22 224 -10 q 77 122 111 54 q 43 290 43 189 q 85 522 43 421 q 202 680 126 624 q 375 736 278 736 q 539 678 469 736 l 575 1007 q 651 1046 579 1046 l 678 1046 q 731 1035 714 1046 q 747 1008 747 1025 q 697 538 733 882 q 661 179 661 194 q 672 140 661 151 q 706 129 683 129 q 730 133 718 129 q 746 138 742 138 m 526 556 q 411 596 478 596 q 268 517 315 596 q 221 301 221 438 q 253 174 221 214 q 350 133 285 133 q 430 168 390 133 q 497 271 469 203 l 526 556 z "},"ð":{"ha":790,"x_min":57,"x_max":725,"o":"m 493 992 q 536 979 519 992 q 569 942 553 967 l 586 918 l 686 931 q 714 915 703 931 q 725 882 725 899 q 699 857 725 861 l 626 847 q 698 660 671 765 q 725 443 725 554 q 628 108 725 225 q 354 -10 532 -10 q 133 67 208 -10 q 57 293 57 144 q 157 620 57 504 q 432 736 257 736 q 517 726 479 736 q 475 828 497 779 q 376 814 383 814 q 347 829 360 814 q 335 863 335 844 q 364 888 335 883 l 439 899 q 408 944 439 899 q 401 967 401 958 q 419 983 401 982 q 493 992 450 989 m 415 597 q 280 522 328 597 q 232 300 232 446 q 367 129 232 129 q 501 205 453 129 q 549 425 549 281 q 415 597 549 597 z "},"ď":{"ha":785,"x_min":43,"x_max":963,"o":"m 43 0 m 746 138 q 753 135 751 138 q 756 124 756 132 q 747 53 756 103 q 708 6 742 22 q 639 -10 675 -10 q 490 110 508 -10 q 405 22 457 53 q 290 -10 353 -10 q 167 22 224 -10 q 77 122 111 54 q 43 290 43 189 q 85 522 43 421 q 202 680 126 624 q 375 736 278 736 q 539 678 469 736 l 575 1007 q 651 1046 579 1046 l 678 1046 q 731 1035 714 1046 q 747 1008 747 1025 q 697 538 733 882 q 661 179 661 194 q 672 140 661 151 q 706 129 683 129 q 730 133 718 129 q 746 138 742 138 m 526 556 q 411 596 478 596 q 268 517 315 596 q 221 301 221 438 q 253 174 221 214 q 350 133 285 133 q 430 168 390 133 q 497 271 469 203 l 526 556 m 904 1044 q 963 992 963 1044 q 938 906 963 953 q 879 827 913 860 q 826 794 846 794 q 791 801 807 794 q 775 821 775 807 q 783 860 775 829 q 799 920 793 892 q 804 989 804 949 q 825 1029 804 1014 q 883 1044 846 1044 l 904 1044 z "},"đ":{"ha":785,"x_min":43,"x_max":811,"o":"m 779 938 q 811 897 811 938 q 802 842 811 868 q 765 817 793 817 l 726 817 l 717 721 q 661 179 661 203 q 672 140 661 151 q 706 129 683 129 q 730 133 718 129 q 746 138 742 138 q 753 135 751 138 q 756 124 756 132 q 747 53 756 103 q 708 6 742 22 q 639 -10 675 -10 q 490 110 508 -10 q 405 22 457 53 q 290 -10 353 -10 q 167 22 224 -10 q 77 122 111 54 q 43 290 43 189 q 85 522 43 421 q 202 680 126 624 q 375 736 278 736 q 539 678 469 736 l 554 817 l 461 817 q 437 826 444 817 q 429 857 429 836 q 474 938 429 938 l 567 938 l 575 1007 q 651 1046 579 1046 l 678 1046 q 731 1035 714 1046 q 747 1008 747 1025 l 740 938 l 779 938 m 526 556 q 411 596 478 596 q 268 517 315 596 q 221 301 221 438 q 253 174 221 214 q 350 133 285 133 q 430 168 390 133 q 497 271 469 203 l 526 556 z "},"ḍ":{"ha":785,"x_min":43,"x_max":756,"o":"m 43 0 m 746 138 q 753 135 751 138 q 756 124 756 132 q 747 53 756 103 q 708 6 742 22 q 639 -10 675 -10 q 490 110 508 -10 q 405 22 457 53 q 290 -10 353 -10 q 167 22 224 -10 q 77 122 111 54 q 43 290 43 189 q 85 522 43 421 q 202 680 126 624 q 375 736 278 736 q 539 678 469 736 l 575 1007 q 651 1046 579 1046 l 678 1046 q 731 1035 714 1046 q 747 1008 747 1025 q 697 538 733 882 q 661 179 661 194 q 672 140 661 151 q 706 129 683 129 q 730 133 718 129 q 746 138 742 138 m 526 556 q 411 596 478 596 q 268 517 315 596 q 221 301 221 438 q 253 174 221 214 q 350 133 285 133 q 430 168 390 133 q 497 271 469 203 l 526 556 m 340 -111 q 394 -121 378 -111 q 410 -150 410 -131 l 401 -229 q 322 -268 394 -268 q 268 -259 283 -268 q 253 -229 253 -250 l 261 -150 q 340 -111 265 -111 z "},"ǳ":{"ha":1464,"x_min":43,"x_max":1439,"o":"m 43 0 m 746 138 q 753 135 751 138 q 756 124 756 132 q 747 53 756 103 q 708 6 742 22 q 639 -10 675 -10 q 490 110 508 -10 q 405 22 457 53 q 290 -10 353 -10 q 167 22 224 -10 q 77 122 111 54 q 43 290 43 189 q 85 522 43 421 q 202 680 126 624 q 375 736 278 736 q 539 678 469 736 l 575 1007 q 651 1046 579 1046 l 678 1046 q 731 1035 714 1046 q 747 1008 747 1025 q 697 538 733 882 q 661 179 661 194 q 672 140 661 151 q 706 129 683 129 q 730 133 718 129 q 746 138 742 138 m 526 556 q 411 596 478 596 q 268 517 315 596 q 221 301 221 438 q 253 174 221 214 q 350 133 285 133 q 430 168 390 133 q 497 271 469 203 l 526 556 m 1411 726 q 1431 696 1422 726 q 1439 638 1439 665 q 1433 614 1439 619 l 1035 140 l 1357 140 q 1381 129 1374 140 q 1389 94 1389 118 q 1343 0 1389 0 l 828 0 q 808 30 817 0 q 799 88 799 60 q 804 113 799 107 l 1203 586 l 907 586 q 883 597 890 586 q 876 632 876 608 q 922 726 876 726 l 1411 726 z "},"ǆ":{"ha":1464,"x_min":43,"x_max":1439,"o":"m 43 0 m 746 138 q 753 135 751 138 q 756 124 756 132 q 747 53 756 103 q 708 6 742 22 q 639 -10 675 -10 q 490 110 508 -10 q 405 22 457 53 q 290 -10 353 -10 q 167 22 224 -10 q 77 122 111 54 q 43 290 43 189 q 85 522 43 421 q 202 680 126 624 q 375 736 278 736 q 539 678 469 736 l 575 1007 q 651 1046 579 1046 l 678 1046 q 731 1035 714 1046 q 747 1008 747 1025 q 697 538 733 882 q 661 179 661 194 q 672 140 661 151 q 706 129 683 129 q 730 133 718 129 q 746 138 742 138 m 526 556 q 411 596 478 596 q 268 517 315 596 q 221 301 221 438 q 253 174 221 214 q 350 133 285 133 q 430 168 390 133 q 497 271 469 203 l 526 556 m 1411 726 q 1431 696 1422 726 q 1439 638 1439 665 q 1433 614 1439 619 l 1035 140 l 1357 140 q 1381 129 1374 140 q 1389 94 1389 118 q 1343 0 1389 0 l 828 0 q 808 30 817 0 q 799 88 799 60 q 804 113 799 107 l 1203 586 l 907 586 q 883 597 890 586 q 876 632 876 608 q 922 726 876 726 l 1411 726 m 1353 1000 q 1381 985 1381 1000 q 1371 963 1381 974 l 1271 828 q 1240 806 1258 811 q 1190 800 1221 800 l 1168 800 q 1121 806 1139 800 q 1094 828 1103 811 l 1022 963 q 1018 982 1018 974 q 1047 1000 1018 1000 l 1068 1000 q 1140 972 1119 1000 l 1190 900 l 1253 972 q 1285 994 1267 989 q 1331 1000 1304 1000 l 1353 1000 z "},"e":{"ha":749,"x_min":53,"x_max":690,"o":"m 690 542 q 594 349 690 411 q 364 288 499 288 q 229 297 293 288 q 274 166 231 203 q 396 129 317 129 q 493 144 450 129 q 583 181 536 158 q 611 193 604 193 q 619 190 617 193 q 621 175 621 188 q 618 131 621 163 q 611 85 615 100 q 523 13 599 36 q 375 -10 447 -10 q 138 64 224 -10 q 53 289 53 138 q 156 621 53 506 q 435 736 258 736 q 588 704 531 736 q 667 628 644 672 q 690 542 690 585 m 315 411 q 459 439 399 411 q 519 521 519 467 q 492 576 519 556 q 421 597 465 597 q 238 411 274 597 l 315 411 z "},"é":{"ha":749,"x_min":53,"x_max":690,"o":"m 53 0 m 690 542 q 594 349 690 411 q 364 288 499 288 q 229 297 293 288 q 274 166 231 203 q 396 129 317 129 q 493 144 450 129 q 583 181 536 158 q 611 193 604 193 q 619 190 617 193 q 621 175 621 188 q 618 131 621 163 q 611 85 615 100 q 523 13 599 36 q 375 -10 447 -10 q 138 64 224 -10 q 53 289 53 138 q 156 621 53 506 q 435 736 258 736 q 588 704 531 736 q 667 628 644 672 q 690 542 690 585 m 315 411 q 459 439 399 411 q 519 521 519 467 q 492 576 519 556 q 421 597 465 597 q 238 411 274 597 l 315 411 m 569 1018 q 644 1001 644 1018 q 635 981 644 992 q 581 925 625 971 q 489 835 558 904 q 393 804 458 804 q 364 808 372 804 q 356 819 356 811 q 366 843 356 826 q 396 888 376 860 q 421 924 406 901 q 458 982 436 947 q 569 1018 483 1018 z "},"ĕ":{"ha":749,"x_min":53,"x_max":690,"o":"m 53 0 m 690 542 q 594 349 690 411 q 364 288 499 288 q 229 297 293 288 q 274 166 231 203 q 396 129 317 129 q 493 144 450 129 q 583 181 536 158 q 611 193 604 193 q 619 190 617 193 q 621 175 621 188 q 618 131 621 163 q 611 85 615 100 q 523 13 599 36 q 375 -10 447 -10 q 138 64 224 -10 q 53 289 53 138 q 156 621 53 506 q 435 736 258 736 q 588 704 531 736 q 667 628 644 672 q 690 542 690 585 m 315 411 q 459 439 399 411 q 519 521 519 467 q 492 576 519 556 q 421 597 465 597 q 238 411 274 597 l 315 411 m 614 993 q 649 965 649 993 q 617 884 649 921 q 535 826 586 847 q 429 804 483 804 q 295 844 349 804 q 242 947 242 885 q 251 981 242 969 q 285 993 261 993 q 305 988 299 993 q 315 976 311 983 q 322 964 319 968 q 442 918 349 918 q 525 932 494 918 q 576 969 556 946 q 584 980 578 972 q 597 990 590 988 q 614 993 603 993 z "},"ě":{"ha":749,"x_min":53,"x_max":690,"o":"m 53 0 m 690 542 q 594 349 690 411 q 364 288 499 288 q 229 297 293 288 q 274 166 231 203 q 396 129 317 129 q 493 144 450 129 q 583 181 536 158 q 611 193 604 193 q 619 190 617 193 q 621 175 621 188 q 618 131 621 163 q 611 85 615 100 q 523 13 599 36 q 375 -10 447 -10 q 138 64 224 -10 q 53 289 53 138 q 156 621 53 506 q 435 736 258 736 q 588 704 531 736 q 667 628 644 672 q 690 542 690 585 m 315 411 q 459 439 399 411 q 519 521 519 467 q 492 576 519 556 q 421 597 465 597 q 238 411 274 597 l 315 411 m 603 1000 q 631 985 631 1000 q 621 963 631 974 l 521 828 q 490 806 508 811 q 440 800 471 800 l 418 800 q 371 806 389 800 q 344 828 353 811 l 272 963 q 268 982 268 974 q 297 1000 268 1000 l 318 1000 q 390 972 369 1000 l 440 900 l 503 972 q 535 994 517 989 q 581 1000 554 1000 l 603 1000 z "},"ê":{"ha":749,"x_min":53,"x_max":690,"o":"m 53 0 m 690 542 q 594 349 690 411 q 364 288 499 288 q 229 297 293 288 q 274 166 231 203 q 396 129 317 129 q 493 144 450 129 q 583 181 536 158 q 611 193 604 193 q 619 190 617 193 q 621 175 621 188 q 618 131 621 163 q 611 85 615 100 q 523 13 599 36 q 375 -10 447 -10 q 138 64 224 -10 q 53 289 53 138 q 156 621 53 506 q 435 736 258 736 q 588 704 531 736 q 667 628 644 672 q 690 542 690 585 m 315 411 q 459 439 399 411 q 519 521 519 467 q 492 576 519 556 q 421 597 465 597 q 238 411 274 597 l 315 411 m 457 997 q 504 992 486 997 q 531 969 522 986 l 603 835 q 607 815 607 825 q 599 801 607 807 q 578 796 592 796 l 557 796 q 485 824 506 796 l 435 897 l 372 825 q 338 802 357 808 q 293 796 319 796 l 271 796 q 244 811 244 796 q 254 835 244 821 l 354 969 q 385 992 365 986 q 433 997 404 997 l 457 997 z "},"ế":{"ha":749,"x_min":53,"x_max":849,"o":"m 774 1197 q 849 1181 849 1197 q 840 1160 849 1171 q 785 1104 831 1149 q 693 1014 763 1083 q 597 983 663 983 q 568 987 576 983 q 560 999 560 990 q 570 1022 560 1006 q 600 1067 581 1039 q 625 1103 610 1081 q 663 1161 640 1126 q 774 1197 688 1197 m 272 796 q 246 811 246 796 q 256 835 246 821 l 356 969 q 386 992 367 986 q 435 997 406 997 l 458 997 q 495 991 481 997 q 518 969 510 985 l 583 835 q 588 815 588 825 q 580 801 588 807 q 558 796 572 796 l 538 796 q 488 801 507 796 q 465 824 469 807 l 436 897 l 374 825 q 340 802 358 808 q 294 796 321 796 l 272 796 m 435 736 q 588 704 531 736 q 667 628 644 672 q 690 542 690 585 q 594 349 690 411 q 364 288 499 288 q 229 297 293 288 q 274 166 231 203 q 396 129 317 129 q 493 144 450 129 q 583 181 536 158 q 611 193 604 193 q 619 190 617 193 q 621 175 621 188 q 618 131 621 163 q 611 85 615 100 q 523 13 599 36 q 375 -10 447 -10 q 138 64 224 -10 q 53 289 53 138 q 156 621 53 506 q 435 736 258 736 m 315 411 q 459 439 399 411 q 519 521 519 467 q 492 576 519 556 q 421 597 465 597 q 238 411 274 597 l 315 411 z "},"ệ":{"ha":749,"x_min":53,"x_max":690,"o":"m 53 0 m 690 542 q 594 349 690 411 q 364 288 499 288 q 229 297 293 288 q 274 166 231 203 q 396 129 317 129 q 493 144 450 129 q 583 181 536 158 q 611 193 604 193 q 619 190 617 193 q 621 175 621 188 q 618 131 621 163 q 611 85 615 100 q 523 13 599 36 q 375 -10 447 -10 q 138 64 224 -10 q 53 289 53 138 q 156 621 53 506 q 435 736 258 736 q 588 704 531 736 q 667 628 644 672 q 690 542 690 585 m 315 411 q 459 439 399 411 q 519 521 519 467 q 492 576 519 556 q 421 597 465 597 q 238 411 274 597 l 315 411 m 457 997 q 504 992 486 997 q 531 969 522 986 l 603 835 q 607 815 607 825 q 599 801 607 807 q 578 796 592 796 l 557 796 q 485 824 506 796 l 435 897 l 372 825 q 338 802 357 808 q 293 796 319 796 l 271 796 q 244 811 244 796 q 254 835 244 821 l 354 969 q 385 992 365 986 q 433 997 404 997 l 457 997 m 361 -111 q 415 -121 399 -111 q 431 -150 431 -131 l 422 -229 q 343 -268 415 -268 q 289 -259 304 -268 q 274 -229 274 -250 l 282 -150 q 361 -111 286 -111 z "},"ề":{"ha":749,"x_min":53,"x_max":711,"o":"m 650 1132 q 695 1043 679 1076 q 711 1001 711 1010 q 701 988 711 992 q 671 983 692 983 q 581 1014 606 983 l 524 1081 q 469 1147 486 1125 q 453 1178 453 1169 q 472 1193 453 1189 q 532 1197 490 1197 q 635 1161 617 1197 l 650 1132 m 272 796 q 246 811 246 796 q 256 835 246 821 l 356 969 q 386 992 367 986 q 435 997 406 997 l 458 997 q 495 991 481 997 q 518 969 510 985 l 583 835 q 588 815 588 825 q 580 801 588 807 q 558 796 572 796 l 538 796 q 488 801 507 796 q 465 824 469 807 l 436 897 l 374 825 q 340 802 358 808 q 294 796 321 796 l 272 796 m 435 736 q 588 704 531 736 q 667 628 644 672 q 690 542 690 585 q 594 349 690 411 q 364 288 499 288 q 229 297 293 288 q 274 166 231 203 q 396 129 317 129 q 493 144 450 129 q 583 181 536 158 q 611 193 604 193 q 619 190 617 193 q 621 175 621 188 q 618 131 621 163 q 611 85 615 100 q 523 13 599 36 q 375 -10 447 -10 q 138 64 224 -10 q 53 289 53 138 q 156 621 53 506 q 435 736 258 736 m 315 411 q 459 439 399 411 q 519 521 519 467 q 492 576 519 556 q 421 597 465 597 q 238 411 274 597 l 315 411 z "},"ể":{"ha":749,"x_min":53,"x_max":800,"o":"m 663 1222 q 761 1194 722 1222 q 800 1118 800 1165 q 772 1047 800 1082 q 708 990 743 1013 q 660 967 672 967 q 608 975 628 967 q 589 994 589 983 q 599 1013 589 1004 q 629 1038 608 1022 q 674 1074 660 1058 q 689 1110 689 1089 q 677 1133 689 1125 q 644 1142 665 1142 q 603 1133 621 1142 q 581 1125 585 1125 q 560 1145 572 1125 q 549 1179 549 1165 q 588 1208 549 1193 q 663 1222 626 1222 m 272 796 q 246 811 246 796 q 256 835 246 821 l 356 969 q 386 992 367 986 q 435 997 406 997 l 458 997 q 495 991 481 997 q 518 969 510 985 l 583 835 q 588 815 588 825 q 580 801 588 807 q 558 796 572 796 l 538 796 q 488 801 507 796 q 465 824 469 807 l 436 897 l 374 825 q 340 802 358 808 q 294 796 321 796 l 272 796 m 435 736 q 588 704 531 736 q 667 628 644 672 q 690 542 690 585 q 594 349 690 411 q 364 288 499 288 q 229 297 293 288 q 274 166 231 203 q 396 129 317 129 q 493 144 450 129 q 583 181 536 158 q 611 193 604 193 q 619 190 617 193 q 621 175 621 188 q 618 131 621 163 q 611 85 615 100 q 523 13 599 36 q 375 -10 447 -10 q 138 64 224 -10 q 53 289 53 138 q 156 621 53 506 q 435 736 258 736 m 315 411 q 459 439 399 411 q 519 521 519 467 q 492 576 519 556 q 421 597 465 597 q 238 411 274 597 l 315 411 z "},"ễ":{"ha":749,"x_min":53,"x_max":699,"o":"m 675 1215 q 699 1186 699 1208 q 694 1167 699 1178 q 645 1095 678 1121 q 565 1069 613 1069 q 460 1094 535 1069 q 410 1110 435 1103 q 371 1117 386 1117 q 325 1088 346 1117 q 294 1065 310 1065 q 279 1068 290 1065 l 267 1074 q 243 1104 243 1082 q 247 1122 243 1113 q 297 1193 264 1167 q 378 1219 331 1219 q 427 1211 397 1219 q 485 1193 457 1203 q 569 1171 544 1172 q 617 1200 596 1171 q 647 1222 632 1222 q 663 1219 651 1222 l 675 1215 m 271 796 q 244 811 244 796 q 254 835 244 821 l 354 969 q 385 992 365 986 q 433 997 404 997 l 457 997 q 504 992 486 997 q 531 969 522 986 l 603 835 q 607 815 607 825 q 599 801 607 807 q 578 796 592 796 l 557 796 q 485 824 506 796 l 435 897 l 372 825 q 338 802 357 808 q 293 796 319 796 l 271 796 m 435 736 q 588 704 531 736 q 667 628 644 672 q 690 542 690 585 q 594 349 690 411 q 364 288 499 288 q 229 297 293 288 q 274 166 231 203 q 396 129 317 129 q 493 144 450 129 q 583 181 536 158 q 611 193 604 193 q 619 190 617 193 q 621 175 621 188 q 618 131 621 163 q 611 85 615 100 q 523 13 599 36 q 375 -10 447 -10 q 138 64 224 -10 q 53 289 53 138 q 156 621 53 506 q 435 736 258 736 m 315 411 q 459 439 399 411 q 519 521 519 467 q 492 576 519 556 q 421 597 465 597 q 238 411 274 597 l 315 411 z "},"ë":{"ha":749,"x_min":53,"x_max":690,"o":"m 53 0 m 690 542 q 594 349 690 411 q 364 288 499 288 q 229 297 293 288 q 274 166 231 203 q 396 129 317 129 q 493 144 450 129 q 583 181 536 158 q 611 193 604 193 q 619 190 617 193 q 621 175 621 188 q 618 131 621 163 q 611 85 615 100 q 523 13 599 36 q 375 -10 447 -10 q 138 64 224 -10 q 53 289 53 138 q 156 621 53 506 q 435 736 258 736 q 588 704 531 736 q 667 628 644 672 q 690 542 690 585 m 315 411 q 459 439 399 411 q 519 521 519 467 q 492 576 519 556 q 421 597 465 597 q 238 411 274 597 l 315 411 m 336 975 q 390 965 374 975 q 406 936 406 956 l 396 857 q 318 818 392 818 q 263 827 279 818 q 247 857 247 836 l 257 936 q 336 975 261 975 m 567 975 q 622 965 606 975 q 638 936 638 956 l 628 857 q 549 818 624 818 q 494 827 510 818 q 479 857 479 836 l 489 936 q 567 975 492 975 z "},"ė":{"ha":749,"x_min":53,"x_max":690,"o":"m 53 0 m 690 542 q 594 349 690 411 q 364 288 499 288 q 229 297 293 288 q 274 166 231 203 q 396 129 317 129 q 493 144 450 129 q 583 181 536 158 q 611 193 604 193 q 619 190 617 193 q 621 175 621 188 q 618 131 621 163 q 611 85 615 100 q 523 13 599 36 q 375 -10 447 -10 q 138 64 224 -10 q 53 289 53 138 q 156 621 53 506 q 435 736 258 736 q 588 704 531 736 q 667 628 644 672 q 690 542 690 585 m 315 411 q 459 439 399 411 q 519 521 519 467 q 492 576 519 556 q 421 597 465 597 q 238 411 274 597 l 315 411 m 439 975 q 492 965 476 975 q 508 936 508 956 l 500 857 q 421 818 493 818 q 367 827 382 818 q 351 857 351 836 l 360 936 q 439 975 364 975 z "},"ẹ":{"ha":749,"x_min":53,"x_max":690,"o":"m 53 0 m 690 542 q 594 349 690 411 q 364 288 499 288 q 229 297 293 288 q 274 166 231 203 q 396 129 317 129 q 493 144 450 129 q 583 181 536 158 q 611 193 604 193 q 619 190 617 193 q 621 175 621 188 q 618 131 621 163 q 611 85 615 100 q 523 13 599 36 q 375 -10 447 -10 q 138 64 224 -10 q 53 289 53 138 q 156 621 53 506 q 435 736 258 736 q 588 704 531 736 q 667 628 644 672 q 690 542 690 585 m 315 411 q 459 439 399 411 q 519 521 519 467 q 492 576 519 556 q 421 597 465 597 q 238 411 274 597 l 315 411 m 361 -111 q 415 -121 399 -111 q 431 -150 431 -131 l 422 -229 q 343 -268 415 -268 q 289 -259 304 -268 q 274 -229 274 -250 l 282 -150 q 361 -111 286 -111 z "},"è":{"ha":749,"x_min":53,"x_max":690,"o":"m 53 0 m 690 542 q 594 349 690 411 q 364 288 499 288 q 229 297 293 288 q 274 166 231 203 q 396 129 317 129 q 493 144 450 129 q 583 181 536 158 q 611 193 604 193 q 619 190 617 193 q 621 175 621 188 q 618 131 621 163 q 611 85 615 100 q 523 13 599 36 q 375 -10 447 -10 q 138 64 224 -10 q 53 289 53 138 q 156 621 53 506 q 435 736 258 736 q 588 704 531 736 q 667 628 644 672 q 690 542 690 585 m 315 411 q 459 439 399 411 q 519 521 519 467 q 492 576 519 556 q 421 597 465 597 q 238 411 274 597 l 315 411 m 328 1018 q 431 982 413 1018 l 446 953 q 491 864 475 897 q 507 822 507 831 q 497 808 507 813 q 467 804 488 804 q 376 835 401 804 l 319 901 q 265 968 282 946 q 249 999 249 990 q 267 1014 249 1010 q 328 1018 286 1018 z "},"ẻ":{"ha":749,"x_min":53,"x_max":690,"o":"m 53 0 m 690 542 q 594 349 690 411 q 364 288 499 288 q 229 297 293 288 q 274 166 231 203 q 396 129 317 129 q 493 144 450 129 q 583 181 536 158 q 611 193 604 193 q 619 190 617 193 q 621 175 621 188 q 618 131 621 163 q 611 85 615 100 q 523 13 599 36 q 375 -10 447 -10 q 138 64 224 -10 q 53 289 53 138 q 156 621 53 506 q 435 736 258 736 q 588 704 531 736 q 667 628 644 672 q 690 542 690 585 m 315 411 q 459 439 399 411 q 519 521 519 467 q 492 576 519 556 q 421 597 465 597 q 238 411 274 597 l 315 411 m 485 931 q 473 954 485 946 q 440 963 461 963 q 399 954 417 963 q 376 946 381 946 q 356 966 368 946 q 344 1000 344 986 q 383 1028 344 1014 q 458 1043 422 1043 q 557 1015 518 1043 q 596 939 596 986 q 567 868 596 903 q 503 810 539 833 q 456 788 468 788 q 404 796 424 788 q 385 815 385 804 q 394 834 385 825 q 425 858 404 843 q 470 894 456 879 q 485 931 485 910 z "},"ē":{"ha":749,"x_min":53,"x_max":690,"o":"m 53 0 m 690 542 q 594 349 690 411 q 364 288 499 288 q 229 297 293 288 q 274 166 231 203 q 396 129 317 129 q 493 144 450 129 q 583 181 536 158 q 611 193 604 193 q 619 190 617 193 q 621 175 621 188 q 618 131 621 163 q 611 85 615 100 q 523 13 599 36 q 375 -10 447 -10 q 138 64 224 -10 q 53 289 53 138 q 156 621 53 506 q 435 736 258 736 q 588 704 531 736 q 667 628 644 672 q 690 542 690 585 m 315 411 q 459 439 399 411 q 519 521 519 467 q 492 576 519 556 q 421 597 465 597 q 238 411 274 597 l 315 411 m 599 957 q 631 917 631 957 q 622 862 631 888 q 585 836 613 836 l 281 836 q 256 846 264 836 q 249 876 249 856 q 293 957 249 957 l 599 957 z "},"ę":{"ha":749,"x_min":53,"x_max":690,"o":"m 625 -136 q 635 -143 632 -136 q 638 -168 638 -150 q 602 -235 638 -217 q 515 -254 567 -254 q 397 -217 429 -254 q 365 -131 365 -179 q 376 -67 365 -103 q 406 -8 386 -32 q 375 -10 394 -10 q 138 64 224 -10 q 53 289 53 138 q 156 621 53 506 q 435 736 258 736 q 588 704 531 736 q 667 628 644 672 q 690 542 690 585 q 594 349 690 411 q 364 288 499 288 q 229 297 293 288 q 274 166 231 203 q 396 129 317 129 q 493 144 450 129 q 583 181 536 158 q 611 193 604 193 q 619 190 617 193 q 621 175 621 188 q 618 131 621 163 q 611 85 615 100 q 486 3 597 29 l 486 -1 q 476 -33 486 -14 q 461 -97 461 -69 q 485 -145 461 -133 q 542 -157 508 -157 q 594 -147 568 -157 q 625 -136 621 -136 m 421 597 q 238 411 274 597 l 315 411 q 459 439 399 411 q 519 521 519 467 q 492 576 519 556 q 421 597 465 597 z "},"ẽ":{"ha":749,"x_min":53,"x_max":690,"o":"m 53 0 m 690 542 q 594 349 690 411 q 364 288 499 288 q 229 297 293 288 q 274 166 231 203 q 396 129 317 129 q 493 144 450 129 q 583 181 536 158 q 611 193 604 193 q 619 190 617 193 q 621 175 621 188 q 618 131 621 163 q 611 85 615 100 q 523 13 599 36 q 375 -10 447 -10 q 138 64 224 -10 q 53 289 53 138 q 156 621 53 506 q 435 736 258 736 q 588 704 531 736 q 667 628 644 672 q 690 542 690 585 m 315 411 q 459 439 399 411 q 519 521 519 467 q 492 576 519 556 q 421 597 465 597 q 238 411 274 597 l 315 411 m 331 963 q 384 954 351 963 q 447 936 417 946 q 542 914 514 915 q 593 943 571 914 q 628 965 610 965 l 644 963 l 657 958 q 683 929 683 951 q 679 910 683 921 q 624 838 661 864 q 538 813 588 813 q 421 838 504 813 q 367 853 393 846 q 324 860 340 860 q 272 831 294 860 q 239 808 256 808 q 222 811 233 808 l 208 817 q 183 846 183 825 q 188 865 183 856 q 242 936 206 910 q 331 963 278 963 z "},"f":{"ha":451,"x_min":60,"x_max":493,"o":"m 372 1054 q 493 997 493 1054 q 478 942 493 978 q 447 906 463 906 q 431 910 443 906 q 396 914 418 914 q 350 897 365 914 q 331 840 335 881 l 318 726 l 415 726 q 433 720 428 726 q 438 699 438 714 q 418 625 438 664 q 363 586 399 586 l 303 586 l 246 36 q 169 -3 242 -3 l 142 -3 q 90 8 107 -3 q 72 36 72 18 l 129 586 l 92 586 q 60 632 60 586 q 70 699 60 672 q 107 726 81 726 l 146 726 l 157 843 q 224 1002 165 950 q 372 1054 283 1054 z "},"g":{"ha":758,"x_min":50,"x_max":711,"o":"m 647 729 q 711 696 711 729 l 653 132 q 547 -193 631 -92 q 304 -294 464 -294 q 178 -281 235 -294 q 88 -245 121 -268 q 54 -196 54 -222 q 79 -92 54 -92 q 113 -109 83 -92 q 184 -140 143 -126 q 278 -154 225 -154 q 416 -94 367 -154 q 475 90 465 -35 l 476 106 q 393 31 442 57 q 289 4 344 4 q 118 77 186 4 q 50 294 50 150 q 92 524 50 424 q 208 681 133 625 q 381 736 283 736 q 554 664 475 736 q 580 715 567 701 q 633 729 593 728 l 647 729 m 513 450 q 528 554 519 517 q 415 596 474 596 q 272 518 318 596 q 226 306 226 440 q 347 147 226 147 q 427 182 388 147 q 494 285 467 217 l 513 450 z "},"ğ":{"ha":758,"x_min":50,"x_max":711,"o":"m 50 0 m 647 729 q 711 696 711 729 l 653 132 q 547 -193 631 -92 q 304 -294 464 -294 q 178 -281 235 -294 q 88 -245 121 -268 q 54 -196 54 -222 q 79 -92 54 -92 q 113 -109 83 -92 q 184 -140 143 -126 q 278 -154 225 -154 q 416 -94 367 -154 q 475 90 465 -35 l 476 106 q 393 31 442 57 q 289 4 344 4 q 118 77 186 4 q 50 294 50 150 q 92 524 50 424 q 208 681 133 625 q 381 736 283 736 q 554 664 475 736 q 580 715 567 701 q 633 729 593 728 l 647 729 m 513 450 q 528 554 519 517 q 415 596 474 596 q 272 518 318 596 q 226 306 226 440 q 347 147 226 147 q 427 182 388 147 q 494 285 467 217 l 513 450 m 613 993 q 647 965 647 993 q 616 884 647 921 q 533 826 585 847 q 428 804 482 804 q 294 844 347 804 q 240 947 240 885 q 250 981 240 969 q 283 993 260 993 q 303 988 297 993 q 314 976 310 983 q 321 964 318 968 q 440 918 347 918 q 524 932 493 918 q 575 969 554 946 q 583 980 576 972 q 595 990 589 988 q 613 993 601 993 z "},"ĝ":{"ha":758,"x_min":50,"x_max":711,"o":"m 50 0 m 647 729 q 711 696 711 729 l 653 132 q 547 -193 631 -92 q 304 -294 464 -294 q 178 -281 235 -294 q 88 -245 121 -268 q 54 -196 54 -222 q 79 -92 54 -92 q 113 -109 83 -92 q 184 -140 143 -126 q 278 -154 225 -154 q 416 -94 367 -154 q 475 90 465 -35 l 476 106 q 393 31 442 57 q 289 4 344 4 q 118 77 186 4 q 50 294 50 150 q 92 524 50 424 q 208 681 133 625 q 381 736 283 736 q 554 664 475 736 q 580 715 567 701 q 633 729 593 728 l 647 729 m 513 450 q 528 554 519 517 q 415 596 474 596 q 272 518 318 596 q 226 306 226 440 q 347 147 226 147 q 427 182 388 147 q 494 285 467 217 l 513 450 m 456 997 q 503 992 485 997 q 529 969 521 986 l 601 835 q 606 815 606 825 q 598 801 606 807 q 576 796 590 796 l 556 796 q 483 824 504 796 l 433 897 l 371 825 q 337 802 356 808 q 292 796 318 796 l 269 796 q 243 811 243 796 q 253 835 243 821 l 353 969 q 383 992 364 986 q 432 997 403 997 l 456 997 z "},"ģ":{"ha":758,"x_min":50,"x_max":711,"o":"m 50 0 m 647 729 q 711 696 711 729 l 653 132 q 547 -193 631 -92 q 304 -294 464 -294 q 178 -281 235 -294 q 88 -245 121 -268 q 54 -196 54 -222 q 79 -92 54 -92 q 113 -109 83 -92 q 184 -140 143 -126 q 278 -154 225 -154 q 416 -94 367 -154 q 475 90 465 -35 l 476 106 q 393 31 442 57 q 289 4 344 4 q 118 77 186 4 q 50 294 50 150 q 92 524 50 424 q 208 681 133 625 q 381 736 283 736 q 554 664 475 736 q 580 715 567 701 q 633 729 593 728 l 647 729 m 513 450 q 528 554 519 517 q 415 596 474 596 q 272 518 318 596 q 226 306 226 440 q 347 147 226 147 q 427 182 388 147 q 494 285 467 217 l 513 450 m 414 804 q 356 857 356 804 q 387 947 356 899 q 460 1030 418 996 q 525 1064 501 1064 q 560 1058 544 1064 q 576 1039 576 1051 q 568 1015 576 1029 q 558 999 560 1001 q 527 935 539 965 q 515 860 515 904 q 494 819 515 835 q 436 804 474 804 l 414 804 z "},"ġ":{"ha":758,"x_min":50,"x_max":711,"o":"m 50 0 m 647 729 q 711 696 711 729 l 653 132 q 547 -193 631 -92 q 304 -294 464 -294 q 178 -281 235 -294 q 88 -245 121 -268 q 54 -196 54 -222 q 79 -92 54 -92 q 113 -109 83 -92 q 184 -140 143 -126 q 278 -154 225 -154 q 416 -94 367 -154 q 475 90 465 -35 l 476 106 q 393 31 442 57 q 289 4 344 4 q 118 77 186 4 q 50 294 50 150 q 92 524 50 424 q 208 681 133 625 q 381 736 283 736 q 554 664 475 736 q 580 715 567 701 q 633 729 593 728 l 647 729 m 513 450 q 528 554 519 517 q 415 596 474 596 q 272 518 318 596 q 226 306 226 440 q 347 147 226 147 q 427 182 388 147 q 494 285 467 217 l 513 450 m 438 975 q 491 965 475 975 q 507 936 507 956 l 499 857 q 419 818 492 818 q 365 827 381 818 q 350 857 350 836 l 358 936 q 438 975 363 975 z "},"h":{"ha":785,"x_min":47,"x_max":742,"o":"m 253 1046 q 306 1035 289 1046 q 322 1008 322 1025 l 282 628 q 383 707 325 678 q 500 736 442 736 q 683 558 683 736 q 675 469 681 525 q 665 365 669 414 q 647 179 647 203 q 658 140 647 151 q 692 129 669 129 q 715 133 703 129 q 731 138 726 138 q 742 124 742 138 q 733 53 742 103 q 694 6 728 22 q 625 -10 661 -10 q 472 151 472 -10 q 493 367 472 174 q 507 508 507 508 q 421 592 507 592 q 335 558 376 592 q 265 461 293 525 l 219 36 q 143 -3 215 -3 l 117 -3 q 65 8 82 -3 q 47 35 47 18 l 149 1007 q 226 1046 153 1046 l 253 1046 z "},"ħ":{"ha":785,"x_min":47,"x_max":742,"o":"m 731 138 q 742 124 742 138 q 733 53 742 103 q 694 6 728 22 q 625 -10 661 -10 q 472 151 472 -10 q 493 367 472 174 q 507 508 507 508 q 421 592 507 592 q 335 558 376 592 q 265 461 293 525 l 219 36 q 143 -3 215 -3 l 117 -3 q 65 8 82 -3 q 47 35 47 18 l 129 817 l 94 817 q 70 826 78 817 q 63 857 63 836 q 107 938 63 938 l 142 938 l 149 1007 q 226 1046 153 1046 l 253 1046 q 306 1035 289 1046 q 322 1008 322 1025 l 315 938 l 413 938 q 444 897 444 938 q 435 842 444 868 q 399 817 426 817 l 301 817 l 282 628 q 383 707 325 678 q 500 736 442 736 q 683 558 683 736 q 675 469 681 525 q 665 365 669 414 q 647 179 647 203 q 658 140 647 151 q 692 129 669 129 q 715 133 703 129 q 731 138 726 138 z "},"ĥ":{"ha":785,"x_min":47,"x_max":742,"o":"m 47 0 m 253 1046 q 306 1035 289 1046 q 322 1008 322 1025 l 282 628 q 383 707 325 678 q 500 736 442 736 q 683 558 683 736 q 675 469 681 525 q 665 365 669 414 q 647 179 647 203 q 658 140 647 151 q 692 129 669 129 q 715 133 703 129 q 731 138 726 138 q 742 124 742 138 q 733 53 742 103 q 694 6 728 22 q 625 -10 661 -10 q 472 151 472 -10 q 493 367 472 174 q 507 508 507 508 q 421 592 507 592 q 335 558 376 592 q 265 461 293 525 l 219 36 q 143 -3 215 -3 l 117 -3 q 65 8 82 -3 q 47 35 47 18 l 149 1007 q 226 1046 153 1046 l 253 1046 m 278 1285 q 325 1279 307 1285 q 351 1257 343 1274 l 424 1122 q 428 1103 428 1113 q 420 1089 428 1094 q 399 1083 413 1083 l 378 1083 q 306 1111 326 1083 l 256 1185 l 193 1113 q 159 1090 178 1096 q 114 1083 140 1083 l 92 1083 q 65 1099 65 1083 q 75 1122 65 1108 l 175 1257 q 206 1279 186 1274 q 254 1285 225 1285 l 278 1285 z "},"ḥ":{"ha":785,"x_min":47,"x_max":742,"o":"m 47 0 m 253 1046 q 306 1035 289 1046 q 322 1008 322 1025 l 282 628 q 383 707 325 678 q 500 736 442 736 q 683 558 683 736 q 675 469 681 525 q 665 365 669 414 q 647 179 647 203 q 658 140 647 151 q 692 129 669 129 q 715 133 703 129 q 731 138 726 138 q 742 124 742 138 q 733 53 742 103 q 694 6 728 22 q 625 -10 661 -10 q 472 151 472 -10 q 493 367 472 174 q 507 508 507 508 q 421 592 507 592 q 335 558 376 592 q 265 461 293 525 l 219 36 q 143 -3 215 -3 l 117 -3 q 65 8 82 -3 q 47 35 47 18 l 149 1007 q 226 1046 153 1046 l 253 1046 m 354 -111 q 408 -121 392 -111 q 424 -150 424 -131 l 415 -229 q 336 -268 408 -268 q 282 -259 297 -268 q 267 -229 267 -250 l 275 -150 q 354 -111 279 -111 z "},"i":{"ha":368,"x_min":57,"x_max":325,"o":"m 251 1046 q 321 1008 321 1046 l 310 906 q 235 867 306 867 l 204 867 q 150 877 168 867 q 132 904 132 888 l 143 1007 q 219 1046 147 1046 l 251 1046 m 215 729 q 285 690 285 729 q 254 404 276 614 q 232 179 232 194 q 243 140 232 151 q 276 129 254 129 q 299 133 288 129 q 315 138 311 138 q 323 135 321 138 q 325 124 325 132 q 318 53 325 94 q 279 6 313 22 q 210 -10 246 -10 q 57 150 57 -10 q 80 396 57 179 q 111 690 103 613 q 189 729 115 729 l 215 729 z "},"ı":{"ha":368,"x_min":57,"x_max":325,"o":"m 215 729 q 285 690 285 729 q 254 404 276 614 q 232 179 232 194 q 243 140 232 151 q 276 129 254 129 q 299 133 288 129 q 315 138 311 138 q 323 135 321 138 q 325 124 325 132 q 318 53 325 94 q 279 6 313 22 q 210 -10 246 -10 q 57 150 57 -10 q 80 396 57 179 q 111 690 103 613 q 189 729 115 729 l 215 729 z "},"í":{"ha":368,"x_min":57,"x_max":421,"o":"m 57 0 m 215 729 q 285 690 285 729 q 254 404 276 614 q 232 179 232 194 q 243 140 232 151 q 276 129 254 129 q 299 133 288 129 q 315 138 311 138 q 323 135 321 138 q 325 124 325 132 q 318 53 325 94 q 279 6 313 22 q 210 -10 246 -10 q 57 150 57 -10 q 80 396 57 179 q 111 690 103 613 q 189 729 115 729 l 215 729 m 346 1018 q 421 1001 421 1018 q 411 981 421 992 q 357 925 401 971 q 265 835 335 904 q 169 804 235 804 q 140 808 149 804 q 132 819 132 811 q 142 843 132 826 q 172 888 153 860 q 197 924 182 901 q 235 982 213 947 q 346 1018 260 1018 z "},"ĭ":{"ha":368,"x_min":18,"x_max":425,"o":"m 18 0 m 215 729 q 285 690 285 729 q 254 404 276 614 q 232 179 232 194 q 243 140 232 151 q 276 129 254 129 q 299 133 288 129 q 315 138 311 138 q 323 135 321 138 q 325 124 325 132 q 318 53 325 94 q 279 6 313 22 q 210 -10 246 -10 q 57 150 57 -10 q 80 396 57 179 q 111 690 103 613 q 189 729 115 729 l 215 729 m 390 993 q 425 965 425 993 q 394 884 425 921 q 311 826 363 847 q 206 804 260 804 q 72 844 125 804 q 18 947 18 885 q 28 981 18 969 q 61 993 38 993 q 81 988 75 993 q 92 976 88 983 q 99 964 96 968 q 218 918 125 918 q 301 932 271 918 q 353 969 332 946 q 360 980 354 972 q 373 990 367 988 q 390 993 379 993 z "},"î":{"ha":368,"x_min":21,"x_max":383,"o":"m 21 0 m 215 729 q 285 690 285 729 q 254 404 276 614 q 232 179 232 194 q 243 140 232 151 q 276 129 254 129 q 299 133 288 129 q 315 138 311 138 q 323 135 321 138 q 325 124 325 132 q 318 53 325 94 q 279 6 313 22 q 210 -10 246 -10 q 57 150 57 -10 q 80 396 57 179 q 111 690 103 613 q 189 729 115 729 l 215 729 m 233 997 q 281 992 263 997 q 307 969 299 986 l 379 835 q 383 815 383 825 q 376 801 383 807 q 354 796 368 796 l 333 796 q 261 824 282 796 l 211 897 l 149 825 q 115 802 133 808 q 69 796 96 796 l 47 796 q 21 811 21 796 q 31 835 21 821 l 131 969 q 161 992 142 986 q 210 997 181 997 l 233 997 z "},"ï":{"ha":368,"x_min":24,"x_max":414,"o":"m 24 0 m 215 729 q 285 690 285 729 q 254 404 276 614 q 232 179 232 194 q 243 140 232 151 q 276 129 254 129 q 299 133 288 129 q 315 138 311 138 q 323 135 321 138 q 325 124 325 132 q 318 53 325 94 q 279 6 313 22 q 210 -10 246 -10 q 57 150 57 -10 q 80 396 57 179 q 111 690 103 613 q 189 729 115 729 l 215 729 m 113 975 q 166 965 150 975 q 182 936 182 956 l 172 857 q 94 818 168 818 q 40 827 56 818 q 24 857 24 836 l 33 936 q 113 975 38 975 m 343 975 q 398 965 382 975 q 414 936 414 956 l 404 857 q 325 818 400 818 q 271 827 286 818 q 256 857 256 836 l 265 936 q 343 975 268 975 z "},"ị":{"ha":368,"x_min":44,"x_max":325,"o":"m 44 0 m 251 1046 q 321 1008 321 1046 l 310 906 q 235 867 306 867 l 204 867 q 150 877 168 867 q 132 904 132 888 l 143 1007 q 219 1046 147 1046 l 251 1046 m 215 729 q 285 690 285 729 q 254 404 276 614 q 232 179 232 194 q 243 140 232 151 q 276 129 254 129 q 299 133 288 129 q 315 138 311 138 q 323 135 321 138 q 325 124 325 132 q 318 53 325 94 q 279 6 313 22 q 210 -10 246 -10 q 57 150 57 -10 q 80 396 57 179 q 111 690 103 613 q 189 729 115 729 l 215 729 m 132 -111 q 185 -121 169 -111 q 201 -150 201 -131 l 193 -229 q 114 -268 186 -268 q 60 -259 75 -268 q 44 -229 44 -250 l 53 -150 q 132 -111 57 -111 z "},"ì":{"ha":368,"x_min":25,"x_max":325,"o":"m 25 0 m 215 729 q 285 690 285 729 q 254 404 276 614 q 232 179 232 194 q 243 140 232 151 q 276 129 254 129 q 299 133 288 129 q 315 138 311 138 q 323 135 321 138 q 325 124 325 132 q 318 53 325 94 q 279 6 313 22 q 210 -10 246 -10 q 57 150 57 -10 q 80 396 57 179 q 111 690 103 613 q 189 729 115 729 l 215 729 m 104 1018 q 207 982 189 1018 l 222 953 q 267 864 251 897 q 283 822 283 831 q 274 808 283 813 q 243 804 264 804 q 153 835 178 804 l 96 901 q 42 968 58 946 q 25 999 25 990 q 44 1014 25 1010 q 104 1018 63 1018 z "}}}
